if (_typeface_js && _typeface_js.loadFace) _typeface_js.loadFace({"glyphs":{"Ẩ":{"x_min":6.78125,"x_max":966.46875,"ha":977,"o":"m 966 0 l 727 0 l 658 216 l 312 216 l 244 0 l 6 0 l 360 972 l 620 972 l 966 0 m 608 384 l 503 711 q 487 798 492 748 l 482 798 q 465 714 478 756 l 359 384 l 608 384 m 774 1199 l 774 1166 l 680 1166 l 680 1250 q 760 1294 760 1255 q 704 1331 760 1331 q 652 1324 679 1331 l 652 1403 q 729 1407 713 1407 q 871 1301 871 1407 q 774 1199 871 1216 m 720 1063 l 584 1063 l 481 1156 l 385 1063 l 249 1063 l 403 1232 l 566 1232 l 720 1063 "},"Ҿ":{"x_min":27.8125,"x_max":1258.109375,"ha":1312,"o":"m 1258 396 l 543 396 q 845 162 583 162 q 1147 265 992 162 l 1147 70 q 841 -16 1016 -10 q 811 -108 811 -70 q 849 -144 811 -144 q 930 -126 881 -144 l 930 -219 q 826 -236 881 -236 q 732 -203 767 -236 q 697 -118 697 -170 q 735 -12 697 -66 q 438 111 548 6 q 309 396 329 216 l 283 396 q 27 623 27 396 q 55 748 27 685 l 204 748 q 183 663 183 704 q 284 569 183 569 l 312 569 q 470 875 340 761 q 796 988 600 988 q 1130 852 1003 988 q 1258 493 1258 716 l 1258 396 m 1020 569 q 948 745 1009 681 q 794 809 887 809 q 629 745 695 809 q 543 569 562 680 l 1020 569 "},"ǻ":{"x_min":38.65625,"x_max":668.046875,"ha":747,"o":"m 668 0 l 465 0 l 465 99 l 462 99 q 255 -16 392 -16 q 96 40 154 -16 q 38 193 38 97 q 278 426 38 395 l 466 451 q 343 565 466 565 q 107 491 219 565 l 107 653 q 229 693 151 676 q 370 711 307 711 q 668 415 668 711 l 668 0 m 466 282 l 466 328 l 340 312 q 236 218 236 299 q 261 158 236 181 q 330 134 286 134 q 428 176 390 134 q 466 282 466 218 m 388 769 q 274 809 319 769 q 229 915 229 850 q 276 1024 229 983 q 392 1065 323 1065 q 509 1024 464 1065 q 554 919 554 984 q 505 811 554 852 q 388 769 457 769 m 388 981 q 323 917 323 981 q 388 854 323 854 q 439 872 419 854 q 458 917 458 891 q 439 963 458 945 q 388 981 420 981 m 604 1344 l 391 1125 l 237 1125 l 413 1344 l 604 1344 "},"ʉ":{"x_min":27.8125,"x_max":930.515625,"ha":958,"o":"m 930 286 l 813 286 l 813 0 l 600 0 l 600 105 l 597 105 q 385 -16 518 -16 q 144 275 144 -16 l 144 286 l 27 286 l 27 444 l 144 444 l 144 694 l 359 694 l 359 444 l 600 444 l 600 694 l 813 694 l 813 444 l 930 444 l 930 286 m 600 280 l 600 286 l 359 286 l 359 280 q 474 147 359 147 q 564 184 529 147 q 600 280 600 221 "},"ȋ":{"x_min":-31,"x_max":426.125,"ha":395,"o":"m 304 0 l 90 0 l 90 694 l 304 694 l 304 0 m 426 797 l 304 797 q 196 889 292 889 q 91 797 104 889 l -31 797 q 38 949 -22 893 q 199 1005 99 1005 q 361 947 298 1005 q 426 797 423 889 "},"Ổ":{"x_min":50.1875,"x_max":1003.09375,"ha":1053,"o":"m 522 -16 q 181 119 313 -16 q 50 473 50 255 q 183 846 50 704 q 537 988 317 988 q 874 852 746 988 q 1003 493 1003 716 q 869 123 1003 263 q 522 -16 736 -16 m 531 800 q 348 713 416 800 q 280 484 280 627 q 348 256 280 340 q 526 172 416 172 q 706 253 639 172 q 772 480 772 335 q 708 716 772 632 q 531 800 643 800 m 827 1198 l 827 1165 l 733 1165 l 733 1249 q 813 1293 813 1254 q 757 1330 813 1330 q 705 1323 732 1330 l 705 1402 q 782 1406 766 1406 q 924 1300 924 1406 q 827 1198 924 1215 m 773 1062 l 637 1062 l 534 1155 l 438 1062 l 302 1062 l 456 1231 l 619 1231 l 773 1062 "},"ṑ":{"x_min":48.828125,"x_max":800.296875,"ha":849,"o":"m 421 -16 q 148 80 247 -16 q 48 344 48 177 q 151 614 48 516 q 430 711 255 711 q 701 614 603 711 q 800 356 800 516 q 698 83 800 183 q 421 -16 597 -16 m 426 547 q 308 495 350 547 q 266 347 266 442 q 427 147 266 147 q 581 352 581 147 q 426 547 581 547 m 536 966 l 403 966 l 224 1133 l 414 1133 l 536 966 m 627 826 l 229 826 l 229 929 l 627 929 l 627 826 "},"ѩ":{"x_min":90.203125,"x_max":1134.671875,"ha":1137,"o":"m 1134 0 l 938 0 l 861 215 l 809 165 l 809 0 l 665 0 l 665 165 l 622 215 l 545 0 l 355 0 l 466 282 l 304 282 l 304 0 l 90 0 l 90 694 l 304 694 l 304 423 l 522 423 l 629 694 l 865 694 l 1134 0 m 811 355 l 755 512 q 746 583 751 524 l 740 583 q 730 515 739 560 l 673 355 l 740 279 l 811 355 "},"`":{"x_min":297.734375,"x_max":552.078125,"ha":849,"o":"m 552 792 l 438 792 l 297 1022 l 487 1022 l 552 792 "},"ǆ":{"x_min":48.828125,"x_max":1483.25,"ha":1508,"o":"m 769 0 l 555 0 l 555 95 l 552 95 q 337 -16 479 -16 q 128 74 207 -16 q 48 331 48 166 q 136 607 48 503 q 365 711 223 711 q 552 615 499 711 l 555 615 l 555 1028 l 769 1028 l 769 0 m 559 337 l 559 389 q 520 502 559 457 q 417 547 480 547 q 306 491 346 547 q 266 337 266 435 q 305 196 266 246 q 412 147 343 147 q 518 199 477 147 q 559 337 559 251 m 1483 0 l 859 0 l 859 88 l 1208 536 l 894 536 l 894 694 l 1480 694 l 1480 588 l 1150 158 l 1483 158 l 1483 0 m 1445 1024 l 1283 804 l 1115 804 l 956 1024 l 1095 1024 l 1200 897 l 1306 1024 l 1445 1024 "},"Ƹ":{"x_min":50.1875,"x_max":901.359375,"ha":929,"o":"m 901 -245 q 559 -326 744 -326 q 191 -213 333 -326 q 50 82 50 -100 q 154 347 50 238 q 430 484 259 457 l 107 849 l 107 972 l 890 972 l 890 794 l 402 794 l 711 442 l 711 316 l 613 316 q 368 257 456 316 q 280 91 280 198 q 359 -75 280 -12 q 571 -137 438 -137 q 901 -37 768 -137 l 901 -245 "},"ɤ":{"x_min":6.78125,"x_max":755.546875,"ha":763,"o":"m 755 516 q 657 547 705 547 q 522 480 584 547 q 648 216 648 344 q 574 49 648 116 q 375 -16 499 -16 q 183 47 252 -16 q 113 212 113 111 q 240 480 113 344 q 105 547 177 547 q 6 516 56 547 l 6 686 q 118 711 59 711 q 258 685 202 711 q 381 596 314 658 q 505 685 450 658 q 644 711 560 711 q 755 686 703 711 l 755 516 m 381 377 q 312 227 312 295 q 331 164 312 189 q 381 140 350 140 q 431 165 412 140 q 450 227 450 189 q 381 377 450 295 "},"Ḻ":{"x_min":111.234375,"x_max":690.4375,"ha":710,"o":"m 690 0 l 111 0 l 111 972 l 330 972 l 330 177 l 690 177 l 690 0 m 599 -176 l 201 -176 l 201 -59 l 599 -59 l 599 -176 "},"ƃ":{"x_min":90.203125,"x_max":812.515625,"ha":861,"o":"m 307 80 l 304 80 l 304 0 l 90 0 l 90 1028 l 714 1028 l 714 889 l 304 889 l 304 590 l 307 590 q 533 711 386 711 q 739 619 667 711 q 812 366 812 526 q 727 88 812 193 q 501 -16 642 -16 q 307 80 373 -16 m 301 373 l 301 302 q 339 191 301 235 q 438 147 378 147 q 552 203 512 147 q 592 364 592 260 q 555 498 592 450 q 450 547 518 547 q 343 499 385 547 q 301 373 301 451 "},"ἂ":{"x_min":49.515625,"x_max":858.625,"ha":884,"o":"m 858 694 l 713 356 l 826 0 l 612 0 l 580 145 l 576 145 q 333 -16 492 -16 q 126 76 203 -16 q 49 327 49 170 q 139 604 49 498 q 374 711 228 711 q 600 568 541 711 l 604 568 l 642 694 l 858 694 m 539 356 q 401 548 499 548 q 302 491 341 548 q 263 340 263 433 q 296 200 263 252 q 379 149 328 149 q 529 324 474 149 l 539 356 m 243 783 l 200 844 q 283 897 267 868 q 211 972 211 904 q 235 1028 211 1006 q 300 1049 260 1049 q 402 952 402 1049 q 243 783 402 840 m 657 792 l 554 792 l 417 1045 l 600 1045 l 657 792 "},"ᾉ":{"x_min":-5.390625,"x_max":1005.46875,"ha":1014,"o":"m 1005 0 l 766 0 l 697 216 l 351 216 l 283 0 l 45 0 l 399 972 l 659 972 l 1005 0 m 647 384 l 542 711 q 526 798 531 748 l 521 798 q 504 714 517 756 l 398 384 l 647 384 m 184 740 l 148 683 q 37 766 80 711 q -5 880 -5 820 q 20 950 -5 923 q 90 976 46 976 q 151 955 128 976 q 175 899 175 933 q 154 850 175 871 q 103 826 132 828 q 184 740 122 775 m 737 -255 q 594 -330 680 -330 q 457 -204 457 -330 l 457 -82 l 589 -82 l 589 -201 q 621 -237 589 -237 q 676 -204 650 -237 l 737 -255 "},"ṟ":{"x_min":90.203125,"x_max":543.25,"ha":553,"o":"m 543 501 q 453 522 504 522 q 343 471 383 522 q 304 331 304 419 l 304 0 l 90 0 l 90 694 l 304 694 l 304 565 l 307 565 q 490 706 358 706 q 543 698 524 706 l 543 501 m 513 -175 l 115 -175 l 115 -58 l 513 -58 l 513 -175 "},"ў":{"x_min":-2.71875,"x_max":751.46875,"ha":747,"o":"m 751 694 l 469 -55 q 162 -326 367 -326 q 34 -308 84 -326 l 34 -137 q 127 -162 77 -162 q 242 -84 210 -162 l 279 1 l -2 694 l 234 694 l 364 271 q 383 179 376 232 l 385 179 q 408 270 392 218 l 539 694 l 751 694 m 666 1012 q 577 861 657 917 q 380 804 497 804 q 184 862 266 804 q 97 1012 101 920 l 247 1012 q 288 934 250 963 q 382 906 325 906 q 475 934 439 906 q 516 1012 512 963 l 666 1012 "},"ţ":{"x_min":27.8125,"x_max":510.03125,"ha":541,"o":"m 510 8 q 371 -16 461 -16 l 366 -16 l 359 -16 l 359 -55 q 486 -168 486 -61 q 270 -308 486 -308 q 210 -305 239 -308 l 210 -212 q 259 -216 234 -216 q 343 -166 343 -216 q 267 -122 343 -122 q 242 -123 259 -122 l 242 10 q 140 218 140 64 l 140 536 l 27 536 l 27 694 l 140 694 l 140 844 l 354 905 l 354 694 l 510 694 l 510 536 l 354 536 l 354 255 q 440 147 354 147 q 510 166 474 147 l 510 8 "},"ȡ":{"x_min":48.828125,"x_max":1141.453125,"ha":934,"o":"m 705 -265 q 683 -326 692 -293 l 502 -326 q 591 -127 530 -217 q 555 54 555 -47 l 555 95 l 552 95 q 337 -16 479 -16 q 128 74 207 -16 q 48 331 48 166 q 136 607 48 503 q 365 711 223 711 q 552 615 499 711 l 555 615 l 555 1028 l 769 1028 l 769 58 q 771 21 769 41 q 908 52 838 52 q 1074 0 1007 52 q 1141 -130 1141 -53 q 1073 -265 1141 -212 q 895 -319 1005 -319 q 705 -265 786 -319 m 559 337 l 559 389 q 520 502 559 457 q 417 547 480 547 q 306 491 346 547 q 266 337 266 435 q 305 196 266 246 q 412 147 343 147 q 518 199 477 147 q 559 337 559 251 m 816 -126 q 905 -170 851 -170 q 967 -133 967 -170 q 909 -95 967 -95 q 816 -126 860 -95 "},"í":{"x_min":48.296875,"x_max":415.21875,"ha":395,"o":"m 304 0 l 90 0 l 90 694 l 304 694 l 304 0 m 415 1023 l 202 804 l 48 804 l 224 1023 l 415 1023 "},"◦":{"x_min":76.640625,"x_max":416.421875,"ha":492,"o":"m 245 288 q 125 338 174 288 q 76 459 76 388 q 126 579 76 529 q 245 629 175 629 q 366 579 316 629 q 416 459 416 529 q 366 338 416 388 q 245 288 316 288 m 245 577 q 161 542 196 577 q 127 459 127 506 q 162 375 127 409 q 247 340 197 340 q 330 375 295 340 q 365 459 365 410 q 331 541 365 505 q 245 577 298 577 "},"ң":{"x_min":90.203125,"x_max":870.84375,"ha":916,"o":"m 870 -169 l 710 -169 l 710 0 l 544 0 l 544 290 l 304 290 l 304 0 l 90 0 l 90 694 l 304 694 l 304 437 l 544 437 l 544 694 l 759 694 l 759 151 l 870 151 l 870 -169 "},"ņ":{"x_min":90.203125,"x_max":760.96875,"ha":840,"o":"m 760 0 l 547 0 l 547 385 q 432 547 547 547 q 340 504 376 547 q 304 396 304 461 l 304 0 l 90 0 l 90 694 l 304 694 l 304 584 l 307 584 q 530 711 383 711 q 760 425 760 711 l 760 0 m 542 -75 l 428 -313 l 296 -313 l 357 -75 l 542 -75 "},"ǜ":{"x_min":79.359375,"x_max":750.109375,"ha":840,"o":"m 750 0 l 536 0 l 536 105 l 533 105 q 320 -16 453 -16 q 79 275 79 -16 l 79 694 l 293 694 l 293 294 q 409 147 293 147 q 501 187 467 147 q 536 297 536 227 l 536 694 l 750 694 l 750 0 m 520 1004 l 365 1004 l 153 1223 l 343 1223 l 520 1004 m 584 810 q 524 831 546 810 q 502 883 502 851 q 525 935 502 915 q 584 955 548 955 q 642 935 619 955 q 666 883 666 915 q 643 831 666 852 q 584 810 620 810 m 286 810 q 226 831 249 810 q 204 883 204 851 q 227 935 204 915 q 286 955 250 955 q 345 935 322 955 q 367 883 367 915 q 344 831 367 852 q 286 810 321 810 "},"ỳ":{"x_min":-2.71875,"x_max":751.46875,"ha":747,"o":"m 751 694 l 469 -55 q 162 -326 367 -326 q 34 -308 84 -326 l 34 -137 q 127 -162 77 -162 q 242 -84 210 -162 l 279 1 l -2 694 l 234 694 l 364 271 q 383 179 376 232 l 385 179 q 408 270 392 218 l 539 694 l 751 694 m 554 804 l 400 804 l 187 1023 l 377 1023 l 554 804 "},"Ҫ":{"x_min":50.1875,"x_max":808.4375,"ha":867,"o":"m 808 34 q 604 -13 731 -2 q 642 -118 642 -67 q 607 -203 642 -170 q 514 -236 571 -236 q 409 -219 462 -236 l 409 -126 q 490 -144 457 -144 q 529 -108 529 -144 q 498 -16 529 -69 q 169 123 288 -6 q 50 465 50 254 q 194 843 50 698 q 568 988 338 988 q 808 952 710 988 l 808 741 q 585 800 710 800 q 364 714 448 800 q 280 480 280 628 q 360 256 280 339 q 573 172 439 172 q 808 234 701 172 l 808 34 "},"қ":{"x_min":90.203125,"x_max":804.375,"ha":849,"o":"m 804 -169 l 642 -169 l 642 0 l 526 0 l 307 339 l 304 339 l 304 0 l 90 0 l 90 694 l 304 694 l 304 368 l 307 368 l 520 694 l 775 694 l 519 364 l 673 151 l 804 151 l 804 -169 "},"Ύ":{"x_min":-48.8125,"x_max":1083.390625,"ha":1083,"o":"m 1083 972 l 766 345 l 766 0 l 547 0 l 547 341 l 239 972 l 489 972 l 645 609 q 668 530 650 599 l 671 530 q 692 607 679 579 l 851 972 l 1083 972 m 206 972 l 65 742 l -48 742 l 15 972 l 206 972 "},"Ḟ":{"x_min":111.234375,"x_max":673.46875,"ha":722,"o":"m 673 794 l 330 794 l 330 555 l 645 555 l 645 377 l 330 377 l 330 0 l 111 0 l 111 972 l 673 972 l 673 794 m 400 1041 q 325 1068 354 1041 q 295 1134 295 1095 q 325 1200 295 1174 q 400 1225 355 1225 q 474 1200 445 1225 q 503 1134 503 1174 q 474 1067 503 1094 q 400 1041 445 1041 "},"ѕ":{"x_min":63.75,"x_max":569.703125,"ha":611,"o":"m 63 18 l 63 191 q 262 128 169 128 q 364 191 364 128 q 339 237 364 219 q 233 286 315 255 q 101 369 138 322 q 63 490 63 417 q 143 651 63 590 q 355 711 222 711 q 527 683 441 711 l 527 518 q 358 565 446 565 q 273 507 273 565 q 293 459 273 478 q 381 417 314 441 q 527 332 485 381 q 569 212 569 284 q 489 45 569 107 q 265 -16 408 -16 q 63 18 157 -16 "},"Ш":{"x_min":111.234375,"x_max":1293.375,"ha":1405,"o":"m 1293 0 l 111 0 l 111 972 l 330 972 l 330 187 l 592 187 l 592 972 l 811 972 l 811 187 l 1073 187 l 1073 972 l 1293 972 l 1293 0 "},"Ḏ":{"x_min":111.234375,"x_max":973.921875,"ha":1024,"o":"m 111 0 l 111 972 l 455 972 q 973 498 973 972 q 832 135 973 271 q 455 0 691 0 l 111 0 m 330 794 l 330 177 l 438 177 q 662 263 581 177 q 743 495 743 348 q 662 714 743 634 q 437 794 582 794 l 330 794 m 695 -174 l 297 -174 l 297 -57 l 695 -57 l 695 -174 "},"Ψ":{"x_min":90.203125,"x_max":1056.671875,"ha":1148,"o":"m 1056 607 q 953 343 1056 444 q 684 240 849 242 l 668 240 l 668 0 l 478 0 l 478 240 l 462 240 q 197 340 303 240 q 90 606 90 440 l 90 972 l 283 972 l 283 621 q 461 422 283 423 l 478 422 l 478 972 l 668 972 l 668 422 l 685 422 q 863 621 863 422 l 863 972 l 1056 972 l 1056 607 "},"Ἴ":{"x_min":-24.734375,"x_max":734.296875,"ha":846,"o":"m 734 0 l 515 0 l 515 972 l 734 972 l 734 0 m 18 710 l -24 771 q 58 824 43 795 q -13 899 -13 831 q 10 954 -13 932 q 75 976 35 976 q 178 879 178 976 q 18 710 178 767 m 441 972 l 304 719 l 201 719 l 258 972 l 441 972 "},"ŭ":{"x_min":79.359375,"x_max":750.109375,"ha":840,"o":"m 750 0 l 536 0 l 536 105 l 533 105 q 320 -16 453 -16 q 79 275 79 -16 l 79 694 l 293 694 l 293 294 q 409 147 293 147 q 501 187 467 147 q 536 297 536 227 l 536 694 l 750 694 l 750 0 m 648 1012 q 578 860 640 916 q 417 804 517 804 q 256 862 318 804 q 191 1012 193 920 l 312 1012 q 420 921 324 921 q 526 1012 513 921 l 648 1012 "},"―":{"x_min":0,"x_max":576.484375,"ha":576,"o":"m 576 947 l 0 947 l 0 1028 l 576 1028 l 576 947 "},"{":{"x_min":71.890625,"x_max":457.125,"ha":513,"o":"m 457 -221 q 242 -166 309 -221 q 174 26 174 -112 l 174 189 q 71 314 174 314 l 71 438 q 174 568 174 438 l 174 719 q 241 915 174 859 q 457 972 307 972 l 457 845 q 348 727 348 845 l 348 583 q 244 377 348 420 l 244 375 q 348 166 348 333 l 348 27 q 374 -66 348 -38 q 457 -94 399 -94 l 457 -221 "},"Ӄ":{"x_min":111.234375,"x_max":890.5,"ha":912,"o":"m 890 972 l 554 547 l 556 547 q 780 431 699 547 q 861 143 861 314 q 729 -168 861 -49 q 355 -287 597 -287 q 111 -248 229 -287 l 111 -52 q 356 -104 244 -104 q 558 -40 487 -104 q 629 141 629 24 q 553 325 629 258 q 351 392 478 392 l 330 392 l 330 0 l 111 0 l 111 972 l 330 972 l 330 559 l 333 559 q 360 604 345 582 l 629 972 l 890 972 "},"ɭ":{"x_min":90.203125,"x_max":461.1875,"ha":395,"o":"m 461 -301 q 318 -326 413 -326 q 90 -91 90 -326 l 90 1028 l 304 1028 l 304 -54 q 392 -162 304 -162 q 461 -143 428 -162 l 461 -301 "},"Ĳ":{"x_min":111.234375,"x_max":956.8125,"ha":1059,"o":"m 330 0 l 111 0 l 111 972 l 330 972 l 330 0 m 956 385 q 866 86 956 190 q 604 -16 775 -16 q 462 9 527 -16 l 462 215 q 588 172 518 172 q 738 394 738 172 l 738 972 l 956 972 l 956 385 "},"ǭ":{"x_min":48.828125,"x_max":800.296875,"ha":849,"o":"m 480 -13 q 412 -133 412 -92 q 458 -179 412 -179 q 498 -168 478 -179 l 498 -266 q 416 -280 467 -280 q 279 -168 279 -280 q 369 -13 279 -95 q 133 95 218 0 q 48 344 48 191 q 151 614 48 516 q 430 711 255 711 q 701 614 603 711 q 800 356 800 516 q 715 101 800 200 q 480 -13 630 3 m 426 547 q 308 495 350 547 q 266 347 266 442 q 427 147 266 147 q 581 352 581 147 q 426 547 581 547 m 624 820 l 226 820 l 226 937 l 624 937 l 624 820 "},"︢":{"x_min":-407.609375,"x_max":129.546875,"ha":0,"o":"m 129 1057 q -191 1126 -94 1126 q -288 1090 -250 1126 q -326 1000 -326 1054 l -407 1000 q -345 1151 -406 1092 q -192 1211 -284 1211 q 129 1141 -94 1211 l 129 1057 "},"ἣ":{"x_min":62.390625,"x_max":760.96875,"ha":849,"o":"m 760 -267 l 544 -267 l 544 366 q 431 528 544 528 q 339 486 374 528 q 304 380 304 445 l 304 0 l 90 0 l 90 458 q 62 694 90 636 l 282 694 q 303 583 303 651 l 306 583 q 530 711 383 711 q 760 425 760 711 l 760 -267 m 357 844 l 314 783 q 154 952 154 841 q 257 1049 154 1049 q 321 1028 297 1049 q 346 972 346 1006 q 274 897 346 904 q 357 844 290 868 m 600 792 l 497 792 l 360 1045 l 543 1045 l 600 792 "},"ᾨ":{"x_min":-10.390625,"x_max":1144.15625,"ha":1200,"o":"m 908 177 l 1142 177 l 1142 0 l 735 0 l 735 176 q 913 533 913 329 q 844 727 913 654 q 671 800 775 800 q 494 727 563 800 q 424 524 424 654 q 462 348 424 430 q 599 176 499 266 l 599 0 l 192 0 l 192 177 l 423 177 q 193 562 193 310 q 326 872 193 755 q 667 988 458 988 q 1013 871 882 988 q 1144 565 1144 754 q 908 177 1144 309 m 25 683 l -10 740 q 71 826 52 776 q 20 850 41 828 q 0 899 0 871 q 22 955 0 933 q 83 976 45 976 q 153 950 127 976 q 179 880 179 923 q 136 766 179 820 q 25 683 93 711 m 880 -255 q 737 -330 823 -330 q 600 -204 600 -330 l 600 -82 l 732 -82 l 732 -201 q 764 -237 732 -237 q 819 -204 793 -237 l 880 -255 "},"ẚ":{"x_min":38.65625,"x_max":668.046875,"ha":747,"o":"m 668 0 l 465 0 l 465 99 l 462 99 q 255 -16 392 -16 q 96 40 154 -16 q 38 193 38 97 q 278 426 38 395 l 466 451 q 343 565 466 565 q 107 491 219 565 l 107 653 q 229 693 151 676 q 370 711 307 711 q 668 415 668 711 l 668 0 m 466 282 l 466 328 l 340 312 q 236 218 236 299 q 261 158 236 181 q 330 134 286 134 q 428 176 390 134 q 466 282 466 218 m 322 801 l 322 891 q 387 938 387 891 q 322 984 387 984 l 322 1076 q 431 1037 390 1076 q 473 938 473 998 q 431 840 473 879 q 322 801 390 801 "},"ԋ":{"x_min":90.203125,"x_max":1152.984375,"ha":1230,"o":"m 1152 269 q 1071 62 1152 141 q 849 -16 989 -16 q 629 61 713 -16 q 544 263 544 140 l 544 290 l 304 290 l 304 0 l 90 0 l 90 694 l 304 694 l 304 437 l 544 437 l 544 694 l 759 694 l 759 266 q 784 183 759 214 q 848 152 808 152 q 934 269 934 152 l 934 405 l 1152 405 l 1152 269 "},"Я":{"x_min":8.140625,"x_max":777.921875,"ha":889,"o":"m 777 0 l 558 0 l 558 377 l 499 377 q 366 254 418 377 l 261 0 l 8 0 l 144 290 q 295 442 202 413 l 295 445 q 80 694 80 496 q 175 898 80 825 q 442 972 270 972 l 777 972 l 777 0 m 558 541 l 558 805 l 466 805 q 312 677 312 805 q 354 579 312 616 q 466 541 396 541 l 558 541 "},"Ɲ":{"x_min":-76.640625,"x_max":986.140625,"ha":1097,"o":"m 986 0 l 765 0 l 364 611 q 315 691 328 664 l 312 691 q 318 534 318 640 l 318 40 q 243 -191 318 -109 q 34 -273 168 -273 q -76 -255 -28 -273 l -76 -66 q 4 -84 -38 -84 q 111 42 111 -84 l 111 972 l 347 972 l 733 380 q 781 301 759 340 l 784 301 q 779 434 779 335 l 779 972 l 986 972 l 986 0 "},"ὤ":{"x_min":62.390625,"x_max":1092.609375,"ha":1155,"o":"m 577 103 l 575 103 q 361 -16 509 -16 q 142 76 221 -16 q 62 327 62 168 q 149 694 62 500 l 367 694 q 263 326 263 493 q 371 154 263 154 q 477 318 477 154 l 477 508 l 678 508 l 678 318 q 782 154 678 154 q 890 326 890 154 q 786 694 890 493 l 1004 694 q 1092 326 1092 499 q 1011 75 1092 166 q 791 -16 931 -16 q 577 103 641 -16 m 424 783 l 381 844 q 464 897 449 868 q 392 972 392 904 q 416 1027 392 1005 q 481 1049 441 1049 q 584 952 584 1049 q 424 783 584 840 m 847 1045 l 710 792 l 607 792 l 664 1045 l 847 1045 "},"Ȓ":{"x_min":111.234375,"x_max":858.625,"ha":884,"o":"m 858 0 l 607 0 l 508 250 q 377 372 460 372 l 330 372 l 330 0 l 111 0 l 111 972 l 458 972 q 812 708 812 972 q 754 537 812 607 q 592 440 696 467 l 592 437 q 731 287 678 410 l 858 0 m 330 808 l 330 537 l 425 537 q 538 578 495 537 q 581 680 581 619 q 429 808 581 808 l 330 808 m 654 1053 l 532 1053 q 424 1145 520 1145 q 319 1053 332 1145 l 197 1053 q 266 1205 205 1149 q 427 1261 327 1261 q 589 1203 526 1261 q 654 1053 651 1145 "},"ɝ":{"x_min":41.375,"x_max":783.34375,"ha":749,"o":"m 783 458 q 705 440 746 440 q 594 497 629 440 l 548 448 q 436 368 498 396 l 436 365 q 583 204 583 331 q 487 43 583 103 q 222 -16 391 -16 q 41 8 118 -16 l 41 170 q 219 139 116 139 q 370 206 370 139 q 330 263 370 248 q 205 278 289 278 l 141 278 l 141 425 l 204 425 q 344 487 344 425 q 213 555 344 555 q 51 531 128 555 l 51 690 q 234 711 131 711 q 533 588 468 711 l 630 694 l 649 633 q 726 556 673 556 q 783 571 754 556 l 783 458 "},"⁸":{"x_min":63.75,"x_max":491.71875,"ha":562,"o":"m 172 695 q 81 826 81 739 q 137 940 81 895 q 280 985 193 985 q 423 943 370 985 q 477 834 477 901 q 377 697 477 743 q 491 551 491 656 q 432 427 491 472 q 267 381 372 381 q 120 426 177 381 q 63 544 63 470 q 172 695 63 645 m 342 824 q 280 881 342 881 q 235 865 253 881 q 216 824 216 849 q 279 754 216 780 q 342 824 342 781 m 274 638 q 199 550 199 608 q 222 504 199 522 q 278 486 244 486 q 356 551 356 486 q 274 638 356 609 "},"k":{"x_min":90.203125,"x_max":786.0625,"ha":777,"o":"m 786 0 l 529 0 l 307 344 l 304 344 l 304 0 l 90 0 l 90 1028 l 304 1028 l 304 373 l 307 373 l 514 694 l 768 694 l 519 368 l 786 0 "},"Ά":{"x_min":7.734375,"x_max":1004.46875,"ha":1014,"o":"m 1004 0 l 765 0 l 696 216 l 350 216 l 282 0 l 44 0 l 398 972 l 658 972 l 1004 0 m 646 384 l 541 711 q 525 798 530 748 l 520 798 q 503 714 516 756 l 397 384 l 646 384 m 262 972 l 121 742 l 7 742 l 71 972 l 262 972 "},"ȇ":{"x_min":48.828125,"x_max":714.171875,"ha":751,"o":"m 714 286 l 261 286 q 451 134 271 134 q 653 189 566 134 l 653 34 q 402 -16 556 -16 q 141 76 234 -16 q 48 336 48 169 q 149 610 48 509 q 396 711 249 711 q 631 621 548 711 q 714 376 714 531 l 714 286 m 515 417 q 394 567 515 567 q 305 524 343 567 q 259 417 267 481 l 515 417 m 604 797 l 482 797 q 374 889 470 889 q 269 797 282 889 l 147 797 q 216 949 155 893 q 377 1005 277 1005 q 539 947 476 1005 q 604 797 601 889 "},"ί":{"x_min":104.453125,"x_max":442.875,"ha":456,"o":"m 442 9 q 317 -12 394 -12 q 104 214 104 -12 l 104 694 l 318 694 l 318 246 q 378 158 318 158 q 442 173 408 158 l 442 9 m 391 1022 l 250 792 l 136 792 l 200 1022 l 391 1022 "},"Ù":{"x_min":99.703125,"x_max":904.078125,"ha":1004,"o":"m 904 421 q 495 -16 904 -16 q 99 411 99 -16 l 99 972 l 319 972 l 319 408 q 503 172 319 172 q 685 400 685 172 l 685 972 l 904 972 l 904 421 m 624 1062 l 470 1062 l 257 1281 l 447 1281 l 624 1062 "},"ὓ":{"x_min":84.78125,"x_max":785.375,"ha":855,"o":"m 84 694 l 299 694 l 299 326 q 436 153 299 153 q 569 318 569 153 q 482 694 569 493 l 705 694 q 785 321 785 510 q 690 72 785 162 q 430 -16 596 -16 q 174 67 264 -16 q 84 301 84 151 l 84 694 m 344 844 l 301 783 q 141 952 141 841 q 244 1049 141 1049 q 308 1028 284 1049 q 333 972 333 1006 q 261 897 333 904 q 344 844 277 868 m 587 792 l 484 792 l 347 1045 l 530 1045 l 587 792 "},"Ҷ":{"x_min":94.265625,"x_max":1030.90625,"ha":1075,"o":"m 1030 -219 l 851 -219 l 851 0 l 672 0 l 672 385 q 396 311 535 311 q 94 601 94 311 l 94 972 l 312 972 l 312 620 q 451 494 312 494 q 672 560 561 494 l 672 972 l 891 972 l 891 187 l 1030 187 l 1030 -219 "},"В":{"x_min":111.234375,"x_max":841.671875,"ha":891,"o":"m 111 0 l 111 972 l 465 972 q 715 912 628 972 q 803 744 803 853 q 749 607 803 666 q 613 524 696 548 l 613 522 q 779 445 717 509 q 841 290 841 381 q 746 78 841 156 q 484 0 650 0 l 111 0 m 330 811 l 330 580 l 426 580 q 533 613 494 580 q 572 704 572 646 q 412 811 572 811 l 330 811 m 330 417 l 330 161 l 448 161 q 568 196 524 161 q 611 293 611 231 q 568 384 611 351 q 450 417 526 417 l 330 417 "},"ᾗ":{"x_min":62.390625,"x_max":760.96875,"ha":849,"o":"m 760 -267 l 544 -267 l 544 366 q 431 528 544 528 q 339 486 374 528 q 304 380 304 445 l 304 0 l 90 0 l 90 458 q 62 694 90 636 l 282 694 q 303 583 303 651 l 306 583 q 530 711 383 711 q 760 425 760 711 l 760 -267 m 660 996 l 542 996 q 406 1074 510 1074 q 270 996 303 1074 l 152 996 q 244 1131 176 1084 q 406 1179 312 1179 q 568 1131 500 1179 q 660 996 636 1083 m 503 834 l 471 775 q 355 827 399 789 q 312 918 312 865 q 339 985 312 959 q 413 1012 367 1012 q 474 991 450 1012 q 498 940 498 971 q 428 869 498 876 q 503 834 451 843 m 452 -255 q 309 -330 395 -330 q 172 -204 172 -330 l 172 -82 l 304 -82 l 304 -201 q 336 -237 304 -237 q 391 -204 365 -237 l 452 -255 "},"Ẹ":{"x_min":111.234375,"x_max":694.5,"ha":739,"o":"m 694 0 l 111 0 l 111 972 l 672 972 l 672 794 l 330 794 l 330 577 l 648 577 l 648 400 l 330 400 l 330 177 l 694 177 l 694 0 m 412 -265 q 337 -238 367 -265 q 308 -172 308 -210 q 337 -106 308 -131 q 412 -80 367 -80 q 486 -106 458 -80 q 515 -172 515 -132 q 486 -238 515 -212 q 412 -265 458 -265 "},"ṱ":{"x_min":27.8125,"x_max":533.671875,"ha":541,"o":"m 510 8 q 366 -16 462 -16 q 140 218 140 -16 l 140 536 l 27 536 l 27 694 l 140 694 l 140 844 l 354 905 l 354 694 l 510 694 l 510 536 l 354 536 l 354 255 q 440 147 354 147 q 510 166 474 147 l 510 8 m 533 -326 l 393 -326 l 286 -199 l 186 -326 l 46 -326 l 205 -106 l 373 -106 l 533 -326 "},"β":{"x_min":90.203125,"x_max":816.578125,"ha":865,"o":"m 304 16 l 304 -267 l 90 -267 l 90 710 q 181 951 90 862 q 428 1041 272 1041 q 668 970 581 1041 q 755 778 755 898 q 708 635 755 697 q 582 548 660 573 l 582 545 q 754 453 691 524 q 816 279 816 381 q 725 65 816 146 q 482 -16 633 -16 q 304 16 390 -16 m 381 454 l 381 604 q 495 650 451 608 q 538 758 538 691 q 508 846 538 814 q 427 877 478 877 q 304 717 304 877 l 304 192 q 452 147 377 147 q 598 286 598 147 q 381 454 598 446 "},"Ό":{"x_min":-25.265625,"x_max":1124.09375,"ha":1175,"o":"m 643 -16 q 302 119 434 -16 q 171 473 171 255 q 304 846 171 704 q 658 988 438 988 q 995 852 867 988 q 1124 493 1124 716 q 990 123 1124 263 q 643 -16 857 -16 m 652 800 q 469 713 537 800 q 401 484 401 627 q 469 256 401 340 q 647 172 537 172 q 827 253 760 172 q 893 480 893 335 q 829 716 893 632 q 652 800 764 800 m 229 972 l 88 742 l -25 742 l 38 972 l 229 972 "},"≠":{"x_min":161.421875,"x_max":822,"ha":983,"o":"m 822 180 l 458 180 l 364 0 l 198 0 l 293 180 l 161 180 l 161 318 l 365 318 l 446 474 l 161 474 l 161 613 l 519 613 l 617 805 l 783 805 l 685 613 l 822 613 l 822 474 l 612 474 l 530 318 l 822 318 l 822 180 "},"Ғ":{"x_min":21.03125,"x_max":759.609375,"ha":779,"o":"m 759 791 l 400 791 l 400 562 l 632 562 l 632 384 l 400 384 l 400 0 l 180 0 l 180 384 l 21 384 l 21 562 l 180 562 l 180 972 l 759 972 l 759 791 "},"ƀ":{"x_min":-12.203125,"x_max":812.515625,"ha":861,"o":"m 307 80 l 304 80 l 304 0 l 90 0 l 90 794 l -12 794 l -12 933 l 90 933 l 90 1028 l 304 1028 l 304 933 l 462 933 l 462 794 l 304 794 l 304 590 l 307 590 q 533 711 386 711 q 739 619 667 711 q 812 366 812 526 q 727 88 812 193 q 501 -16 642 -16 q 307 80 373 -16 m 301 373 l 301 302 q 339 191 301 235 q 438 147 378 147 q 552 203 512 147 q 592 364 592 260 q 555 498 592 450 q 450 547 518 547 q 343 499 385 547 q 301 373 301 451 "},"Ĥ":{"x_min":111.234375,"x_max":952.90625,"ha":1064,"o":"m 952 0 l 733 0 l 733 396 l 330 396 l 330 0 l 111 0 l 111 972 l 330 972 l 330 584 l 733 584 l 733 972 l 952 972 l 952 0 m 775 1062 l 635 1062 l 528 1189 l 428 1062 l 288 1062 l 447 1282 l 615 1282 l 775 1062 "},"U":{"x_min":99.703125,"x_max":904.078125,"ha":1004,"o":"m 904 421 q 495 -16 904 -16 q 99 411 99 -16 l 99 972 l 319 972 l 319 408 q 503 172 319 172 q 685 400 685 172 l 685 972 l 904 972 l 904 421 "},"ɼ":{"x_min":90.203125,"x_max":543.25,"ha":554,"o":"m 543 501 q 453 522 501 522 q 344 471 383 522 q 304 331 304 419 l 304 -319 l 90 -319 l 90 694 l 304 694 l 304 565 l 307 565 q 490 706 358 706 q 543 698 518 706 l 543 501 "},"ả":{"x_min":38.65625,"x_max":668.046875,"ha":747,"o":"m 668 0 l 465 0 l 465 99 l 462 99 q 255 -16 392 -16 q 96 40 154 -16 q 38 193 38 97 q 278 426 38 395 l 466 451 q 343 565 466 565 q 107 491 219 565 l 107 653 q 229 693 151 676 q 370 711 307 711 q 668 415 668 711 l 668 0 m 466 282 l 466 328 l 340 312 q 236 218 236 299 q 261 158 236 181 q 330 134 286 134 q 428 176 390 134 q 466 282 466 218 m 413 859 l 413 826 l 318 826 l 318 910 q 399 954 399 915 q 343 991 399 991 q 290 984 317 991 l 290 1064 q 368 1068 351 1068 q 510 961 510 1068 q 413 859 510 876 "},"ϴ":{"x_min":50.1875,"x_max":1003.09375,"ha":1053,"o":"m 522 -16 q 181 119 313 -16 q 50 473 50 255 q 183 846 50 704 q 537 988 317 988 q 874 852 746 988 q 1003 493 1003 716 q 869 123 1003 263 q 522 -16 736 -16 m 769 569 q 531 809 735 809 q 365 747 430 809 q 283 569 301 684 l 769 569 m 769 396 l 284 396 q 366 223 303 283 q 526 162 430 162 q 769 396 736 162 "},"ʔ":{"x_min":-27.8125,"x_max":547.328125,"ha":513,"o":"m 318 0 l 104 0 l 104 344 q 132 491 104 434 q 238 617 160 548 q 331 759 331 701 q 170 865 331 865 q -27 807 70 865 l -27 995 q 198 1044 76 1044 q 454 969 360 1044 q 547 772 547 893 q 412 523 547 639 q 337 438 357 476 q 318 344 318 401 l 318 0 "},"ᾞ":{"x_min":-24.765625,"x_max":1371.90625,"ha":1484,"o":"m 1371 0 l 1152 0 l 1152 396 l 749 396 l 749 0 l 530 0 l 530 972 l 749 972 l 749 584 l 1152 584 l 1152 972 l 1371 972 l 1371 0 m 483 805 l 365 805 q 229 883 333 883 q 93 805 126 883 l -24 805 q 67 940 0 893 q 229 988 135 988 q 391 940 323 988 q 483 805 459 892 m 169 584 l 138 643 q 213 678 190 652 q 143 749 143 685 q 167 800 143 780 q 228 821 190 821 q 300 794 272 821 q 328 727 328 768 q 285 636 328 674 q 169 584 242 598 m 1165 -255 q 1022 -330 1108 -330 q 885 -204 885 -330 l 885 -82 l 1017 -82 l 1017 -201 q 1049 -237 1017 -237 q 1104 -204 1078 -237 l 1165 -255 "},"ɴ":{"x_min":90.203125,"x_max":762.328125,"ha":853,"o":"m 762 0 l 550 0 l 330 341 l 287 421 l 284 421 q 288 302 288 353 l 288 0 l 90 0 l 90 694 l 316 694 l 523 369 q 565 295 556 318 l 568 295 q 563 372 563 333 l 563 694 l 762 694 l 762 0 "},"Ᾰ":{"x_min":6.78125,"x_max":966.46875,"ha":977,"o":"m 966 0 l 727 0 l 658 216 l 312 216 l 244 0 l 6 0 l 360 972 l 620 972 l 966 0 m 608 384 l 503 711 q 487 798 492 748 l 482 798 q 465 714 478 756 l 359 384 l 608 384 m 717 1263 q 647 1111 709 1167 q 486 1055 586 1055 q 325 1113 387 1055 q 260 1263 262 1171 l 381 1263 q 489 1172 393 1172 q 595 1263 582 1172 l 717 1263 "},"ờ":{"x_min":48.828125,"x_max":862.703125,"ha":875,"o":"m 707 608 q 800 356 800 512 q 698 83 800 183 q 421 -16 597 -16 q 148 80 247 -16 q 48 344 48 177 q 151 614 48 516 q 430 711 255 711 q 534 701 476 711 q 609 694 573 694 q 729 790 729 694 q 716 865 729 824 l 847 865 q 862 776 862 818 q 707 608 862 623 m 426 547 q 308 495 350 547 q 266 347 266 442 q 427 147 266 147 q 581 352 581 147 q 426 547 581 547 m 593 804 l 439 804 l 226 1023 l 416 1023 l 593 804 "},"҄":{"x_min":63.75,"x_max":551.390625,"ha":588,"o":"m 551 826 l 440 826 q 349 909 410 909 q 255 868 318 909 q 136 826 191 826 l 63 826 l 63 954 l 118 954 q 229 985 159 954 q 349 1016 299 1016 q 551 826 490 1016 "},"Ϋ":{"x_min":0,"x_max":844.390625,"ha":843,"o":"m 844 972 l 527 345 l 527 0 l 308 0 l 308 341 l 0 972 l 250 972 l 406 609 q 429 530 411 599 l 432 530 q 453 607 440 579 l 612 972 l 844 972 m 574 1039 q 499 1065 528 1039 q 470 1132 470 1092 q 499 1199 470 1173 q 574 1225 528 1225 q 649 1199 619 1225 q 678 1132 678 1172 q 649 1065 678 1091 q 574 1039 620 1039 m 263 1039 q 188 1066 217 1039 q 159 1132 159 1092 q 189 1199 159 1172 q 263 1225 219 1225 q 338 1199 309 1225 q 367 1132 367 1172 q 338 1065 367 1090 q 263 1039 309 1039 "},"ō":{"x_min":48.828125,"x_max":800.296875,"ha":849,"o":"m 421 -16 q 148 80 247 -16 q 48 344 48 177 q 151 614 48 516 q 430 711 255 711 q 701 614 603 711 q 800 356 800 516 q 698 83 800 183 q 421 -16 597 -16 m 426 547 q 308 495 350 547 q 266 347 266 442 q 427 147 266 147 q 581 352 581 147 q 426 547 581 547 m 623 804 l 225 804 l 225 921 l 623 921 l 623 804 "},"ḕ":{"x_min":48.828125,"x_max":714.171875,"ha":751,"o":"m 714 286 l 261 286 q 451 134 271 134 q 653 189 566 134 l 653 34 q 402 -16 556 -16 q 141 76 234 -16 q 48 336 48 169 q 149 610 48 509 q 396 711 249 711 q 631 621 548 711 q 714 376 714 531 l 714 286 m 515 417 q 394 567 515 567 q 305 524 343 567 q 259 417 267 481 l 515 417 m 496 966 l 363 966 l 184 1133 l 374 1133 l 496 966 m 587 826 l 189 826 l 189 929 l 587 929 l 587 826 "},"Ӕ":{"x_min":-1.359375,"x_max":1254.03125,"ha":1299,"o":"m 1254 0 l 672 0 l 672 216 l 352 216 l 252 0 l -1 0 l 490 972 l 1232 972 l 1232 794 l 890 794 l 890 577 l 1208 577 l 1208 400 l 890 400 l 890 177 l 1254 177 l 1254 0 m 672 384 l 672 794 l 619 794 l 427 384 l 672 384 "},"҆":{"x_min":69.171875,"x_max":520.875,"ha":589,"o":"m 520 826 l 401 826 l 401 890 l 69 890 l 69 1007 l 401 1007 l 401 1064 l 520 1064 l 520 826 "},"ö":{"x_min":48.828125,"x_max":800.296875,"ha":849,"o":"m 421 -16 q 148 80 247 -16 q 48 344 48 177 q 151 614 48 516 q 430 711 255 711 q 701 614 603 711 q 800 356 800 516 q 698 83 800 183 q 421 -16 597 -16 m 426 547 q 308 495 350 547 q 266 347 266 442 q 427 147 266 147 q 581 352 581 147 q 426 547 581 547 m 582 804 q 507 830 536 804 q 478 897 478 857 q 507 964 478 938 q 582 990 536 990 q 657 964 627 990 q 686 897 686 937 q 657 830 686 856 q 582 804 628 804 m 271 804 q 196 831 225 804 q 167 897 167 857 q 197 964 167 937 q 271 990 227 990 q 346 964 317 990 q 375 897 375 937 q 346 830 375 855 q 271 804 317 804 "},"ẉ":{"x_min":10.859375,"x_max":1096.015625,"ha":1108,"o":"m 1096 694 l 895 0 l 670 0 l 568 406 q 556 495 558 447 l 552 495 q 539 409 548 442 l 429 0 l 206 0 l 10 694 l 229 694 l 324 241 q 335 164 331 209 l 339 164 q 351 244 342 211 l 470 694 l 674 694 l 781 241 q 791 162 786 224 l 796 162 q 807 241 799 202 l 897 694 l 1096 694 m 551 -265 q 476 -238 506 -265 q 447 -172 447 -210 q 476 -106 447 -131 q 551 -80 506 -80 q 625 -106 597 -80 q 654 -172 654 -132 q 625 -238 654 -212 q 551 -265 597 -265 "},"Ȧ":{"x_min":6.78125,"x_max":966.46875,"ha":977,"o":"m 966 0 l 727 0 l 658 216 l 312 216 l 244 0 l 6 0 l 360 972 l 620 972 l 966 0 m 608 384 l 503 711 q 487 798 492 748 l 482 798 q 465 714 478 756 l 359 384 l 608 384 m 488 1062 q 413 1089 442 1062 q 383 1155 383 1116 q 413 1221 383 1195 q 488 1246 443 1246 q 562 1221 533 1246 q 591 1155 591 1195 q 562 1088 591 1115 q 488 1062 533 1062 "},"Ḽ":{"x_min":111.234375,"x_max":690.4375,"ha":710,"o":"m 690 0 l 111 0 l 111 972 l 330 972 l 330 177 l 690 177 l 690 0 m 646 -320 l 506 -320 l 399 -193 l 299 -320 l 159 -320 l 318 -100 l 486 -100 l 646 -320 "},"А":{"x_min":6.78125,"x_max":966.46875,"ha":977,"o":"m 966 0 l 727 0 l 658 216 l 312 216 l 244 0 l 6 0 l 360 972 l 620 972 l 966 0 m 608 384 l 503 711 q 487 798 492 748 l 482 798 q 465 714 478 756 l 359 384 l 608 384 "},"′":{"x_min":44.078125,"x_max":118.6875,"ha":159,"o":"m 118 486 l 83 335 l 44 335 l 73 486 l 118 486 "},"ĭ":{"x_min":-30.796875,"x_max":426.328125,"ha":395,"o":"m 304 0 l 90 0 l 90 694 l 304 694 l 304 0 m 426 1012 q 356 860 418 916 q 195 804 295 804 q 34 862 96 804 q -30 1012 -28 920 l 90 1012 q 198 921 102 921 q 304 1012 291 921 l 426 1012 "},"8":{"x_min":55.609375,"x_max":746.046875,"ha":799,"o":"m 251 505 l 251 508 q 84 730 84 577 q 174 915 84 843 q 405 988 263 988 q 636 920 550 988 q 722 744 722 852 q 537 510 722 585 l 537 507 q 691 411 636 478 q 746 261 746 344 q 650 57 746 132 q 384 -16 555 -16 q 146 55 236 -16 q 55 248 55 128 q 251 505 55 423 m 520 726 q 489 805 520 775 q 405 834 457 834 q 321 804 354 834 q 287 725 287 773 q 404 587 287 634 q 520 726 520 635 m 394 423 q 258 259 258 370 q 300 172 258 206 q 401 137 341 137 q 505 171 465 137 q 544 261 544 205 q 394 423 544 372 "},"ѯ":{"x_min":12.203125,"x_max":626.671875,"ha":667,"o":"m 626 -278 l 458 -278 q 419 -244 458 -244 q 332 -264 399 -244 q 229 -284 265 -284 q 68 -229 124 -284 q 12 -79 12 -173 q 65 80 12 21 q 212 139 119 139 q 257 135 231 139 q 293 132 283 132 q 398 210 398 132 q 363 270 398 252 q 241 288 327 288 l 144 288 l 144 421 l 242 421 q 377 499 377 421 q 257 569 377 569 q 75 529 166 569 l 75 676 q 295 711 197 711 q 598 523 598 711 q 437 362 598 393 l 437 359 q 571 307 522 352 q 619 196 619 263 q 551 43 619 100 q 364 -13 483 -13 q 320 -10 349 -13 q 262 -6 290 -6 q 190 -67 190 -6 q 263 -130 190 -130 q 361 -111 298 -130 q 473 -91 425 -91 q 586 -142 545 -91 q 626 -278 626 -192 "},"ƿ":{"x_min":90.203125,"x_max":796.234375,"ha":831,"o":"m 304 -37 l 304 -319 l 90 -319 l 90 694 l 304 694 l 304 622 l 307 622 q 531 711 392 711 q 723 633 650 711 q 796 429 796 554 q 662 148 796 274 q 304 -37 528 23 m 304 457 l 304 149 q 506 262 434 192 q 577 413 577 331 q 545 503 577 467 q 461 539 512 539 q 304 457 387 539 "},"Ữ":{"x_min":99.703125,"x_max":1115.671875,"ha":1088,"o":"m 904 874 l 904 421 q 495 -16 904 -16 q 99 411 99 -16 l 99 972 l 319 972 l 319 408 q 503 172 319 172 q 685 400 685 172 l 685 972 l 889 972 q 959 1001 932 972 q 986 1072 986 1029 q 973 1143 986 1102 l 1102 1143 q 1115 1062 1115 1104 q 1059 929 1115 981 q 904 874 1003 878 m 751 1251 q 713 1104 751 1156 q 610 1052 676 1052 q 497 1081 552 1052 q 413 1113 436 1113 q 359 1040 359 1113 l 263 1040 q 301 1186 263 1134 q 405 1239 338 1239 q 519 1205 460 1239 q 600 1176 573 1176 q 653 1251 653 1176 l 751 1251 "},"R":{"x_min":111.234375,"x_max":858.625,"ha":884,"o":"m 858 0 l 607 0 l 508 250 q 377 372 460 372 l 330 372 l 330 0 l 111 0 l 111 972 l 458 972 q 812 708 812 972 q 754 537 812 607 q 592 440 696 467 l 592 437 q 731 287 678 410 l 858 0 m 330 808 l 330 537 l 425 537 q 538 578 495 537 q 581 680 581 619 q 429 808 581 808 l 330 808 "},"Ὗ":{"x_min":-26.765625,"x_max":1324.390625,"ha":1324,"o":"m 1324 972 l 1007 345 l 1007 0 l 788 0 l 788 341 l 480 972 l 730 972 l 886 609 q 909 530 891 599 l 912 530 q 933 607 920 579 l 1092 972 l 1324 972 m 481 805 l 363 805 q 227 883 331 883 q 91 805 124 883 l -26 805 q 65 940 -2 893 q 227 988 133 988 q 389 940 321 988 q 481 805 457 892 m 324 643 l 292 584 q 176 636 220 598 q 133 727 133 674 q 160 794 133 768 q 234 821 188 821 q 295 800 271 821 q 319 749 319 780 q 249 678 319 685 q 324 643 272 652 "},"Ż":{"x_min":27.8125,"x_max":811.15625,"ha":843,"o":"m 811 0 l 27 0 l 27 126 l 526 794 l 63 794 l 63 972 l 809 972 l 809 849 l 322 177 l 811 177 l 811 0 m 434 1062 q 359 1089 388 1062 q 329 1155 329 1116 q 359 1221 329 1195 q 434 1246 389 1246 q 508 1221 479 1246 q 537 1155 537 1195 q 508 1088 537 1115 q 434 1062 479 1062 "},"Ṷ":{"x_min":99.703125,"x_max":904.078125,"ha":1004,"o":"m 904 421 q 495 -16 904 -16 q 99 411 99 -16 l 99 972 l 319 972 l 319 408 q 503 172 319 172 q 685 400 685 172 l 685 972 l 904 972 l 904 421 m 741 -320 l 601 -320 l 494 -193 l 394 -320 l 254 -320 l 413 -100 l 581 -100 l 741 -320 "},"ħ":{"x_min":18.3125,"x_max":779.28125,"ha":856,"o":"m 779 0 l 568 0 l 568 375 q 457 527 568 527 q 363 486 398 527 q 328 379 328 446 l 328 0 l 115 0 l 115 794 l 18 794 l 18 933 l 115 933 l 115 1028 l 328 1028 l 328 933 l 552 933 l 552 794 l 328 794 l 328 576 l 331 576 q 545 695 409 695 q 779 411 779 695 l 779 0 "},"ἵ":{"x_min":-4.125,"x_max":469.265625,"ha":456,"o":"m 442 9 q 317 -12 394 -12 q 104 214 104 -12 l 104 694 l 318 694 l 318 246 q 378 158 318 158 q 442 173 408 158 l 442 9 m 198 844 l 155 783 q -4 952 -4 840 q 98 1049 -4 1049 q 163 1027 138 1049 q 187 972 187 1005 q 115 897 187 904 q 198 844 131 868 m 469 1045 l 332 792 l 229 792 l 286 1045 l 469 1045 "},"„":{"x_min":61.046875,"x_max":605.65625,"ha":685,"o":"m 605 148 l 474 -152 l 343 -152 l 419 148 l 605 148 m 323 148 l 193 -152 l 61 -152 l 139 148 l 323 148 "},"δ":{"x_min":48.828125,"x_max":800.296875,"ha":850,"o":"m 288 632 q 149 841 149 716 q 231 987 149 933 q 445 1041 312 1041 q 699 989 560 1041 l 699 787 q 461 877 567 877 q 368 819 368 877 q 400 764 368 791 q 550 674 433 737 q 800 335 800 540 q 698 79 800 174 q 418 -16 597 -16 q 149 77 250 -16 q 48 311 48 171 q 288 632 48 542 m 422 536 q 310 457 354 513 q 266 327 266 400 q 309 196 266 246 q 425 147 352 147 q 540 196 498 147 q 581 326 581 246 q 422 536 581 451 "},"Â":{"x_min":6.78125,"x_max":966.46875,"ha":977,"o":"m 966 0 l 727 0 l 658 216 l 312 216 l 244 0 l 6 0 l 360 972 l 620 972 l 966 0 m 608 384 l 503 711 q 487 798 492 748 l 482 798 q 465 714 478 756 l 359 384 l 608 384 m 730 1062 l 590 1062 l 483 1189 l 383 1062 l 243 1062 l 402 1282 l 570 1282 l 730 1062 "},"Į":{"x_min":109.875,"x_max":343.1875,"ha":440,"o":"m 343 -219 q 238 -236 290 -236 q 145 -203 181 -236 q 109 -118 109 -170 q 159 0 109 -61 l 111 0 l 111 972 l 330 972 l 330 0 l 263 0 q 223 -108 223 -61 q 263 -144 223 -144 q 343 -126 295 -144 l 343 -219 "},"ω":{"x_min":62.390625,"x_max":1092.609375,"ha":1155,"o":"m 577 103 l 575 103 q 361 -16 509 -16 q 142 76 221 -16 q 62 327 62 168 q 149 694 62 500 l 367 694 q 263 326 263 493 q 371 154 263 154 q 477 318 477 154 l 477 508 l 678 508 l 678 318 q 782 154 678 154 q 890 326 890 154 q 786 694 890 493 l 1004 694 q 1092 326 1092 499 q 1011 75 1092 166 q 791 -16 931 -16 q 577 103 641 -16 "},"´":{"x_min":37.296875,"x_max":404.21875,"ha":421,"o":"m 404 1023 l 191 804 l 37 804 l 213 1023 l 404 1023 "},"ǥ":{"x_min":48.828125,"x_max":859.984375,"ha":860,"o":"m 859 -118 l 751 -118 q 352 -326 680 -326 q 112 -286 194 -326 l 112 -109 q 358 -168 212 -168 q 529 -118 488 -168 l 433 -118 l 433 10 l 556 10 l 556 144 l 554 144 q 351 27 492 27 q 133 120 218 27 q 48 362 48 213 q 133 616 48 522 q 364 711 218 711 q 554 613 491 711 l 556 613 l 556 694 l 771 694 l 771 10 l 859 10 l 859 -118 m 559 375 l 559 388 q 520 502 559 457 q 419 547 482 547 q 306 499 346 547 q 266 365 266 452 q 306 238 266 284 q 411 191 345 191 q 518 243 476 191 q 559 375 559 294 "},"Ɛ":{"x_min":52.90625,"x_max":726.375,"ha":775,"o":"m 726 29 q 469 -16 612 -16 q 161 57 269 -16 q 52 269 52 132 q 104 422 52 358 q 248 510 155 485 l 248 514 q 86 718 86 566 q 191 915 86 843 q 480 988 297 988 q 710 947 603 988 l 710 755 q 494 800 609 800 q 315 693 315 800 q 520 585 315 585 l 601 585 l 601 404 l 514 404 q 338 377 394 404 q 283 287 283 351 q 487 172 283 172 q 726 222 619 172 l 726 29 "},"ỏ":{"x_min":48.828125,"x_max":800.296875,"ha":849,"o":"m 421 -16 q 148 80 247 -16 q 48 344 48 177 q 151 614 48 516 q 430 711 255 711 q 701 614 603 711 q 800 356 800 516 q 698 83 800 183 q 421 -16 597 -16 m 426 547 q 308 495 350 547 q 266 347 266 442 q 427 147 266 147 q 581 352 581 147 q 426 547 581 547 m 455 859 l 455 826 l 360 826 l 360 910 q 441 954 441 915 q 385 991 441 991 q 332 984 359 991 l 332 1064 q 410 1068 393 1068 q 552 961 552 1068 q 455 859 552 876 "},"Ƈ":{"x_min":50.1875,"x_max":972.578125,"ha":868,"o":"m 972 940 q 904 958 937 958 q 831 925 857 958 q 805 837 805 891 q 813 741 805 785 l 808 737 q 565 800 687 800 q 357 713 434 800 q 280 480 280 626 q 360 256 280 339 q 573 172 439 172 q 808 234 701 172 l 808 34 q 530 -16 701 -16 q 178 114 306 -16 q 50 465 50 246 q 191 843 50 698 q 557 988 333 988 q 669 972 613 988 q 745 1081 688 1039 q 882 1123 803 1123 q 972 1108 932 1123 l 972 940 "},"Ĉ":{"x_min":50.1875,"x_max":808.4375,"ha":867,"o":"m 808 34 q 530 -16 701 -16 q 178 114 306 -16 q 50 465 50 246 q 194 843 50 698 q 568 988 338 988 q 808 952 710 988 l 808 741 q 585 800 710 800 q 364 714 448 800 q 280 480 280 628 q 360 256 280 339 q 573 172 439 172 q 808 234 701 172 l 808 34 m 785 1062 l 645 1062 l 538 1189 l 438 1062 l 298 1062 l 457 1282 l 625 1282 l 785 1062 "},"Љ":{"x_min":15.59375,"x_max":1397.140625,"ha":1436,"o":"m 683 0 l 683 790 l 489 790 q 440 485 467 632 q 388 241 413 339 q 341 100 364 143 q 288 33 318 57 q 221 -2 258 9 q 137 -13 183 -13 q 15 6 69 -13 l 15 185 q 87 166 53 166 q 121 175 106 166 q 152 208 137 183 q 197 341 168 233 q 255 611 225 450 q 311 972 284 772 l 902 972 l 902 600 l 1045 600 q 1397 316 1397 600 q 1302 83 1397 166 q 1034 0 1207 0 l 683 0 m 902 434 l 902 166 l 1001 166 q 1166 301 1166 166 q 1005 434 1166 434 l 902 434 "},"р":{"x_min":90.203125,"x_max":812.515625,"ha":861,"o":"m 307 80 l 304 80 l 304 -319 l 90 -319 l 90 694 l 304 694 l 304 590 l 307 590 q 530 711 386 711 q 738 618 665 711 q 812 366 812 526 q 726 88 812 193 q 498 -16 640 -16 q 307 80 373 -16 m 301 365 l 301 309 q 339 192 301 238 q 438 147 377 147 q 552 203 512 147 q 592 364 592 260 q 450 547 592 547 q 342 497 384 547 q 301 365 301 447 "},"т":{"x_min":21.03125,"x_max":609.71875,"ha":631,"o":"m 609 531 l 423 531 l 423 0 l 208 0 l 208 531 l 21 531 l 21 694 l 609 694 l 609 531 "},"П":{"x_min":111.234375,"x_max":952.21875,"ha":1063,"o":"m 952 0 l 733 0 l 733 781 l 330 781 l 330 0 l 111 0 l 111 972 l 952 972 l 952 0 "},"Ö":{"x_min":50.1875,"x_max":1003.09375,"ha":1053,"o":"m 522 -16 q 181 119 313 -16 q 50 473 50 255 q 183 846 50 704 q 537 988 317 988 q 874 852 746 988 q 1003 493 1003 716 q 869 123 1003 263 q 522 -16 736 -16 m 531 800 q 348 713 416 800 q 280 484 280 627 q 348 256 280 340 q 526 172 416 172 q 706 253 639 172 q 772 480 772 335 q 708 716 772 632 q 531 800 643 800 m 681 1062 q 606 1088 635 1062 q 577 1155 577 1115 q 606 1222 577 1196 q 681 1248 635 1248 q 756 1222 726 1248 q 785 1155 785 1195 q 756 1088 785 1114 q 681 1062 727 1062 m 370 1062 q 295 1089 324 1062 q 266 1155 266 1115 q 296 1222 266 1195 q 370 1248 326 1248 q 445 1222 416 1248 q 474 1155 474 1195 q 445 1088 474 1113 q 370 1062 416 1062 "},"Θ":{"x_min":50.1875,"x_max":1003.09375,"ha":1053,"o":"m 522 -16 q 182 119 314 -16 q 50 473 50 255 q 183 846 50 704 q 537 988 316 988 q 874 852 745 988 q 1003 493 1003 716 q 869 123 1003 263 q 522 -16 736 -16 m 531 799 q 348 713 416 799 q 281 485 281 628 q 348 257 281 341 q 526 172 416 172 q 705 254 638 172 q 771 480 771 335 q 707 715 771 632 q 531 799 643 799 m 680 402 l 373 402 l 373 568 l 680 568 l 680 402 "},"Ř":{"x_min":111.234375,"x_max":858.625,"ha":884,"o":"m 858 0 l 607 0 l 508 250 q 377 372 460 372 l 330 372 l 330 0 l 111 0 l 111 972 l 458 972 q 812 708 812 972 q 754 537 812 607 q 592 440 696 467 l 592 437 q 731 287 678 410 l 858 0 m 330 808 l 330 537 l 425 537 q 538 578 495 537 q 581 680 581 619 q 429 808 581 808 l 330 808 m 676 1282 l 514 1062 l 346 1062 l 187 1282 l 326 1282 l 431 1155 l 537 1282 l 676 1282 "},"ϙ":{"x_min":48.828125,"x_max":800.296875,"ha":849,"o":"m 530 -5 l 530 -319 l 316 -319 l 316 -5 q 119 113 189 21 q 48 344 48 205 q 151 614 48 516 q 430 711 255 711 q 701 614 603 711 q 800 356 800 516 q 729 119 800 214 q 530 -5 659 23 m 426 547 q 308 495 350 547 q 266 347 266 442 q 427 147 266 147 q 581 352 581 147 q 426 547 581 547 "},"ừ":{"x_min":79.359375,"x_max":940.015625,"ha":928,"o":"m 750 603 l 750 0 l 536 0 l 536 105 l 533 105 q 320 -16 453 -16 q 79 275 79 -16 l 79 694 l 293 694 l 293 294 q 409 147 293 147 q 501 187 467 147 q 536 297 536 227 l 536 694 l 731 694 q 816 794 816 694 q 804 865 816 824 l 929 865 q 940 786 940 832 q 890 657 940 706 q 750 603 840 608 m 538 804 l 384 804 l 171 1023 l 361 1023 l 538 804 "},"Ợ":{"x_min":50.1875,"x_max":1100.75,"ha":1080,"o":"m 900 822 q 1003 493 1003 689 q 869 123 1003 263 q 522 -16 736 -16 q 181 119 313 -16 q 50 473 50 255 q 183 846 50 704 q 537 988 317 988 q 775 929 672 988 q 837 920 815 920 q 967 1009 967 920 q 954 1084 967 1043 l 1085 1084 q 1100 992 1100 1037 q 1054 866 1100 911 q 924 820 1009 820 q 912 821 920 820 l 900 822 m 531 800 q 348 713 416 800 q 280 484 280 627 q 348 256 280 340 q 526 172 416 172 q 706 253 639 172 q 772 480 772 335 q 708 716 772 632 q 531 800 643 800 m 520 -265 q 445 -238 475 -265 q 416 -172 416 -210 q 445 -106 416 -131 q 520 -80 475 -80 q 594 -106 566 -80 q 623 -172 623 -132 q 594 -238 623 -212 q 520 -265 566 -265 "},"ᾝ":{"x_min":-9.125,"x_max":1371.90625,"ha":1484,"o":"m 1371 0 l 1152 0 l 1152 396 l 749 396 l 749 0 l 530 0 l 530 972 l 749 972 l 749 584 l 1152 584 l 1152 972 l 1371 972 l 1371 0 m 193 771 l 150 710 q -9 879 -9 767 q 93 976 -9 976 q 158 954 133 976 q 182 899 182 932 q 110 824 182 831 q 193 771 126 795 m 464 972 l 327 719 l 224 719 l 281 972 l 464 972 m 1166 -255 q 1023 -330 1109 -330 q 886 -204 886 -330 l 886 -82 l 1018 -82 l 1018 -201 q 1050 -237 1018 -237 q 1105 -204 1079 -237 l 1166 -255 "},"ƴ":{"x_min":-2.71875,"x_max":847.09375,"ha":827,"o":"m 847 524 q 765 547 807 547 q 648 419 695 547 l 473 -56 q 162 -326 374 -326 q 34 -308 84 -326 l 34 -137 q 127 -162 77 -162 q 247 -75 210 -162 l 279 1 l -2 694 l 234 694 l 364 271 q 383 179 376 232 l 385 179 q 406 270 394 231 l 465 450 q 575 651 510 590 q 741 711 640 711 q 847 693 796 711 l 847 524 "},"É":{"x_min":111.234375,"x_max":694.5,"ha":739,"o":"m 694 0 l 111 0 l 111 972 l 672 972 l 672 794 l 330 794 l 330 577 l 648 577 l 648 400 l 330 400 l 330 177 l 694 177 l 694 0 m 633 1281 l 420 1062 l 266 1062 l 442 1281 l 633 1281 "},"ṅ":{"x_min":90.203125,"x_max":760.96875,"ha":840,"o":"m 760 0 l 547 0 l 547 385 q 432 547 547 547 q 340 504 376 547 q 304 396 304 461 l 304 0 l 90 0 l 90 694 l 304 694 l 304 584 l 307 584 q 530 711 383 711 q 760 425 760 711 l 760 0 m 432 804 q 357 831 386 804 q 327 897 327 858 q 357 963 327 937 q 432 988 387 988 q 506 963 477 988 q 535 897 535 937 q 506 830 535 857 q 432 804 477 804 "},"ұ":{"x_min":-2.71875,"x_max":751.46875,"ha":747,"o":"m 751 694 l 493 0 l 693 0 l 693 -139 l 491 -139 l 491 -319 l 278 -319 l 278 -139 l 82 -139 l 82 0 l 277 0 l -2 694 l 234 694 l 364 269 q 383 176 377 227 l 385 176 q 408 267 392 215 l 539 694 l 751 694 "},"и":{"x_min":90.203125,"x_max":780.640625,"ha":872,"o":"m 780 0 l 585 0 l 585 454 q 529 355 559 400 l 293 0 l 90 0 l 90 694 l 286 694 l 286 254 q 333 339 307 299 l 569 694 l 780 694 l 780 0 "},"³":{"x_min":88.84375,"x_max":484.921875,"ha":562,"o":"m 88 417 l 88 540 q 238 494 161 494 q 340 563 340 494 q 223 633 340 633 l 144 633 l 144 746 l 221 746 q 322 811 322 746 q 241 872 322 872 q 107 828 168 872 l 107 947 q 269 986 174 986 q 412 945 360 986 q 465 836 465 904 q 368 704 465 736 l 368 701 q 484 567 484 673 q 418 432 484 483 q 244 381 352 381 q 88 417 153 381 "},"Ṧ":{"x_min":67.828125,"x_max":701.28125,"ha":745,"o":"m 71 37 l 71 254 q 328 155 188 155 q 433 182 396 155 q 470 254 470 210 q 439 325 470 292 q 290 415 408 359 q 67 699 67 520 q 164 909 67 830 q 422 988 261 988 q 658 951 564 988 l 658 748 q 434 816 560 816 q 335 789 371 816 q 298 718 298 762 q 327 644 298 674 q 448 569 356 613 q 647 433 592 501 q 701 273 701 365 q 604 61 701 139 q 323 -16 507 -16 q 71 37 172 -16 m 408 1235 q 351 1255 374 1235 q 329 1304 329 1275 q 352 1354 329 1335 q 408 1373 375 1373 q 465 1354 443 1373 q 486 1304 486 1334 q 464 1255 486 1275 q 408 1235 442 1235 m 643 1232 l 488 1062 l 326 1062 l 172 1232 l 308 1232 l 411 1138 l 507 1232 l 643 1232 "},"Ӫ":{"x_min":50.1875,"x_max":1003.09375,"ha":1053,"o":"m 522 -16 q 181 119 313 -16 q 50 473 50 255 q 183 846 50 704 q 537 988 317 988 q 874 852 746 988 q 1003 493 1003 716 q 869 123 1003 263 q 522 -16 736 -16 m 765 568 q 686 739 747 679 q 531 800 626 800 q 371 738 435 800 q 288 568 307 676 l 765 568 m 766 402 l 288 402 q 370 233 306 294 q 526 172 434 172 q 686 232 622 172 q 766 402 749 293 m 680 1062 q 605 1088 634 1062 q 576 1155 576 1115 q 605 1222 576 1196 q 680 1248 634 1248 q 755 1222 725 1248 q 784 1155 784 1195 q 755 1088 784 1114 q 680 1062 726 1062 m 369 1062 q 294 1089 323 1062 q 265 1155 265 1115 q 295 1222 265 1195 q 369 1248 325 1248 q 444 1222 415 1248 q 473 1155 473 1195 q 444 1088 473 1113 q 369 1062 415 1062 "},"[":{"x_min":147.171875,"x_max":465.265625,"ha":513,"o":"m 465 -221 l 147 -221 l 147 972 l 465 972 l 465 836 l 323 836 l 323 -84 l 465 -84 l 465 -221 "},"ζ":{"x_min":44.765625,"x_max":643.640625,"ha":646,"o":"m 583 -209 l 353 -209 q 432 -92 432 -155 q 396 -34 432 -58 q 268 14 360 -10 q 44 309 44 68 q 398 870 44 554 l 398 872 l 138 872 l 138 1028 l 606 1028 l 606 871 q 263 335 263 552 q 300 224 263 267 q 426 155 337 181 q 595 67 547 120 q 643 -60 643 15 q 583 -209 643 -143 "},"ῇ":{"x_min":62.390625,"x_max":760.96875,"ha":849,"o":"m 760 -267 l 544 -267 l 544 366 q 431 528 544 528 q 339 486 374 528 q 304 380 304 445 l 304 0 l 90 0 l 90 458 q 62 694 90 636 l 282 694 q 303 583 303 651 l 306 583 q 530 711 383 711 q 760 425 760 711 l 760 -267 m 626 797 l 504 797 q 396 889 492 889 q 291 797 304 889 l 169 797 q 238 949 177 893 q 399 1005 299 1005 q 561 947 498 1005 q 626 797 623 889 m 452 -255 q 309 -330 395 -330 q 172 -204 172 -330 l 172 -82 l 304 -82 l 304 -201 q 336 -237 304 -237 q 391 -204 365 -237 l 452 -255 "},"ḥ":{"x_min":90.203125,"x_max":756.890625,"ha":836,"o":"m 756 0 l 543 0 l 543 394 q 432 547 543 547 q 339 504 375 547 q 304 396 304 461 l 304 0 l 90 0 l 90 1028 l 304 1028 l 304 591 l 307 591 q 520 711 385 711 q 756 426 756 711 l 756 0 m 425 -265 q 350 -238 380 -265 q 321 -172 321 -210 q 350 -106 321 -131 q 425 -80 380 -80 q 499 -106 471 -80 q 528 -172 528 -132 q 499 -238 528 -212 q 425 -265 471 -265 "},"Ἅ":{"x_min":-8.125,"x_max":1214.46875,"ha":1224,"o":"m 1214 0 l 975 0 l 906 216 l 560 216 l 492 0 l 254 0 l 608 972 l 868 972 l 1214 0 m 856 384 l 751 711 q 735 798 740 748 l 730 798 q 713 714 726 756 l 607 384 l 856 384 m 194 771 l 151 710 q -8 879 -8 767 q 94 976 -8 976 q 159 954 134 976 q 183 899 183 932 q 111 824 183 831 q 194 771 127 795 m 465 972 l 328 719 l 225 719 l 282 972 l 465 972 "},"Ρ":{"x_min":111.234375,"x_max":822,"ha":853,"o":"m 330 335 l 330 0 l 111 0 l 111 972 l 454 972 q 822 662 822 972 q 716 425 822 516 q 434 335 611 335 l 330 335 m 330 804 l 330 501 l 416 501 q 591 654 591 501 q 416 804 591 804 l 330 804 "},"ῌ":{"x_min":111.234375,"x_max":952.90625,"ha":1064,"o":"m 952 0 l 733 0 l 733 396 l 330 396 l 330 0 l 111 0 l 111 972 l 330 972 l 330 584 l 733 584 l 733 972 l 952 972 l 952 0 m 746 -255 q 603 -330 689 -330 q 466 -204 466 -330 l 466 -82 l 598 -82 l 598 -201 q 630 -237 598 -237 q 685 -204 659 -237 l 746 -255 "},"ᾎ":{"x_min":-26.765625,"x_max":1212.46875,"ha":1224,"o":"m 1212 0 l 973 0 l 904 216 l 558 216 l 490 0 l 252 0 l 606 972 l 866 972 l 1212 0 m 854 384 l 749 711 q 733 798 738 748 l 728 798 q 711 714 724 756 l 605 384 l 854 384 m 481 805 l 363 805 q 227 883 331 883 q 91 805 124 883 l -26 805 q 65 940 -2 893 q 227 988 133 988 q 389 940 321 988 q 481 805 457 892 m 167 584 l 136 643 q 211 678 188 652 q 141 749 141 685 q 165 800 141 780 q 226 821 188 821 q 298 794 270 821 q 326 727 326 768 q 283 636 326 674 q 167 584 240 598 m 949 -255 q 806 -330 892 -330 q 669 -204 669 -330 l 669 -82 l 801 -82 l 801 -201 q 833 -237 801 -237 q 888 -204 862 -237 l 949 -255 "},"Ṙ":{"x_min":111.234375,"x_max":858.625,"ha":884,"o":"m 858 0 l 607 0 l 508 250 q 377 372 460 372 l 330 372 l 330 0 l 111 0 l 111 972 l 458 972 q 812 708 812 972 q 754 537 812 607 q 592 440 696 467 l 592 437 q 731 287 678 410 l 858 0 m 330 808 l 330 537 l 425 537 q 538 578 495 537 q 581 680 581 619 q 429 808 581 808 l 330 808 m 448 1041 q 373 1068 402 1041 q 343 1134 343 1095 q 373 1200 343 1174 q 448 1225 403 1225 q 522 1200 493 1225 q 551 1134 551 1174 q 522 1067 551 1094 q 448 1041 493 1041 "},"ª":{"x_min":48.828125,"x_max":501.203125,"ha":570,"o":"m 501 486 l 356 486 l 356 544 l 354 544 q 205 472 295 472 q 92 513 137 472 q 48 620 48 554 q 226 786 48 763 l 356 803 q 262 880 356 880 q 95 828 182 880 l 95 947 q 290 986 179 986 q 501 783 501 986 l 501 486 m 356 668 l 356 715 l 273 704 q 194 638 194 693 q 265 579 194 579 q 329 605 301 579 q 356 668 356 631 "},"Ἓ":{"x_min":-10.5625,"x_max":1091.5,"ha":1146,"o":"m 1091 0 l 508 0 l 508 972 l 1069 972 l 1069 794 l 727 794 l 727 577 l 1045 577 l 1045 400 l 727 400 l 727 177 l 1091 177 l 1091 0 m 192 771 l 149 710 q -10 879 -10 768 q 92 976 -10 976 q 156 955 132 976 q 181 899 181 933 q 109 824 181 831 q 192 771 125 795 m 435 719 l 332 719 l 195 972 l 378 972 l 435 719 "},"ї":{"x_min":-56.671875,"x_max":462.84375,"ha":395,"o":"m 304 0 l 90 0 l 90 694 l 304 694 l 304 0 m 358 804 q 283 830 312 804 q 254 897 254 857 q 283 964 254 938 q 358 990 312 990 q 433 964 403 990 q 462 897 462 937 q 433 830 462 856 q 358 804 404 804 m 47 804 q -27 831 1 804 q -56 897 -56 857 q -26 964 -56 937 q 47 990 3 990 q 122 964 93 990 q 151 897 151 937 q 122 830 151 855 q 47 804 93 804 "},"š":{"x_min":34.375,"x_max":569.703125,"ha":611,"o":"m 63 18 l 63 191 q 262 128 169 128 q 364 191 364 128 q 339 237 364 219 q 233 286 315 255 q 101 369 138 322 q 63 490 63 417 q 143 651 63 590 q 355 711 222 711 q 527 683 441 711 l 527 518 q 358 565 446 565 q 273 507 273 565 q 293 459 273 478 q 381 417 314 441 q 527 332 485 381 q 569 212 569 284 q 489 45 569 107 q 265 -16 408 -16 q 63 18 157 -16 m 523 1024 l 361 804 l 193 804 l 34 1024 l 173 1024 l 278 897 l 384 1024 l 523 1024 "},"Ƕ":{"x_min":111.234375,"x_max":1419.515625,"ha":1503,"o":"m 1419 336 q 1325 73 1419 164 q 1058 -16 1232 -16 q 798 73 891 -16 q 705 331 705 163 l 705 396 l 330 396 l 330 0 l 111 0 l 111 972 l 330 972 l 330 584 l 705 584 l 705 972 l 925 972 l 925 335 q 1062 172 925 172 q 1199 335 1199 172 l 1199 694 l 1419 694 l 1419 336 "},"1":{"x_min":109.875,"x_max":730.453125,"ha":799,"o":"m 730 0 l 115 0 l 115 169 l 316 169 l 316 775 l 109 730 l 109 904 l 530 988 l 530 169 l 730 169 l 730 0 "},"ϒ":{"x_min":0,"x_max":886.4375,"ha":859,"o":"m 886 786 q 823 800 852 800 q 706 698 758 800 l 527 341 l 527 0 l 308 0 l 308 341 l 0 972 l 250 972 l 406 609 q 429 530 411 599 l 432 530 q 454 609 436 556 l 533 779 q 645 939 583 889 q 794 988 707 988 q 886 972 842 988 l 886 786 "},"ҍ":{"x_min":18.3125,"x_max":758.25,"ha":798,"o":"m 111 0 l 111 763 l 18 763 l 18 902 l 111 902 l 111 1028 l 324 1028 l 324 902 l 423 902 l 423 763 l 324 763 l 324 451 l 508 451 q 692 394 626 451 q 758 233 758 337 q 693 63 758 126 q 512 0 628 0 l 111 0 m 324 316 l 324 136 l 429 136 q 537 229 537 136 q 432 316 537 316 l 324 316 "},"ℓ":{"x_min":9.5,"x_max":437.453125,"ha":449,"o":"m 244 451 l 244 169 q 253 94 244 108 q 283 80 263 80 q 320 90 297 80 q 417 152 343 99 l 417 42 q 265 -16 341 -16 q 130 147 130 -16 l 130 299 l 76 233 l 9 286 l 130 445 l 130 754 q 171 958 130 905 q 288 1011 212 1011 q 395 967 352 1011 q 437 848 437 923 q 390 683 437 777 q 244 451 344 590 m 244 609 q 324 761 306 717 q 343 848 343 805 q 329 906 343 883 q 291 929 315 929 q 263 916 273 929 q 248 866 253 904 q 244 763 244 828 l 244 609 "},"ɩ":{"x_min":83.421875,"x_max":453.046875,"ha":460,"o":"m 453 8 q 309 -16 405 -16 q 83 218 83 -16 l 83 694 l 295 694 l 295 255 q 383 147 295 147 q 453 166 420 147 l 453 8 "},"Ǜ":{"x_min":99.703125,"x_max":904.078125,"ha":1004,"o":"m 904 421 q 495 -16 904 -16 q 99 411 99 -16 l 99 972 l 319 972 l 319 408 q 503 172 319 172 q 685 400 685 172 l 685 972 l 904 972 l 904 421 m 602 1261 l 447 1261 l 235 1480 l 425 1480 l 602 1261 m 666 1067 q 606 1088 628 1067 q 584 1140 584 1108 q 607 1192 584 1172 q 666 1212 630 1212 q 724 1192 701 1212 q 748 1140 748 1172 q 725 1088 748 1109 q 666 1067 702 1067 m 368 1067 q 308 1088 331 1067 q 286 1140 286 1108 q 309 1192 286 1172 q 368 1212 332 1212 q 427 1192 404 1212 q 449 1140 449 1172 q 426 1088 449 1109 q 368 1067 403 1067 "},"ǒ":{"x_min":48.828125,"x_max":800.296875,"ha":849,"o":"m 421 -16 q 148 80 247 -16 q 48 344 48 177 q 151 614 48 516 q 430 711 255 711 q 701 614 603 711 q 800 356 800 516 q 698 83 800 183 q 421 -16 597 -16 m 426 547 q 308 495 350 547 q 266 347 266 442 q 427 147 266 147 q 581 352 581 147 q 426 547 581 547 m 669 1016 l 507 796 l 339 796 l 180 1016 l 319 1016 l 424 889 l 530 1016 l 669 1016 "},"ἥ":{"x_min":62.390625,"x_max":760.96875,"ha":849,"o":"m 760 -267 l 544 -267 l 544 366 q 431 528 544 528 q 339 486 374 528 q 304 380 304 445 l 304 0 l 90 0 l 90 458 q 62 694 90 636 l 282 694 q 303 583 303 651 l 306 583 q 530 711 383 711 q 760 425 760 711 l 760 -267 m 404 844 l 361 783 q 201 952 201 840 q 304 1049 201 1049 q 369 1027 344 1049 q 393 972 393 1005 q 321 897 393 904 q 404 844 337 868 m 675 1045 l 538 792 l 435 792 l 492 1045 l 675 1045 "},"ӡ":{"x_min":38.65625,"x_max":658.546875,"ha":700,"o":"m 38 -280 l 38 -103 q 259 -168 138 -168 q 393 -124 346 -168 q 440 -4 440 -80 q 384 119 440 75 q 230 162 328 162 l 140 162 l 140 269 l 365 536 l 51 536 l 51 694 l 637 694 l 637 588 l 398 301 q 589 209 520 288 q 658 16 658 130 q 560 -235 658 -143 q 282 -327 462 -327 q 38 -280 139 -327 "},"ḽ":{"x_min":-44.96875,"x_max":442.671875,"ha":395,"o":"m 304 0 l 90 0 l 90 1028 l 304 1028 l 304 0 m 442 -319 l 302 -319 l 195 -192 l 95 -319 l -44 -319 l 114 -99 l 282 -99 l 442 -319 "},"ī":{"x_min":-1.40625,"x_max":396.03125,"ha":395,"o":"m 304 0 l 90 0 l 90 694 l 304 694 l 304 0 m 396 804 l -1 804 l -1 921 l 396 921 l 396 804 "},"ϯ":{"x_min":-6.78125,"x_max":715.53125,"ha":709,"o":"m 715 536 l 490 536 l 490 88 q 420 -148 490 -59 q 204 -278 351 -236 l 120 -95 q 276 86 276 -66 l 276 536 l 223 536 q 161 479 161 536 q 166 436 161 463 l 1 436 q -6 501 -6 476 q 50 642 -6 590 q 210 694 107 694 l 276 694 l 276 844 l 490 905 l 490 694 l 715 694 l 715 536 "},"ӹ":{"x_min":90.203125,"x_max":1041.75,"ha":1132,"o":"m 1041 0 l 826 0 l 826 694 l 1041 694 l 1041 0 m 90 0 l 90 694 l 304 694 l 304 451 l 487 451 q 671 394 605 451 q 737 233 737 337 q 672 63 737 126 q 491 0 607 0 l 90 0 m 304 316 l 304 136 l 408 136 q 516 229 516 136 q 411 316 516 316 l 304 316 m 713 804 q 638 830 667 804 q 609 897 609 857 q 638 964 609 938 q 713 990 667 990 q 788 964 758 990 q 817 897 817 937 q 788 830 817 856 q 713 804 759 804 m 402 804 q 327 831 356 804 q 298 897 298 857 q 328 964 298 937 q 402 990 358 990 q 477 964 448 990 q 506 897 506 937 q 477 830 506 855 q 402 804 448 804 "},"ṻ":{"x_min":79.359375,"x_max":750.109375,"ha":840,"o":"m 750 0 l 536 0 l 536 105 l 533 105 q 320 -16 453 -16 q 79 275 79 -16 l 79 694 l 293 694 l 293 294 q 409 147 293 147 q 501 187 467 147 q 536 297 536 227 l 536 694 l 750 694 l 750 0 m 549 969 q 490 990 513 969 q 467 1042 467 1011 q 490 1094 467 1074 q 549 1115 513 1115 q 608 1094 585 1115 q 631 1042 631 1074 q 608 989 631 1010 q 549 969 586 969 m 279 969 q 220 990 243 969 q 197 1042 197 1011 q 220 1094 197 1074 q 279 1115 243 1115 q 338 1094 315 1115 q 361 1042 361 1074 q 338 989 361 1010 q 279 969 316 969 m 612 826 l 215 826 l 215 929 l 612 929 l 612 826 "},"G":{"x_min":50.1875,"x_max":909.5,"ha":988,"o":"m 909 65 q 555 -16 767 -16 q 185 112 320 -16 q 50 470 50 242 q 198 844 50 699 q 591 988 345 988 q 864 946 746 988 l 864 740 q 588 805 751 805 q 366 717 452 805 q 280 480 280 628 q 357 248 280 330 q 565 166 434 166 q 690 189 644 166 l 690 379 l 495 379 l 495 554 l 909 554 l 909 65 "},"`":{"x_min":37.296875,"x_max":404.21875,"ha":436,"o":"m 404 804 l 250 804 l 37 1023 l 227 1023 l 404 804 "},"Ễ":{"x_min":111.234375,"x_max":694.5,"ha":739,"o":"m 694 0 l 111 0 l 111 972 l 672 972 l 672 794 l 330 794 l 330 577 l 648 577 l 648 400 l 330 400 l 330 177 l 694 177 l 694 0 m 634 1431 q 492 1276 634 1276 q 390 1300 452 1276 q 303 1325 325 1325 q 252 1272 252 1325 l 154 1272 q 299 1429 154 1429 q 402 1405 348 1429 q 485 1380 458 1380 q 536 1431 536 1380 l 634 1431 m 631 1062 l 495 1062 l 392 1155 l 296 1062 l 160 1062 l 314 1231 l 477 1231 l 631 1062 "},"ằ":{"x_min":38.65625,"x_max":668.046875,"ha":747,"o":"m 668 0 l 465 0 l 465 99 l 462 99 q 255 -16 392 -16 q 96 40 154 -16 q 38 193 38 97 q 278 426 38 395 l 466 451 q 343 565 466 565 q 107 491 219 565 l 107 653 q 229 693 151 676 q 370 711 307 711 q 668 415 668 711 l 668 0 m 466 282 l 466 328 l 340 312 q 236 218 236 299 q 261 158 236 181 q 330 134 286 134 q 428 176 390 134 q 466 282 466 218 m 470 983 l 337 983 l 158 1150 l 348 1150 l 470 983 m 609 996 q 545 872 602 918 q 394 826 487 826 q 241 874 300 826 q 180 996 183 921 l 290 996 q 397 929 300 929 q 499 996 489 929 l 609 996 "},"ŏ":{"x_min":48.828125,"x_max":800.296875,"ha":849,"o":"m 421 -16 q 148 80 247 -16 q 48 344 48 177 q 151 614 48 516 q 430 711 255 711 q 701 614 603 711 q 800 356 800 516 q 698 83 800 183 q 421 -16 597 -16 m 426 547 q 308 495 350 547 q 266 347 266 442 q 427 147 266 147 q 581 352 581 147 q 426 547 581 547 m 653 1012 q 583 860 645 916 q 422 804 522 804 q 261 862 323 804 q 196 1012 198 920 l 317 1012 q 425 921 329 921 q 531 1012 518 921 l 653 1012 "},"ý":{"x_min":-2.71875,"x_max":751.46875,"ha":747,"o":"m 751 694 l 469 -55 q 162 -326 367 -326 q 34 -308 84 -326 l 34 -137 q 127 -162 77 -162 q 242 -84 210 -162 l 279 1 l -2 694 l 234 694 l 364 271 q 383 179 376 232 l 385 179 q 408 270 392 218 l 539 694 l 751 694 m 565 1023 l 352 804 l 198 804 l 374 1023 l 565 1023 "},"º":{"x_min":47.46875,"x_max":581.921875,"ha":633,"o":"m 311 472 q 116 539 185 472 q 47 727 47 607 q 121 917 47 849 q 319 986 194 986 q 512 917 442 986 q 581 737 581 848 q 509 542 581 612 q 311 472 437 472 m 315 868 q 204 730 204 868 q 315 590 204 590 q 423 731 423 590 q 315 868 423 868 "},"ȑ":{"x_min":-69.625,"x_max":543.25,"ha":553,"o":"m 543 501 q 453 522 504 522 q 343 471 383 522 q 304 331 304 419 l 304 0 l 90 0 l 90 694 l 304 694 l 304 565 l 307 565 q 490 706 358 706 q 543 698 524 706 l 543 501 m 498 804 l 354 804 l 187 1021 l 354 1021 l 498 804 m 244 804 l 101 804 l -69 1021 l 99 1021 l 244 804 "},"ʘ":{"x_min":69.171875,"x_max":943.40625,"ha":1012,"o":"m 501 -16 q 181 118 294 -16 q 69 505 69 253 q 185 903 69 761 q 511 1044 301 1044 q 830 909 718 1044 q 943 522 943 773 q 827 124 943 265 q 501 -16 711 -16 m 507 880 q 283 514 283 880 q 505 147 283 147 q 729 514 729 147 q 507 880 729 880 m 505 421 q 438 447 465 421 q 412 514 412 474 q 438 581 412 555 q 505 607 464 607 q 573 580 546 607 q 600 514 600 554 q 573 447 600 474 q 505 421 547 421 "},"Ί":{"x_min":-32.265625,"x_max":500.296875,"ha":612,"o":"m 500 0 l 281 0 l 281 972 l 500 972 l 500 0 m 222 972 l 81 742 l -32 742 l 31 972 l 222 972 "},"ӛ":{"x_min":37.296875,"x_max":702.640625,"ha":751,"o":"m 37 408 l 490 408 q 299 559 480 559 q 98 505 185 559 l 98 659 q 348 711 195 711 q 609 618 516 711 q 702 358 702 524 q 602 84 702 185 q 355 -16 501 -16 q 120 73 203 -16 q 37 318 37 163 l 37 408 m 491 276 l 236 276 q 356 127 236 127 q 445 170 408 127 q 491 276 483 212 m 534 804 q 459 830 488 804 q 430 897 430 857 q 459 964 430 938 q 534 990 488 990 q 609 964 579 990 q 638 897 638 937 q 609 830 638 856 q 534 804 580 804 m 223 804 q 148 831 177 804 q 119 897 119 857 q 149 964 119 937 q 223 990 179 990 q 298 964 269 990 q 327 897 327 937 q 298 830 327 855 q 223 804 269 804 "},"ń":{"x_min":90.203125,"x_max":760.96875,"ha":840,"o":"m 760 0 l 547 0 l 547 385 q 432 547 547 547 q 340 504 376 547 q 304 396 304 461 l 304 0 l 90 0 l 90 694 l 304 694 l 304 584 l 307 584 q 530 711 383 711 q 760 425 760 711 l 760 0 m 659 1023 l 446 804 l 292 804 l 468 1023 l 659 1023 "},"ἒ":{"x_min":45.4375,"x_max":598.875,"ha":643,"o":"m 598 172 l 598 14 q 350 -16 493 -16 q 125 35 206 -16 q 45 184 45 88 q 201 356 45 318 l 201 359 q 108 416 145 373 q 70 516 70 459 q 146 660 70 609 q 364 711 223 711 q 569 683 477 711 l 569 526 q 393 567 470 567 q 288 499 288 567 q 427 419 288 419 q 507 424 474 419 l 507 283 q 408 287 470 287 q 263 206 263 287 q 398 127 263 127 q 598 172 495 127 m 142 783 l 99 844 q 182 897 166 868 q 110 972 110 904 q 134 1028 110 1006 q 199 1049 159 1049 q 301 952 301 1049 q 142 783 301 840 m 556 792 l 453 792 l 316 1045 l 499 1045 l 556 792 "},"ἑ":{"x_min":45.4375,"x_max":598.875,"ha":643,"o":"m 598 172 l 598 14 q 350 -16 493 -16 q 125 35 206 -16 q 45 184 45 88 q 201 356 45 318 l 201 359 q 108 416 145 373 q 70 516 70 459 q 146 660 70 609 q 364 711 223 711 q 569 683 477 711 l 569 526 q 393 567 470 567 q 288 499 288 567 q 427 419 288 419 q 507 424 474 419 l 507 283 q 408 287 470 287 q 263 206 263 287 q 398 127 263 127 q 598 172 495 127 m 431 829 l 395 772 q 284 855 327 800 q 241 969 241 909 q 267 1039 241 1012 q 337 1065 293 1065 q 398 1044 375 1065 q 422 988 422 1022 q 401 939 422 960 q 350 915 379 917 q 431 829 369 864 "},"Ь":{"x_min":111.234375,"x_max":825.390625,"ha":865,"o":"m 111 0 l 111 972 l 330 972 l 330 608 l 473 608 q 825 322 825 608 q 730 84 825 169 q 462 0 635 0 l 111 0 m 330 442 l 330 166 l 429 166 q 594 307 594 166 q 433 442 594 442 l 330 442 "},"ƽ":{"x_min":34.59375,"x_max":575.140625,"ha":617,"o":"m 69 10 l 69 166 q 233 128 148 128 q 356 208 356 128 q 212 287 356 287 q 83 276 143 287 l 112 539 l 34 539 l 34 694 l 554 694 l 554 539 l 290 539 l 279 430 q 339 434 317 434 q 512 379 448 434 q 575 229 575 323 q 493 51 575 120 q 269 -16 411 -16 q 69 10 153 -16 "},"ᾯ":{"x_min":-27.765625,"x_max":1369.15625,"ha":1426,"o":"m 1133 177 l 1367 177 l 1367 0 l 960 0 l 960 176 q 1138 533 1138 329 q 1069 727 1138 654 q 896 800 1000 800 q 719 727 788 800 q 649 524 649 654 q 687 348 649 430 q 824 176 724 266 l 824 0 l 417 0 l 417 177 l 648 177 q 418 562 418 310 q 551 872 418 755 q 892 988 683 988 q 1238 871 1107 988 q 1369 565 1369 754 q 1133 177 1369 309 m 480 805 l 362 805 q 226 883 330 883 q 90 805 123 883 l -27 805 q 64 940 -3 893 q 226 988 132 988 q 388 940 320 988 q 480 805 456 892 m 323 643 l 291 584 q 175 636 219 598 q 132 727 132 674 q 159 794 132 768 q 233 821 187 821 q 294 800 270 821 q 318 749 318 780 q 248 678 318 685 q 323 643 271 652 m 1105 -255 q 962 -330 1048 -330 q 825 -204 825 -330 l 825 -82 l 957 -82 l 957 -201 q 989 -237 957 -237 q 1044 -204 1018 -237 l 1105 -255 "},"¤":{"x_min":34.59375,"x_max":737.234375,"ha":773,"o":"m 737 242 l 641 144 l 544 240 q 385 196 473 196 q 227 240 299 196 l 130 144 l 34 242 l 130 336 q 86 491 86 411 q 130 647 86 573 l 34 741 l 130 840 l 227 744 q 385 788 299 788 q 544 744 473 788 l 641 840 l 737 741 l 641 647 q 687 491 687 571 q 641 336 687 413 l 737 242 m 385 654 q 270 607 318 654 q 223 493 223 560 q 270 378 223 425 q 385 331 318 331 q 501 378 453 331 q 550 493 550 425 q 500 607 550 559 q 385 654 451 654 "},"Ǣ":{"x_min":-1.359375,"x_max":1254.03125,"ha":1299,"o":"m 1254 0 l 672 0 l 672 216 l 352 216 l 252 0 l -1 0 l 490 972 l 1232 972 l 1232 794 l 890 794 l 890 577 l 1208 577 l 1208 400 l 890 400 l 890 177 l 1254 177 l 1254 0 m 672 384 l 672 794 l 619 794 l 427 384 l 672 384 m 1053 1075 l 655 1075 l 655 1192 l 1053 1192 l 1053 1075 "},"Ɨ":{"x_min":27.8125,"x_max":469.328125,"ha":497,"o":"m 469 396 l 358 396 l 358 0 l 139 0 l 139 396 l 27 396 l 27 584 l 139 584 l 139 972 l 358 972 l 358 584 l 469 584 l 469 396 "},"p":{"x_min":90.203125,"x_max":812.515625,"ha":861,"o":"m 307 80 l 304 80 l 304 -319 l 90 -319 l 90 694 l 304 694 l 304 590 l 307 590 q 530 711 386 711 q 738 618 665 711 q 812 366 812 526 q 726 88 812 193 q 498 -16 640 -16 q 307 80 373 -16 m 301 365 l 301 309 q 339 192 301 238 q 438 147 377 147 q 552 203 512 147 q 592 364 592 260 q 450 547 592 547 q 342 497 384 547 q 301 365 301 447 "},"Ἤ":{"x_min":-25.734375,"x_max":1349.90625,"ha":1462,"o":"m 1349 0 l 1130 0 l 1130 396 l 727 396 l 727 0 l 508 0 l 508 972 l 727 972 l 727 584 l 1130 584 l 1130 972 l 1349 972 l 1349 0 m 17 710 l -25 771 q 57 824 42 795 q -14 899 -14 831 q 9 954 -14 932 q 74 976 34 976 q 177 879 177 976 q 17 710 177 767 m 440 972 l 303 719 l 200 719 l 257 972 l 440 972 "},"Ѹ":{"x_min":50.1875,"x_max":2014.328125,"ha":2024,"o":"m 523 -44 l 523 10 q 182 146 314 10 q 50 501 50 282 q 181 874 50 733 q 533 1016 313 1016 l 533 961 q 872 824 741 961 q 1003 465 1003 687 q 870 95 1003 236 q 523 -44 737 -44 m 533 772 l 533 828 q 348 741 417 828 q 280 512 280 654 q 347 283 280 367 q 523 200 414 200 l 523 144 q 705 226 637 144 q 772 453 772 308 q 708 688 772 604 q 533 772 644 772 m 2014 472 l 1825 472 q 1770 540 1821 540 q 1701 466 1728 540 l 1436 -278 l 1211 -278 l 1308 -25 l 1044 694 l 1273 694 l 1394 286 q 1418 162 1414 218 l 1420 162 q 1445 282 1426 214 l 1507 487 q 1768 711 1573 711 q 2014 472 1991 711 "},"ο":{"x_min":48.828125,"x_max":800.296875,"ha":849,"o":"m 421 -16 q 148 80 247 -16 q 48 344 48 177 q 151 614 48 516 q 430 711 255 711 q 701 614 603 711 q 800 356 800 516 q 698 83 800 183 q 421 -16 597 -16 m 426 547 q 308 495 350 547 q 266 347 266 442 q 427 147 266 147 q 581 352 581 147 q 426 547 581 547 "},"Ḛ":{"x_min":111.234375,"x_max":694.5,"ha":739,"o":"m 694 0 l 111 0 l 111 972 l 672 972 l 672 794 l 330 794 l 330 577 l 648 577 l 648 400 l 330 400 l 330 177 l 694 177 l 694 0 m 645 -58 q 607 -205 645 -153 q 504 -257 570 -257 q 391 -228 446 -257 q 307 -196 330 -196 q 253 -269 253 -196 l 157 -269 q 195 -123 157 -175 q 299 -70 232 -70 q 413 -104 354 -70 q 494 -133 467 -133 q 547 -58 547 -133 l 645 -58 "},"ϭ":{"x_min":48.828125,"x_max":800.296875,"ha":849,"o":"m 727 1051 l 727 890 q 612 873 672 873 q 550 876 596 873 q 472 878 504 878 q 269 617 288 878 l 273 617 q 487 711 357 711 q 717 616 634 711 q 800 356 800 520 q 698 83 800 183 q 417 -16 596 -16 q 144 102 240 -16 q 48 441 48 221 q 472 1043 48 1043 q 546 1040 497 1043 q 616 1037 596 1037 q 727 1051 683 1037 m 267 459 q 266 385 266 442 q 310 212 266 278 q 429 147 354 147 q 539 201 497 147 q 581 345 581 255 q 538 494 581 440 q 425 548 495 548 q 332 522 377 548 q 267 459 286 496 "},"ϲ":{"x_min":48.828125,"x_max":616.5,"ha":667,"o":"m 616 25 q 406 -16 543 -16 q 147 80 246 -16 q 48 330 48 177 q 154 609 48 507 q 438 711 261 711 q 616 678 561 711 l 616 497 q 466 547 549 547 q 320 493 374 547 q 266 344 266 439 q 318 199 266 252 q 459 147 369 147 q 616 197 539 147 l 616 25 "},"Ӭ":{"x_min":59.6875,"x_max":815.21875,"ha":866,"o":"m 59 34 l 59 225 q 299 162 166 162 q 576 396 544 162 l 201 396 l 201 569 l 577 569 q 301 809 535 809 q 59 752 167 809 l 59 950 q 323 988 172 988 q 685 855 554 988 q 815 483 815 722 q 685 120 815 257 q 331 -16 556 -16 q 59 34 166 -16 m 526 1062 q 451 1088 480 1062 q 422 1155 422 1115 q 451 1222 422 1196 q 526 1248 480 1248 q 601 1222 571 1248 q 630 1155 630 1195 q 601 1088 630 1114 q 526 1062 572 1062 m 215 1062 q 140 1089 169 1062 q 111 1155 111 1115 q 141 1222 111 1195 q 215 1248 171 1248 q 290 1222 261 1248 q 319 1155 319 1195 q 290 1088 319 1113 q 215 1062 261 1062 "},"ʦ":{"x_min":27.8125,"x_max":925.09375,"ha":967,"o":"m 140 536 l 27 536 l 27 694 l 140 694 l 140 844 l 352 905 l 352 694 l 619 694 q 743 711 675 711 q 902 686 827 711 l 902 520 q 746 565 826 565 q 663 505 663 565 q 681 463 663 478 q 769 416 699 447 q 891 330 857 376 q 925 219 925 284 q 820 48 925 113 q 531 -16 716 -16 q 283 25 366 -16 q 170 132 200 67 q 140 307 140 196 l 140 536 m 459 536 l 352 536 l 352 320 q 404 176 352 211 q 541 141 457 141 q 714 216 714 141 q 693 255 714 239 q 598 299 672 270 q 485 375 516 331 q 454 489 454 419 q 459 536 454 512 "},"῭":{"x_min":120.046875,"x_max":729.765625,"ha":849,"o":"m 511 819 l 408 819 l 271 1072 l 454 1072 l 511 819 m 632 803 q 562 828 590 803 q 535 890 535 853 q 562 953 535 929 q 632 978 590 978 q 702 953 674 978 q 729 890 729 928 q 702 827 729 852 q 632 803 675 803 m 218 803 q 147 828 175 803 q 120 890 120 853 q 148 953 120 929 q 218 978 176 978 q 288 953 261 978 q 315 890 315 928 q 288 827 315 852 q 218 803 261 803 "},"ђ":{"x_min":18.3125,"x_max":794.203125,"ha":860,"o":"m 362 -284 l 362 -119 q 437 -144 400 -144 q 546 -61 514 -144 q 579 240 579 21 q 457 527 579 527 q 366 484 404 527 q 328 379 328 442 l 328 0 l 115 0 l 115 794 l 18 794 l 18 933 l 115 933 l 115 1028 l 328 1028 l 328 933 l 552 933 l 552 794 l 328 794 l 328 576 l 331 576 q 539 695 402 695 q 794 245 794 695 q 712 -183 794 -61 q 451 -304 631 -304 q 362 -284 408 -304 "},"ϕ":{"x_min":48.828125,"x_max":904.078125,"ha":953,"o":"m 577 -16 l 577 -319 l 379 -319 l 379 -16 q 138 95 227 0 q 48 341 48 191 q 138 591 48 493 q 379 711 228 689 l 379 1028 l 577 1028 l 577 711 q 815 598 727 695 q 904 359 904 501 q 815 106 904 207 q 577 -16 727 6 m 577 547 l 577 147 q 705 352 705 174 q 577 547 705 520 m 379 147 l 379 547 q 247 347 247 519 q 379 147 247 174 "},"y":{"x_min":-2.71875,"x_max":751.46875,"ha":747,"o":"m 751 694 l 469 -55 q 162 -326 367 -326 q 34 -308 84 -326 l 34 -137 q 127 -162 77 -162 q 242 -84 210 -162 l 279 1 l -2 694 l 234 694 l 364 271 q 383 179 376 232 l 385 179 q 408 270 392 218 l 539 694 l 751 694 "},"‗":{"x_min":0,"x_max":576.484375,"ha":576,"o":"m 576 -201 l 0 -201 l 0 -120 l 576 -120 l 576 -201 m 576 -392 l 0 -392 l 0 -311 l 576 -311 l 576 -392 "},"ḓ":{"x_min":48.828125,"x_max":769.78125,"ha":860,"o":"m 769 0 l 555 0 l 555 95 l 552 95 q 337 -16 479 -16 q 128 74 207 -16 q 48 331 48 166 q 136 607 48 503 q 365 711 223 711 q 552 615 499 711 l 555 615 l 555 1028 l 769 1028 l 769 0 m 559 337 l 559 389 q 520 502 559 457 q 417 547 480 547 q 306 491 346 547 q 266 337 266 435 q 305 196 266 246 q 412 147 343 147 q 518 199 477 147 q 559 337 559 251 m 666 -319 l 526 -319 l 419 -192 l 319 -319 l 179 -319 l 338 -99 l 506 -99 l 666 -319 "},"ƅ":{"x_min":90.203125,"x_max":812.515625,"ha":861,"o":"m 307 80 l 304 80 l 304 0 l 90 0 l 90 1028 l 304 1028 l 304 590 l 307 590 q 533 711 386 711 q 739 619 667 711 q 812 366 812 526 q 727 88 812 193 q 501 -16 642 -16 q 307 80 373 -16 m 301 373 l 301 302 q 339 191 301 235 q 438 147 378 147 q 552 203 512 147 q 592 364 592 260 q 555 498 592 450 q 450 547 518 547 q 343 499 385 547 q 301 373 301 451 "},"ë":{"x_min":48.828125,"x_max":714.171875,"ha":751,"o":"m 714 286 l 261 286 q 451 134 271 134 q 653 189 566 134 l 653 34 q 402 -16 556 -16 q 141 76 234 -16 q 48 336 48 169 q 149 610 48 509 q 396 711 249 711 q 631 621 548 711 q 714 376 714 531 l 714 286 m 515 417 q 394 567 515 567 q 305 524 343 567 q 259 417 267 481 l 515 417 m 548 804 q 473 830 502 804 q 444 897 444 857 q 473 964 444 938 q 548 990 502 990 q 623 964 593 990 q 652 897 652 937 q 623 830 652 856 q 548 804 594 804 m 237 804 q 162 831 191 804 q 133 897 133 857 q 163 964 133 937 q 237 990 193 990 q 312 964 283 990 q 341 897 341 937 q 312 830 341 855 q 237 804 283 804 "},"б":{"x_min":52.90625,"x_max":797.59375,"ha":846,"o":"m 705 1044 l 705 874 q 618 841 672 849 q 436 811 465 817 q 346 772 374 796 q 300 701 318 748 q 275 587 282 654 l 278 587 q 484 676 355 676 q 715 588 632 676 q 797 345 797 500 q 696 81 797 180 q 422 -16 595 -16 q 147 98 241 -16 q 52 432 52 213 q 68 620 52 536 q 115 770 84 705 q 192 878 146 834 q 285 941 238 921 q 379 971 333 961 q 611 1009 425 981 q 705 1044 672 1025 m 271 437 q 270 373 270 421 q 312 208 270 269 q 427 147 354 147 q 537 198 495 147 q 579 336 579 250 q 536 473 579 423 q 422 522 494 522 q 334 497 375 522 q 271 437 292 473 "},"ȟ":{"x_min":90.203125,"x_max":756.890625,"ha":836,"o":"m 756 0 l 543 0 l 543 394 q 432 547 543 547 q 339 504 375 547 q 304 396 304 461 l 304 0 l 90 0 l 90 1028 l 304 1028 l 304 591 l 307 591 q 520 711 385 711 q 756 426 756 711 l 756 0 m 658 1276 l 496 1056 l 328 1056 l 169 1276 l 308 1276 l 413 1149 l 519 1276 l 658 1276 "},"Ẏ":{"x_min":0,"x_max":844.390625,"ha":843,"o":"m 844 972 l 527 345 l 527 0 l 308 0 l 308 341 l 0 972 l 250 972 l 406 609 q 429 530 411 599 l 432 530 q 453 607 440 579 l 612 972 l 844 972 m 432 1041 q 357 1068 386 1041 q 327 1134 327 1095 q 357 1200 327 1174 q 432 1225 387 1225 q 506 1200 477 1225 q 535 1134 535 1174 q 506 1067 535 1094 q 432 1041 477 1041 "},"ṝ":{"x_min":90.203125,"x_max":543.25,"ha":553,"o":"m 543 501 q 453 522 504 522 q 343 471 383 522 q 304 331 304 419 l 304 0 l 90 0 l 90 694 l 304 694 l 304 565 l 307 565 q 490 706 358 706 q 543 698 524 706 l 543 501 m 505 804 l 107 804 l 107 921 l 505 921 l 505 804 m 291 -265 q 216 -238 246 -265 q 187 -172 187 -210 q 216 -106 187 -131 q 291 -80 246 -80 q 365 -106 337 -80 q 394 -172 394 -132 q 365 -238 394 -212 q 291 -265 337 -265 "},"ӌ":{"x_min":82.0625,"x_max":743.328125,"ha":834,"o":"m 743 0 l 579 0 l 579 -169 l 417 -169 l 417 151 l 529 151 l 529 240 q 318 179 419 179 q 82 417 82 179 l 82 694 l 287 694 l 287 451 q 383 344 287 344 q 529 385 451 344 l 529 694 l 743 694 l 743 0 "},"Ȥ":{"x_min":27.8125,"x_max":876.265625,"ha":843,"o":"m 838 -236 l 641 -236 q 680 -109 680 -162 q 540 0 680 0 l 27 0 l 27 126 l 526 794 l 63 794 l 63 972 l 809 972 l 809 849 l 322 177 l 569 177 q 876 -65 876 177 q 838 -236 876 -153 "},"ʋ":{"x_min":70.53125,"x_max":800.296875,"ha":849,"o":"m 70 694 l 284 694 l 284 330 q 426 161 284 161 q 543 214 501 161 q 584 365 584 267 q 486 547 584 547 q 412 530 451 547 l 412 694 q 527 711 461 711 q 728 622 657 711 q 800 369 800 533 q 698 88 800 193 q 416 -16 596 -16 q 70 318 70 -16 l 70 694 "},"ц":{"x_min":90.203125,"x_max":870.84375,"ha":905,"o":"m 870 -169 l 710 -169 l 710 0 l 90 0 l 90 694 l 304 694 l 304 151 l 544 151 l 544 694 l 759 694 l 759 151 l 870 151 l 870 -169 "},"w":{"x_min":10.859375,"x_max":1096.015625,"ha":1108,"o":"m 1096 694 l 895 0 l 670 0 l 568 406 q 556 495 558 447 l 552 495 q 539 409 548 442 l 429 0 l 206 0 l 10 694 l 229 694 l 324 241 q 335 164 331 209 l 339 164 q 351 244 342 211 l 470 694 l 674 694 l 781 241 q 791 162 786 224 l 796 162 q 807 241 799 202 l 897 694 l 1096 694 "},"Ԅ":{"x_min":21.03125,"x_max":1069.5625,"ha":1153,"o":"m 1069 290 q 985 66 1069 150 q 756 -16 900 -16 q 434 282 460 -16 q 233 416 423 416 l 108 416 l 108 580 l 227 580 q 406 706 406 580 q 254 822 406 822 q 21 752 145 822 l 21 931 q 297 988 145 988 q 544 922 456 988 q 632 743 632 856 q 582 592 632 654 q 440 508 532 530 l 440 505 q 661 278 652 477 q 756 164 666 164 q 849 282 849 164 l 849 585 l 1069 585 l 1069 290 "},"о":{"x_min":48.828125,"x_max":800.296875,"ha":849,"o":"m 421 -16 q 148 80 247 -16 q 48 344 48 177 q 151 614 48 516 q 430 711 255 711 q 701 614 603 711 q 800 356 800 516 q 698 83 800 183 q 421 -16 597 -16 m 426 547 q 308 495 350 547 q 266 347 266 442 q 427 147 266 147 q 581 352 581 147 q 426 547 581 547 "},"Д":{"x_min":26.453125,"x_max":1026.15625,"ha":1076,"o":"m 1026 -219 l 847 -219 l 847 0 l 202 0 l 202 -219 l 26 -219 l 26 179 l 116 179 q 324 972 305 519 l 887 972 l 887 179 l 1026 179 l 1026 -219 m 668 179 l 668 790 l 502 790 q 450 485 494 654 q 341 179 406 316 l 668 179 "},"Ϡ":{"x_min":-27.8125,"x_max":927.8125,"ha":978,"o":"m 829 0 l 580 0 q 708 375 701 177 l 458 200 l 365 333 l 680 554 q 633 647 663 600 l 305 417 l 212 551 l 516 763 q 388 800 455 800 q 212 750 292 800 q 84 612 132 699 l -27 772 q 396 988 128 988 q 777 818 628 988 q 927 416 927 649 q 829 0 927 205 "},"ӣ":{"x_min":90.203125,"x_max":780.640625,"ha":872,"o":"m 780 0 l 585 0 l 585 454 q 529 355 559 400 l 293 0 l 90 0 l 90 694 l 286 694 l 286 254 q 333 339 307 299 l 569 694 l 780 694 l 780 0 m 627 804 l 229 804 l 229 921 l 627 921 l 627 804 "},"Ḯ":{"x_min":-59.03125,"x_max":506.609375,"ha":440,"o":"m 330 0 l 111 0 l 111 972 l 330 972 l 330 0 m 455 1357 l 276 1190 l 142 1190 l 264 1357 l 455 1357 m 415 1062 q 350 1086 375 1062 q 324 1144 324 1109 q 350 1202 324 1180 q 415 1224 375 1224 q 480 1202 455 1224 q 506 1144 506 1179 q 481 1085 506 1108 q 415 1062 456 1062 m 31 1062 q -33 1086 -7 1062 q -59 1144 -59 1109 q -33 1202 -59 1180 q 31 1224 -7 1224 q 97 1202 71 1224 q 123 1144 123 1179 q 98 1085 123 1108 q 31 1062 73 1062 "},"Ӂ":{"x_min":-6.78125,"x_max":1384.9375,"ha":1379,"o":"m 1384 0 l 1112 0 l 825 419 q 798 467 813 435 l 796 467 l 796 0 l 581 0 l 581 467 l 579 467 q 552 419 572 452 l 265 0 l -6 0 l 364 507 l 21 972 l 282 972 l 552 565 q 579 520 569 539 l 581 520 l 581 972 l 796 972 l 796 520 l 798 520 q 825 565 808 540 l 1096 972 l 1357 972 l 1013 507 l 1384 0 m 919 1270 q 849 1118 911 1174 q 688 1062 788 1062 q 527 1120 589 1062 q 462 1270 464 1178 l 583 1270 q 691 1179 595 1179 q 797 1270 784 1179 l 919 1270 "},"Ḁ":{"x_min":6.78125,"x_max":966.46875,"ha":977,"o":"m 966 0 l 727 0 l 658 216 l 312 216 l 244 0 l 6 0 l 360 972 l 620 972 l 966 0 m 608 384 l 503 711 q 487 798 492 748 l 482 798 q 465 714 478 756 l 359 384 l 608 384 m 487 -337 q 373 -297 418 -337 q 328 -191 328 -256 q 375 -82 328 -123 q 491 -41 422 -41 q 608 -82 563 -41 q 653 -187 653 -122 q 604 -295 653 -254 q 487 -337 556 -337 m 487 -125 q 422 -189 422 -125 q 487 -252 422 -252 q 538 -234 518 -252 q 557 -189 557 -215 q 538 -143 557 -161 q 487 -125 519 -125 "},"Ὁ":{"x_min":-5.390625,"x_max":1125.09375,"ha":1175,"o":"m 644 -16 q 303 119 435 -16 q 172 473 172 255 q 305 846 172 704 q 659 988 439 988 q 996 852 868 988 q 1125 493 1125 716 q 991 123 1125 263 q 644 -16 858 -16 m 653 800 q 470 713 538 800 q 402 484 402 627 q 470 256 402 340 q 648 172 538 172 q 828 253 761 172 q 894 480 894 335 q 830 716 894 632 q 653 800 765 800 m 184 740 l 148 683 q 37 766 80 711 q -5 880 -5 820 q 20 950 -5 923 q 90 976 46 976 q 151 955 128 976 q 175 899 175 933 q 154 850 175 871 q 103 826 132 828 q 184 740 122 775 "},"ɫ":{"x_min":6.78125,"x_max":587.34375,"ha":595,"o":"m 587 467 q 440 415 521 415 q 404 417 423 415 l 404 0 l 190 0 l 190 474 q 148 479 162 479 q 6 415 75 479 l 6 575 q 153 628 72 628 q 190 625 172 628 l 190 1028 l 404 1028 l 404 568 q 445 563 433 563 q 587 628 518 563 l 587 467 "},"Ĵ":{"x_min":22.375,"x_max":650.671875,"ha":619,"o":"m 516 385 q 426 86 516 190 q 164 -16 335 -16 q 22 9 87 -16 l 22 215 q 148 172 78 172 q 298 394 298 172 l 298 972 l 516 972 l 516 385 m 650 1062 l 510 1062 l 403 1189 l 303 1062 l 163 1062 l 322 1282 l 490 1282 l 650 1062 "},"Ẻ":{"x_min":111.234375,"x_max":694.5,"ha":739,"o":"m 694 0 l 111 0 l 111 972 l 672 972 l 672 794 l 330 794 l 330 577 l 648 577 l 648 400 l 330 400 l 330 177 l 694 177 l 694 0 m 432 1095 l 432 1062 l 337 1062 l 337 1146 q 418 1190 418 1151 q 362 1227 418 1227 q 309 1220 336 1227 l 309 1300 q 387 1304 370 1304 q 529 1197 529 1304 q 432 1095 529 1112 "},"Ҕ":{"x_min":111.234375,"x_max":861.34375,"ha":909,"o":"m 111 -248 l 111 -52 q 356 -104 244 -104 q 559 -33 489 -104 q 629 164 629 36 q 553 363 629 289 q 351 437 477 437 l 330 437 l 330 0 l 111 0 l 111 972 l 690 972 l 690 791 l 330 791 l 330 626 l 385 626 q 735 500 609 626 q 861 165 861 373 q 730 -162 861 -37 q 355 -287 600 -287 q 111 -248 229 -287 "},"ô":{"x_min":48.828125,"x_max":800.296875,"ha":849,"o":"m 421 -16 q 148 80 247 -16 q 48 344 48 177 q 151 614 48 516 q 430 711 255 711 q 701 614 603 711 q 800 356 800 516 q 698 83 800 183 q 421 -16 597 -16 m 426 547 q 308 495 350 547 q 266 347 266 442 q 427 147 266 147 q 581 352 581 147 q 426 547 581 547 m 669 804 l 529 804 l 422 931 l 322 804 l 182 804 l 341 1024 l 509 1024 l 669 804 "},"ҝ":{"x_min":90.203125,"x_max":808.4375,"ha":802,"o":"m 808 0 l 556 0 l 405 242 l 405 78 l 348 78 l 348 302 l 307 339 l 304 339 l 304 0 l 90 0 l 90 694 l 304 694 l 304 366 l 307 366 l 348 405 l 348 607 l 405 607 l 405 462 l 550 694 l 800 694 l 558 364 l 808 0 "},"г":{"x_min":90.203125,"x_max":543.25,"ha":570,"o":"m 543 531 l 304 531 l 304 0 l 90 0 l 90 694 l 543 694 l 543 531 "},"ấ":{"x_min":38.65625,"x_max":858.625,"ha":747,"o":"m 668 0 l 465 0 l 465 99 l 462 99 q 255 -16 392 -16 q 96 40 154 -16 q 38 193 38 97 q 278 426 38 395 l 466 451 q 343 565 466 565 q 107 491 219 565 l 107 653 q 229 693 151 676 q 370 711 307 711 q 668 415 668 711 l 668 0 m 466 282 l 466 328 l 340 312 q 236 218 236 299 q 261 158 236 181 q 330 134 286 134 q 428 176 390 134 q 466 282 466 218 m 858 1096 l 678 929 l 545 929 l 668 1096 l 858 1096 m 608 826 l 472 826 l 369 919 l 273 826 l 137 826 l 291 995 l 454 995 l 608 826 "},"Ŀ":{"x_min":111.234375,"x_max":690.4375,"ha":710,"o":"m 690 0 l 111 0 l 111 972 l 330 972 l 330 177 l 690 177 l 690 0 m 561 441 q 486 468 515 441 q 456 534 456 495 q 486 600 456 574 q 561 625 516 625 q 635 600 606 625 q 664 534 664 574 q 635 467 664 494 q 561 441 606 441 "},"ᾄ":{"x_min":49.515625,"x_max":858.625,"ha":884,"o":"m 858 694 l 713 356 l 826 0 l 612 0 l 580 145 l 576 145 q 333 -16 492 -16 q 126 76 203 -16 q 49 327 49 170 q 139 604 49 498 q 374 711 228 711 q 600 568 541 711 l 604 568 l 642 694 l 858 694 m 539 356 q 401 548 499 548 q 302 491 341 548 q 263 340 263 433 q 296 200 263 252 q 379 149 328 149 q 529 324 474 149 l 539 356 m 275 783 l 232 844 q 315 897 300 868 q 243 972 243 904 q 267 1027 243 1005 q 332 1049 292 1049 q 435 952 435 1049 q 275 783 435 840 m 698 1045 l 561 792 l 458 792 l 515 1045 l 698 1045 m 605 -255 q 462 -330 548 -330 q 325 -204 325 -330 l 325 -82 l 457 -82 l 457 -201 q 489 -237 457 -237 q 544 -204 518 -237 l 605 -255 "},"ᾙ":{"x_min":-4.390625,"x_max":1124.90625,"ha":1235,"o":"m 1124 0 l 905 0 l 905 396 l 502 396 l 502 0 l 283 0 l 283 972 l 502 972 l 502 584 l 905 584 l 905 972 l 1124 972 l 1124 0 m 185 740 l 149 683 q 38 766 81 711 q -4 880 -4 820 q 21 950 -4 923 q 91 976 47 976 q 152 955 129 976 q 176 899 176 933 q 155 850 176 871 q 104 826 133 828 q 185 740 123 775 m 915 -255 q 772 -330 858 -330 q 635 -204 635 -330 l 635 -82 l 767 -82 l 767 -201 q 799 -237 767 -237 q 854 -204 828 -237 l 915 -255 "},"Ἇ":{"x_min":-26.765625,"x_max":1214.46875,"ha":1224,"o":"m 1214 0 l 975 0 l 906 216 l 560 216 l 492 0 l 254 0 l 608 972 l 868 972 l 1214 0 m 856 384 l 751 711 q 735 798 740 748 l 730 798 q 713 714 726 756 l 607 384 l 856 384 m 481 805 l 363 805 q 227 883 331 883 q 91 805 124 883 l -26 805 q 65 940 -2 893 q 227 988 133 988 q 389 940 321 988 q 481 805 457 892 m 324 643 l 292 584 q 176 636 220 598 q 133 727 133 674 q 160 794 133 768 q 234 821 188 821 q 295 800 271 821 q 319 749 319 780 q 249 678 319 685 q 324 643 272 652 "},"Ἃ":{"x_min":-10.5625,"x_max":1214.46875,"ha":1224,"o":"m 1214 0 l 975 0 l 906 216 l 560 216 l 492 0 l 254 0 l 608 972 l 868 972 l 1214 0 m 856 384 l 751 711 q 735 798 740 748 l 730 798 q 713 714 726 756 l 607 384 l 856 384 m 192 771 l 149 710 q -10 879 -10 768 q 92 976 -10 976 q 156 955 132 976 q 181 899 181 933 q 109 824 181 831 q 192 771 125 795 m 435 719 l 332 719 l 195 972 l 378 972 l 435 719 "},"ṇ":{"x_min":90.203125,"x_max":760.96875,"ha":840,"o":"m 760 0 l 547 0 l 547 385 q 432 547 547 547 q 340 504 376 547 q 304 396 304 461 l 304 0 l 90 0 l 90 694 l 304 694 l 304 584 l 307 584 q 530 711 383 711 q 760 425 760 711 l 760 0 m 429 -265 q 354 -238 384 -265 q 325 -172 325 -210 q 354 -106 325 -131 q 429 -80 384 -80 q 503 -106 475 -80 q 532 -172 532 -132 q 503 -238 532 -212 q 429 -265 475 -265 "},"ʟ":{"x_min":90.203125,"x_max":560.890625,"ha":582,"o":"m 560 0 l 90 0 l 90 694 l 304 694 l 304 164 l 560 164 l 560 0 "},"Ǟ":{"x_min":6.78125,"x_max":966.46875,"ha":977,"o":"m 966 0 l 727 0 l 658 216 l 312 216 l 244 0 l 6 0 l 360 972 l 620 972 l 966 0 m 608 384 l 503 711 q 487 798 492 748 l 482 798 q 465 714 478 756 l 359 384 l 608 384 m 684 1276 l 287 1276 l 287 1393 l 684 1393 l 684 1276 m 620 1082 q 562 1103 585 1082 q 539 1155 539 1124 q 562 1207 539 1187 q 620 1227 584 1227 q 679 1207 656 1227 q 702 1155 702 1187 q 680 1103 702 1123 q 620 1082 658 1082 m 350 1082 q 291 1103 315 1082 q 268 1155 268 1124 q 292 1207 268 1187 q 350 1227 315 1227 q 409 1207 386 1227 q 433 1155 433 1187 q 410 1103 433 1123 q 350 1082 388 1082 "},"ь":{"x_min":90.203125,"x_max":737.234375,"ha":777,"o":"m 90 0 l 90 694 l 304 694 l 304 451 l 487 451 q 671 394 605 451 q 737 233 737 337 q 672 63 737 126 q 491 0 607 0 l 90 0 m 304 316 l 304 136 l 408 136 q 516 229 516 136 q 411 316 516 316 l 304 316 "},"Җ":{"x_min":-6.78125,"x_max":1404.59375,"ha":1449,"o":"m 1404 -219 l 1224 -219 l 1224 0 l 1112 0 l 825 419 q 798 467 813 435 l 796 467 l 796 0 l 581 0 l 581 467 l 579 467 q 552 419 572 452 l 265 0 l -6 0 l 364 507 l 21 972 l 282 972 l 552 565 q 579 520 569 539 l 581 520 l 581 972 l 796 972 l 796 520 l 798 520 q 825 565 808 540 l 1096 972 l 1357 972 l 1013 507 l 1247 187 l 1404 187 l 1404 -219 "},"ὑ":{"x_min":84.78125,"x_max":785.375,"ha":855,"o":"m 84 694 l 299 694 l 299 326 q 436 153 299 153 q 569 318 569 153 q 482 694 569 493 l 705 694 q 785 321 785 510 q 690 72 785 162 q 430 -16 596 -16 q 174 67 264 -16 q 84 301 84 151 l 84 694 m 470 829 l 434 772 q 323 855 366 800 q 280 969 280 909 q 306 1039 280 1012 q 376 1065 332 1065 q 437 1044 414 1065 q 461 988 461 1022 q 440 939 461 960 q 389 915 418 917 q 470 829 408 864 "},"€":{"x_min":73.921875,"x_max":741.96875,"ha":799,"o":"m 741 30 q 533 -18 661 -18 q 284 66 380 -18 q 156 307 187 150 l 73 307 l 73 436 l 139 436 q 137 476 137 453 q 140 531 137 488 l 73 531 l 73 658 l 160 658 q 301 902 197 815 q 559 988 404 988 q 741 951 672 988 l 741 775 q 569 834 666 834 q 438 786 495 834 q 358 658 381 738 l 647 658 l 647 531 l 337 531 q 335 476 335 491 q 336 436 335 457 l 647 436 l 647 307 l 356 307 q 559 136 407 136 q 741 197 655 136 l 741 30 "},"ƶ":{"x_min":16.953125,"x_max":640.25,"ha":665,"o":"m 640 0 l 16 0 l 16 88 l 169 284 l 92 284 l 92 416 l 271 416 l 365 536 l 51 536 l 51 694 l 637 694 l 637 588 l 505 416 l 598 416 l 598 284 l 404 284 l 307 158 l 640 158 l 640 0 "},"Ὦ":{"x_min":-25.765625,"x_max":1406.15625,"ha":1462,"o":"m 1170 177 l 1404 177 l 1404 0 l 997 0 l 997 176 q 1175 533 1175 329 q 1106 727 1175 654 q 933 800 1037 800 q 756 727 825 800 q 686 524 686 654 q 724 348 686 430 q 861 176 761 266 l 861 0 l 454 0 l 454 177 l 685 177 q 455 562 455 310 q 588 872 455 755 q 929 988 720 988 q 1275 871 1144 988 q 1406 565 1406 754 q 1170 177 1406 309 m 482 805 l 364 805 q 228 883 332 883 q 92 805 125 883 l -25 805 q 66 940 -1 893 q 228 988 134 988 q 390 940 322 988 q 482 805 458 892 m 168 584 l 137 643 q 212 678 189 652 q 142 749 142 685 q 166 800 142 780 q 227 821 189 821 q 299 794 271 821 q 327 727 327 768 q 284 636 327 674 q 168 584 241 598 "},"Ἀ":{"x_min":-10.390625,"x_max":1005.46875,"ha":1014,"o":"m 1005 0 l 766 0 l 697 216 l 351 216 l 283 0 l 45 0 l 399 972 l 659 972 l 1005 0 m 647 384 l 542 711 q 526 798 531 748 l 521 798 q 504 714 517 756 l 398 384 l 647 384 m 25 683 l -10 740 q 71 826 52 776 q 20 850 41 828 q 0 899 0 871 q 22 955 0 933 q 83 976 45 976 q 153 950 127 976 q 179 880 179 923 q 136 766 179 820 q 25 683 93 711 "},"С":{"x_min":50.1875,"x_max":808.4375,"ha":867,"o":"m 808 34 q 530 -16 701 -16 q 178 114 306 -16 q 50 465 50 246 q 194 843 50 698 q 568 988 338 988 q 808 952 710 988 l 808 741 q 585 800 710 800 q 364 714 448 800 q 280 480 280 628 q 360 256 280 339 q 573 172 439 172 q 808 234 701 172 l 808 34 "},"ß":{"x_min":90.203125,"x_max":832.171875,"ha":872,"o":"m 369 5 l 369 183 q 489 147 425 147 q 578 182 545 147 q 612 280 612 218 q 552 405 612 359 q 381 454 491 451 l 381 604 q 498 650 457 609 q 540 758 540 691 q 510 847 540 815 q 429 880 480 880 q 304 714 304 880 l 304 0 l 90 0 l 90 711 q 183 953 90 862 q 441 1044 276 1044 q 674 970 588 1044 q 759 779 759 895 q 711 634 759 696 q 585 548 662 571 l 585 545 q 832 275 832 499 q 746 68 832 153 q 514 -16 660 -16 q 369 5 442 -16 "},"ǩ":{"x_min":90.203125,"x_max":786.0625,"ha":777,"o":"m 786 0 l 529 0 l 307 344 l 304 344 l 304 0 l 90 0 l 90 1028 l 304 1028 l 304 373 l 307 373 l 514 694 l 768 694 l 519 368 l 786 0 m 658 1276 l 496 1056 l 328 1056 l 169 1276 l 308 1276 l 413 1149 l 519 1276 l 658 1276 "},"Ӓ":{"x_min":6.78125,"x_max":966.46875,"ha":977,"o":"m 966 0 l 727 0 l 658 216 l 312 216 l 244 0 l 6 0 l 360 972 l 620 972 l 966 0 m 608 384 l 503 711 q 487 798 492 748 l 482 798 q 465 714 478 756 l 359 384 l 608 384 m 629 1039 q 554 1065 583 1039 q 525 1132 525 1092 q 554 1199 525 1173 q 629 1225 583 1225 q 704 1199 674 1225 q 733 1132 733 1172 q 704 1065 733 1091 q 629 1039 675 1039 m 318 1039 q 243 1066 272 1039 q 214 1132 214 1092 q 244 1199 214 1172 q 318 1225 274 1225 q 393 1199 364 1225 q 422 1132 422 1172 q 393 1065 422 1090 q 318 1039 364 1039 "},"Ὕ":{"x_min":-11.125,"x_max":1324.390625,"ha":1324,"o":"m 1324 972 l 1007 345 l 1007 0 l 788 0 l 788 341 l 480 972 l 730 972 l 886 609 q 909 530 891 599 l 912 530 q 933 607 920 579 l 1092 972 l 1324 972 m 191 771 l 148 710 q -11 879 -11 767 q 91 976 -11 976 q 156 954 131 976 q 180 899 180 932 q 108 824 180 831 q 191 771 124 795 m 462 972 l 325 719 l 222 719 l 279 972 l 462 972 "},"ẳ":{"x_min":38.65625,"x_max":668.046875,"ha":747,"o":"m 668 0 l 465 0 l 465 99 l 462 99 q 255 -16 392 -16 q 96 40 154 -16 q 38 193 38 97 q 278 426 38 395 l 466 451 q 343 565 466 565 q 107 491 219 565 l 107 653 q 229 693 151 676 q 370 711 307 711 q 668 415 668 711 l 668 0 m 466 282 l 466 328 l 340 312 q 236 218 236 299 q 261 158 236 181 q 330 134 286 134 q 428 176 390 134 q 466 282 466 218 m 442 1013 l 442 980 l 348 980 l 348 1065 q 428 1108 428 1070 q 373 1146 428 1146 q 320 1138 350 1146 l 320 1218 q 397 1222 381 1222 q 539 1115 539 1222 q 442 1013 539 1030 m 614 996 q 550 872 607 918 q 399 826 492 826 q 246 874 305 826 q 185 996 188 921 l 295 996 q 402 929 305 929 q 504 996 494 929 l 614 996 "},"Ű":{"x_min":99.703125,"x_max":904.078125,"ha":1004,"o":"m 904 421 q 495 -16 904 -16 q 99 411 99 -16 l 99 972 l 319 972 l 319 408 q 503 172 319 172 q 685 400 685 172 l 685 972 l 904 972 l 904 421 m 828 1278 l 657 1062 l 514 1062 l 659 1278 l 828 1278 m 571 1278 l 403 1062 l 260 1062 l 403 1278 l 571 1278 "},"¶":{"x_min":62.390625,"x_max":641.59375,"ha":707,"o":"m 641 862 l 562 862 l 562 0 l 444 0 l 444 862 l 364 862 l 364 0 l 244 0 l 244 567 q 114 629 166 571 q 62 772 62 687 q 120 916 62 859 q 263 972 178 972 l 641 972 l 641 862 "},"Ή":{"x_min":-33.8125,"x_max":1122.90625,"ha":1235,"o":"m 1122 0 l 903 0 l 903 396 l 500 396 l 500 0 l 281 0 l 281 972 l 500 972 l 500 584 l 903 584 l 903 972 l 1122 972 l 1122 0 m 221 972 l 80 742 l -33 742 l 30 972 l 221 972 "},"Ὅ":{"x_min":-9.125,"x_max":1378.09375,"ha":1430,"o":"m 897 -16 q 556 119 688 -16 q 425 473 425 255 q 558 846 425 704 q 912 988 692 988 q 1249 852 1121 988 q 1378 493 1378 716 q 1244 123 1378 263 q 897 -16 1111 -16 m 906 800 q 723 713 791 800 q 655 484 655 627 q 723 256 655 340 q 901 172 791 172 q 1081 253 1014 172 q 1147 480 1147 335 q 1083 716 1147 632 q 906 800 1018 800 m 193 771 l 150 710 q -9 879 -9 767 q 93 976 -9 976 q 158 954 133 976 q 182 899 182 932 q 110 824 182 831 q 193 771 126 795 m 464 972 l 327 719 l 224 719 l 281 972 l 464 972 "},"Ụ":{"x_min":99.703125,"x_max":904.078125,"ha":1004,"o":"m 904 421 q 495 -16 904 -16 q 99 411 99 -16 l 99 972 l 319 972 l 319 408 q 503 172 319 172 q 685 400 685 172 l 685 972 l 904 972 l 904 421 m 495 -265 q 420 -238 450 -265 q 391 -172 391 -210 q 420 -106 391 -131 q 495 -80 450 -80 q 569 -106 541 -80 q 598 -172 598 -132 q 569 -238 598 -212 q 495 -265 541 -265 "},"­":{"x_min":96.984375,"x_max":467.96875,"ha":555,"o":"m 467 343 l 96 343 l 96 430 l 467 430 l 467 343 "},"Ὴ":{"x_min":-46.265625,"x_max":1122.90625,"ha":1235,"o":"m 1122 0 l 903 0 l 903 396 l 500 396 l 500 0 l 281 0 l 281 972 l 500 972 l 500 584 l 903 584 l 903 972 l 1122 972 l 1122 0 m 208 742 l 94 742 l -46 972 l 143 972 l 208 742 "},"ḳ":{"x_min":90.203125,"x_max":786.0625,"ha":777,"o":"m 786 0 l 529 0 l 307 344 l 304 344 l 304 0 l 90 0 l 90 1028 l 304 1028 l 304 373 l 307 373 l 514 694 l 768 694 l 519 368 l 786 0 m 419 -265 q 344 -238 374 -265 q 315 -172 315 -210 q 344 -106 315 -131 q 419 -80 374 -80 q 493 -106 465 -80 q 522 -172 522 -132 q 493 -238 522 -212 q 419 -265 465 -265 "},"ѫ":{"x_min":4.0625,"x_max":891.859375,"ha":896,"o":"m 891 0 l 712 0 q 661 127 680 91 q 613 190 642 164 q 539 238 583 217 l 539 0 l 352 0 l 352 236 q 252 160 282 201 q 181 0 223 118 l 4 0 q 116 239 58 170 q 282 355 174 308 l 65 694 l 833 694 l 611 356 q 779 240 720 309 q 891 0 837 170 m 550 563 l 359 563 l 433 423 q 454 370 446 399 l 457 370 q 478 422 463 393 l 550 563 "},":":{"x_min":62.390625,"x_max":314.015625,"ha":376,"o":"m 185 479 q 97 511 132 479 q 62 591 62 543 q 98 671 62 640 q 189 702 134 702 q 279 671 244 702 q 314 591 314 639 q 278 510 314 541 q 185 479 242 479 m 185 -16 q 97 15 132 -16 q 62 95 62 48 q 98 175 62 144 q 189 206 134 206 q 279 175 244 206 q 314 95 314 143 q 278 14 314 46 q 185 -16 242 -16 "},"Ѝ":{"x_min":111.234375,"x_max":986.140625,"ha":1098,"o":"m 986 0 l 779 0 l 779 534 q 786 691 779 626 l 781 691 q 733 611 767 663 l 331 0 l 111 0 l 111 972 l 318 972 l 318 434 q 312 301 318 335 l 315 301 q 365 380 318 309 l 751 972 l 986 972 l 986 0 m 725 1041 l 571 1041 l 358 1260 l 548 1260 l 725 1041 "},"ǲ":{"x_min":111.234375,"x_max":1654.25,"ha":1679,"o":"m 111 0 l 111 972 l 455 972 q 973 498 973 972 q 832 135 973 271 q 455 0 691 0 l 111 0 m 330 794 l 330 177 l 438 177 q 662 263 581 177 q 743 495 743 348 q 662 714 743 634 q 437 794 582 794 l 330 794 m 1654 0 l 1030 0 l 1030 88 l 1379 536 l 1065 536 l 1065 694 l 1651 694 l 1651 588 l 1321 158 l 1654 158 l 1654 0 "},"ẇ":{"x_min":10.859375,"x_max":1096.015625,"ha":1108,"o":"m 1096 694 l 895 0 l 670 0 l 568 406 q 556 495 558 447 l 552 495 q 539 409 548 442 l 429 0 l 206 0 l 10 694 l 229 694 l 324 241 q 335 164 331 209 l 339 164 q 351 244 342 211 l 470 694 l 674 694 l 781 241 q 791 162 786 224 l 796 162 q 807 241 799 202 l 897 694 l 1096 694 m 573 804 q 498 831 527 804 q 468 897 468 858 q 498 963 468 937 q 573 988 528 988 q 647 963 618 988 q 676 897 676 937 q 647 830 676 857 q 573 804 618 804 "},"Ƨ":{"x_min":40.015625,"x_max":680.9375,"ha":746,"o":"m 673 245 l 673 37 q 409 -16 573 -16 q 135 59 230 -16 q 40 266 40 135 q 96 425 40 356 q 295 567 152 495 q 419 645 392 615 q 446 718 446 676 q 409 789 446 762 q 309 816 373 816 q 87 751 181 816 l 87 944 q 323 988 181 988 q 583 911 485 988 q 680 706 680 833 q 455 415 680 526 q 308 322 335 355 q 280 254 280 290 q 416 155 280 155 q 673 245 567 155 "},"У":{"x_min":15.59375,"x_max":859.984375,"ha":854,"o":"m 859 972 l 555 305 q 394 50 470 118 q 201 -16 318 -16 q 75 5 124 -16 l 75 205 q 190 169 130 169 q 335 302 272 169 l 15 972 l 265 972 l 426 583 q 448 503 440 548 l 450 503 q 473 580 457 540 l 629 972 l 859 972 "},"ᾢ":{"x_min":62.390625,"x_max":1092.609375,"ha":1155,"o":"m 577 103 l 575 103 q 361 -16 509 -16 q 142 76 221 -16 q 62 327 62 168 q 149 694 62 500 l 367 694 q 263 326 263 493 q 371 154 263 154 q 477 318 477 154 l 477 508 l 678 508 l 678 318 q 782 154 678 154 q 890 326 890 154 q 786 694 890 493 l 1004 694 q 1092 326 1092 499 q 1011 75 1092 166 q 791 -16 931 -16 q 577 103 641 -16 m 376 783 l 333 844 q 416 897 400 868 q 344 972 344 904 q 368 1028 344 1006 q 433 1049 393 1049 q 535 952 535 1049 q 376 783 535 840 m 790 792 l 687 792 l 550 1045 l 733 1045 l 790 792 m 791 -255 q 648 -330 734 -330 q 511 -204 511 -330 l 511 -82 l 643 -82 l 643 -201 q 675 -237 643 -237 q 730 -204 704 -237 l 791 -255 "},"ү":{"x_min":-2.71875,"x_max":751.46875,"ha":747,"o":"m 751 694 l 491 0 l 491 -319 l 278 -319 l 278 1 l -2 694 l 234 694 l 364 271 q 383 179 376 232 l 385 179 q 408 270 392 218 l 539 694 l 751 694 "},"Ί":{"x_min":-32.8125,"x_max":501.296875,"ha":612,"o":"m 501 0 l 282 0 l 282 972 l 501 972 l 501 0 m 222 972 l 81 742 l -32 742 l 31 972 l 222 972 "},"Ģ":{"x_min":50.1875,"x_max":909.5,"ha":988,"o":"m 909 65 q 555 -16 767 -16 q 185 112 320 -16 q 50 470 50 242 q 198 844 50 699 q 591 988 345 988 q 864 946 746 988 l 864 740 q 588 805 751 805 q 366 717 452 805 q 280 480 280 628 q 357 248 280 330 q 565 166 434 166 q 690 189 644 166 l 690 379 l 495 379 l 495 554 l 909 554 l 909 65 m 659 -75 l 545 -313 l 413 -313 l 474 -75 l 659 -75 "},"ᾇ":{"x_min":49.515625,"x_max":858.625,"ha":884,"o":"m 858 694 l 713 356 l 826 0 l 612 0 l 580 145 l 576 145 q 333 -16 492 -16 q 126 76 203 -16 q 49 327 49 170 q 139 604 49 498 q 374 711 228 711 q 600 568 541 711 l 604 568 l 642 694 l 858 694 m 539 356 q 401 548 499 548 q 302 491 341 548 q 263 340 263 433 q 296 200 263 252 q 379 149 328 149 q 529 324 474 149 l 539 356 m 664 996 l 546 996 q 410 1074 514 1074 q 274 996 307 1074 l 156 996 q 248 1131 180 1084 q 410 1179 316 1179 q 572 1131 504 1179 q 664 996 640 1083 m 507 834 l 475 775 q 359 827 403 789 q 316 918 316 865 q 343 985 316 959 q 417 1012 371 1012 q 478 991 454 1012 q 502 940 502 971 q 432 869 502 876 q 507 834 455 843 m 605 -255 q 462 -330 548 -330 q 325 -204 325 -330 l 325 -82 l 457 -82 l 457 -201 q 489 -237 457 -237 q 544 -204 518 -237 l 605 -255 "},"m":{"x_min":90.203125,"x_max":1193,"ha":1272,"o":"m 1193 0 l 979 0 l 979 396 q 868 547 979 547 q 781 501 815 547 q 748 388 748 456 l 748 0 l 534 0 l 534 400 q 425 547 534 547 q 337 503 370 547 q 304 385 304 460 l 304 0 l 90 0 l 90 694 l 304 694 l 304 585 l 307 585 q 400 676 340 641 q 531 711 460 711 q 733 581 678 711 q 966 711 812 711 q 1193 432 1193 711 l 1193 0 "},"Ị":{"x_min":111.234375,"x_max":330.296875,"ha":440,"o":"m 330 0 l 111 0 l 111 972 l 330 972 l 330 0 m 221 -265 q 146 -238 176 -265 q 117 -172 117 -210 q 146 -106 117 -131 q 221 -80 176 -80 q 295 -106 267 -80 q 324 -172 324 -132 q 295 -238 324 -212 q 221 -265 267 -265 "},"ǌ":{"x_min":90.203125,"x_max":1174.15625,"ha":1246,"o":"m 760 0 l 547 0 l 547 385 q 432 547 547 547 q 340 504 376 547 q 304 396 304 461 l 304 0 l 90 0 l 90 694 l 304 694 l 304 584 l 307 584 q 530 711 383 711 q 760 425 760 711 l 760 0 m 1050 804 q 961 836 996 804 q 927 915 927 868 q 961 994 927 963 q 1050 1024 996 1024 q 1139 994 1105 1024 q 1174 915 1174 963 q 1139 835 1174 866 q 1050 804 1105 804 m 1156 12 q 1081 -233 1156 -141 q 864 -326 1005 -326 q 761 -305 817 -326 l 761 -137 q 841 -162 806 -162 q 942 -4 942 -162 l 942 694 l 1156 694 l 1156 12 "},"⁵":{"x_min":90.875,"x_max":471.359375,"ha":562,"o":"m 90 408 l 90 532 q 225 491 160 491 q 326 572 326 491 q 210 650 326 650 q 107 642 171 650 l 107 973 l 444 973 l 444 857 l 231 857 l 231 758 q 272 760 257 760 q 418 712 365 760 q 471 583 471 664 q 408 438 471 495 q 239 381 345 381 q 90 408 152 381 "},"ớ":{"x_min":48.828125,"x_max":862.703125,"ha":875,"o":"m 707 608 q 800 356 800 512 q 698 83 800 183 q 421 -16 597 -16 q 148 80 247 -16 q 48 344 48 177 q 151 614 48 516 q 430 711 255 711 q 534 701 476 711 q 609 694 573 694 q 729 790 729 694 q 716 865 729 824 l 847 865 q 862 776 862 818 q 707 608 862 623 m 426 547 q 308 495 350 547 q 266 347 266 442 q 427 147 266 147 q 581 352 581 147 q 426 547 581 547 m 653 1023 l 440 804 l 286 804 l 462 1023 l 653 1023 "},"ὀ":{"x_min":48.828125,"x_max":800.296875,"ha":849,"o":"m 421 -16 q 148 80 247 -16 q 48 344 48 177 q 151 614 48 516 q 430 711 255 711 q 701 614 603 711 q 800 356 800 516 q 698 83 800 183 q 421 -16 597 -16 m 426 547 q 308 495 350 547 q 266 347 266 442 q 427 147 266 147 q 581 352 581 147 q 426 547 581 547 m 365 772 l 329 829 q 411 915 392 865 q 360 939 381 917 q 339 988 339 960 q 362 1044 339 1022 q 423 1065 385 1065 q 493 1039 467 1065 q 519 969 519 1012 q 476 855 519 909 q 365 772 433 800 "},"á":{"x_min":38.65625,"x_max":668.046875,"ha":747,"o":"m 668 0 l 465 0 l 465 99 l 462 99 q 255 -16 392 -16 q 96 40 154 -16 q 38 193 38 97 q 278 426 38 395 l 466 451 q 343 565 466 565 q 107 491 219 565 l 107 653 q 229 693 151 676 q 370 711 307 711 q 668 415 668 711 l 668 0 m 466 282 l 466 328 l 340 312 q 236 218 236 299 q 261 158 236 181 q 330 134 286 134 q 428 176 390 134 q 466 282 466 218 m 604 1023 l 391 804 l 237 804 l 413 1023 l 604 1023 "},"Ӱ":{"x_min":15.59375,"x_max":859.984375,"ha":854,"o":"m 859 972 l 555 305 q 394 50 470 118 q 201 -16 318 -16 q 75 5 124 -16 l 75 205 q 190 169 130 169 q 335 302 272 169 l 15 972 l 265 972 l 426 583 q 448 503 440 548 l 450 503 q 473 580 457 540 l 629 972 l 859 972 m 609 1062 q 534 1088 563 1062 q 505 1155 505 1115 q 534 1222 505 1196 q 609 1248 563 1248 q 684 1222 654 1248 q 713 1155 713 1195 q 684 1088 713 1114 q 609 1062 655 1062 m 298 1062 q 223 1089 252 1062 q 194 1155 194 1115 q 224 1222 194 1195 q 298 1248 254 1248 q 373 1222 344 1248 q 402 1155 402 1195 q 373 1088 402 1113 q 298 1062 344 1062 "},"K":{"x_min":111.234375,"x_max":919.671875,"ha":901,"o":"m 919 0 l 642 0 l 359 422 q 333 476 351 434 l 330 476 l 330 0 l 111 0 l 111 972 l 330 972 l 330 512 l 333 512 q 360 567 341 531 l 629 972 l 890 972 l 551 508 l 919 0 "},"7":{"x_min":65.109375,"x_max":741.96875,"ha":799,"o":"m 741 873 l 398 0 l 172 0 l 518 797 l 65 797 l 65 972 l 741 972 l 741 873 "},"¨":{"x_min":58.328125,"x_max":577.84375,"ha":642,"o":"m 473 804 q 398 830 427 804 q 369 897 369 857 q 398 964 369 938 q 473 990 427 990 q 548 964 518 990 q 577 897 577 937 q 548 830 577 856 q 473 804 519 804 m 162 804 q 87 831 116 804 q 58 897 58 857 q 88 964 58 937 q 162 990 118 990 q 237 964 208 990 q 266 897 266 937 q 237 830 266 855 q 162 804 208 804 "},"Y":{"x_min":0,"x_max":844.390625,"ha":843,"o":"m 844 972 l 527 345 l 527 0 l 308 0 l 308 341 l 0 972 l 250 972 l 406 609 q 429 530 411 599 l 432 530 q 453 607 440 579 l 612 972 l 844 972 "},"E":{"x_min":111.234375,"x_max":694.5,"ha":739,"o":"m 694 0 l 111 0 l 111 972 l 672 972 l 672 794 l 330 794 l 330 577 l 648 577 l 648 400 l 330 400 l 330 177 l 694 177 l 694 0 "},"Ô":{"x_min":50.1875,"x_max":1003.09375,"ha":1053,"o":"m 522 -16 q 181 119 313 -16 q 50 473 50 255 q 183 846 50 704 q 537 988 317 988 q 874 852 746 988 q 1003 493 1003 716 q 869 123 1003 263 q 522 -16 736 -16 m 531 800 q 348 713 416 800 q 280 484 280 627 q 348 256 280 340 q 526 172 416 172 q 706 253 639 172 q 772 480 772 335 q 708 716 772 632 q 531 800 643 800 m 779 1062 l 639 1062 l 532 1189 l 432 1062 l 292 1062 l 451 1282 l 619 1282 l 779 1062 "},"έ":{"x_min":45.4375,"x_max":598.875,"ha":643,"o":"m 598 172 l 598 14 q 350 -16 493 -16 q 125 35 206 -16 q 45 184 45 88 q 201 356 45 318 l 201 359 q 108 416 145 373 q 70 516 70 459 q 146 660 70 609 q 364 711 223 711 q 569 683 477 711 l 569 526 q 393 567 470 567 q 288 499 288 567 q 427 419 288 419 q 507 424 474 419 l 507 283 q 408 287 470 287 q 263 206 263 287 q 398 127 263 127 q 598 172 495 127 m 523 1022 l 382 792 l 268 792 l 332 1022 l 523 1022 "},"ὺ":{"x_min":84.78125,"x_max":785.375,"ha":855,"o":"m 84 694 l 299 694 l 299 326 q 436 153 299 153 q 569 318 569 153 q 482 694 569 493 l 705 694 q 785 321 785 510 q 690 72 785 162 q 430 -16 596 -16 q 174 67 264 -16 q 84 301 84 151 l 84 694 m 471 792 l 357 792 l 216 1022 l 406 1022 l 471 792 "},"Ƥ":{"x_min":-34.59375,"x_max":1030.90625,"ha":1063,"o":"m 539 335 l 539 0 l 319 0 l 319 804 l 288 804 q 196 767 230 804 q 161 676 161 731 q 176 591 161 634 l -18 591 q -34 691 -34 635 q 55 891 -34 810 q 297 972 145 972 l 662 972 q 1030 662 1030 972 q 925 425 1030 516 q 642 335 819 335 l 539 335 m 539 804 l 539 501 l 625 501 q 800 654 800 501 q 625 804 800 804 l 539 804 "},"Є":{"x_min":50.1875,"x_max":807.078125,"ha":866,"o":"m 807 34 q 529 -16 700 -16 q 176 114 303 -16 q 50 465 50 246 q 185 848 50 707 q 552 988 321 988 q 807 952 700 988 l 807 751 q 568 809 704 809 q 377 747 450 809 q 288 569 305 684 l 663 569 l 663 396 l 290 396 q 376 223 304 284 q 565 162 447 162 q 807 225 700 162 l 807 34 "},"Ï":{"x_min":-35.671875,"x_max":483.84375,"ha":440,"o":"m 330 0 l 111 0 l 111 972 l 330 972 l 330 0 m 379 1062 q 304 1088 333 1062 q 275 1155 275 1115 q 304 1222 275 1196 q 379 1248 333 1248 q 454 1222 424 1248 q 483 1155 483 1195 q 454 1088 483 1114 q 379 1062 425 1062 m 68 1062 q -6 1089 22 1062 q -35 1155 -35 1115 q -5 1222 -35 1195 q 68 1248 24 1248 q 143 1222 114 1248 q 172 1155 172 1195 q 143 1088 172 1113 q 68 1062 114 1062 "},"Ѷ":{"x_min":6.78125,"x_max":1140.09375,"ha":1150,"o":"m 1140 735 l 952 735 q 901 809 949 809 q 833 735 858 809 l 585 0 l 337 0 l 6 972 l 242 972 l 445 295 q 465 198 461 240 l 469 198 q 490 298 474 242 l 628 763 q 898 988 694 988 q 1071 922 1008 988 q 1140 735 1135 855 m 722 1062 l 578 1062 l 411 1279 l 578 1279 l 722 1062 m 468 1062 l 325 1062 l 154 1279 l 323 1279 l 468 1062 "},"Ȅ":{"x_min":29.375,"x_max":694.5,"ha":739,"o":"m 694 0 l 111 0 l 111 972 l 672 972 l 672 794 l 330 794 l 330 577 l 648 577 l 648 400 l 330 400 l 330 177 l 694 177 l 694 0 m 597 1063 l 453 1063 l 286 1280 l 453 1280 l 597 1063 m 343 1063 l 200 1063 l 29 1280 l 198 1280 l 343 1063 "},"ῶ":{"x_min":62.390625,"x_max":1092.609375,"ha":1155,"o":"m 577 103 l 575 103 q 361 -16 509 -16 q 142 76 221 -16 q 62 327 62 168 q 149 694 62 500 l 367 694 q 263 326 263 493 q 371 154 263 154 q 477 318 477 154 l 477 508 l 678 508 l 678 318 q 782 154 678 154 q 890 326 890 154 q 786 694 890 493 l 1004 694 q 1092 326 1092 499 q 1011 75 1092 166 q 791 -16 931 -16 q 577 103 641 -16 m 802 797 l 680 797 q 572 889 668 889 q 467 797 480 889 l 345 797 q 414 949 353 893 q 575 1005 475 1005 q 737 947 674 1005 q 802 797 799 889 "},"ứ":{"x_min":79.359375,"x_max":940.015625,"ha":928,"o":"m 750 603 l 750 0 l 536 0 l 536 105 l 533 105 q 320 -16 453 -16 q 79 275 79 -16 l 79 694 l 293 694 l 293 294 q 409 147 293 147 q 501 187 467 147 q 536 297 536 227 l 536 694 l 731 694 q 816 794 816 694 q 804 865 816 824 l 929 865 q 940 786 940 832 q 890 657 940 706 q 750 603 840 608 m 657 1023 l 444 804 l 290 804 l 466 1023 l 657 1023 "},"έ":{"x_min":45.4375,"x_max":598.875,"ha":643,"o":"m 598 172 l 598 14 q 350 -16 493 -16 q 125 35 206 -16 q 45 184 45 88 q 201 356 45 318 l 201 359 q 108 416 145 373 q 70 516 70 459 q 146 660 70 609 q 364 711 223 711 q 569 683 477 711 l 569 526 q 393 567 470 567 q 288 499 288 567 q 427 419 288 419 q 507 424 474 419 l 507 283 q 408 287 470 287 q 263 206 263 287 q 398 127 263 127 q 598 172 495 127 m 524 1022 l 383 792 l 269 792 l 333 1022 l 524 1022 "},"ȴ":{"x_min":37.296875,"x_max":676.1875,"ha":468,"o":"m 240 -265 q 218 -326 227 -293 l 37 -326 q 126 -127 64 -217 q 90 54 90 -47 l 90 1028 l 304 1028 l 304 58 q 305 21 304 41 q 442 52 373 52 q 609 0 541 52 q 676 -130 676 -53 q 608 -265 676 -212 q 430 -319 539 -319 q 240 -265 321 -319 m 351 -126 q 440 -170 386 -170 q 502 -133 502 -170 q 444 -95 502 -95 q 351 -126 395 -95 "},"Ɖ":{"x_min":0,"x_max":973.921875,"ha":1024,"o":"m 111 0 l 111 397 l 0 397 l 0 577 l 111 577 l 111 972 l 455 972 q 973 498 973 972 q 832 135 973 271 q 455 0 691 0 l 111 0 m 330 794 l 330 577 l 514 577 l 514 397 l 330 397 l 330 177 l 438 177 q 662 263 581 177 q 743 495 743 348 q 662 714 743 634 q 437 794 582 794 l 330 794 "},"ἰ":{"x_min":104.453125,"x_max":442.875,"ha":456,"o":"m 442 9 q 317 -12 394 -12 q 104 214 104 -12 l 104 694 l 318 694 l 318 246 q 378 158 318 158 q 442 173 408 158 l 442 9 m 157 772 l 121 829 q 203 915 184 865 q 152 939 173 917 q 131 988 131 960 q 154 1044 131 1022 q 215 1065 177 1065 q 285 1039 259 1065 q 311 969 311 1012 q 268 855 311 909 q 157 772 225 800 "},"ể":{"x_min":48.828125,"x_max":788.59375,"ha":751,"o":"m 714 286 l 261 286 q 451 134 271 134 q 653 189 566 134 l 653 34 q 402 -16 556 -16 q 141 76 234 -16 q 48 336 48 169 q 149 610 48 509 q 396 711 249 711 q 631 621 548 711 q 714 376 714 531 l 714 286 m 515 417 q 394 567 515 567 q 305 524 343 567 q 259 417 267 481 l 515 417 m 691 962 l 691 929 l 597 929 l 597 1013 q 677 1057 677 1018 q 621 1094 677 1094 q 569 1087 596 1094 l 569 1166 q 646 1170 630 1170 q 788 1064 788 1170 q 691 962 788 979 m 637 826 l 501 826 l 398 919 l 302 826 l 166 826 l 320 995 l 483 995 l 637 826 "},"ϋ":{"x_min":84.78125,"x_max":785.375,"ha":855,"o":"m 84 694 l 299 694 l 299 326 q 436 153 299 153 q 569 318 569 153 q 482 694 569 493 l 705 694 q 785 321 785 510 q 690 72 785 162 q 430 -16 596 -16 q 174 67 264 -16 q 84 301 84 151 l 84 694 m 567 795 q 492 821 521 795 q 463 888 463 848 q 492 955 463 929 q 567 981 521 981 q 642 955 612 981 q 671 888 671 928 q 642 821 671 847 q 567 795 613 795 m 256 795 q 181 822 210 795 q 152 888 152 848 q 182 955 152 928 q 256 981 212 981 q 331 955 302 981 q 360 888 360 928 q 331 821 360 846 q 256 795 302 795 "},"ἶ":{"x_min":-52.765625,"x_max":455.90625,"ha":456,"o":"m 442 9 q 317 -12 394 -12 q 104 214 104 -12 l 104 694 l 318 694 l 318 246 q 378 158 318 158 q 442 173 408 158 l 442 9 m 455 996 l 337 996 q 201 1074 305 1074 q 65 996 98 1074 l -52 996 q 39 1131 -28 1084 q 201 1179 107 1179 q 363 1131 295 1179 q 455 996 431 1083 m 141 775 l 110 834 q 185 869 162 843 q 115 940 115 876 q 139 991 115 971 q 200 1012 162 1012 q 272 985 244 1012 q 300 918 300 959 q 257 827 300 865 q 141 775 214 789 "},"ἳ":{"x_min":-43.5625,"x_max":442.875,"ha":456,"o":"m 442 9 q 317 -12 394 -12 q 104 214 104 -12 l 104 694 l 318 694 l 318 246 q 378 158 318 158 q 442 173 408 158 l 442 9 m 159 844 l 116 783 q -43 952 -43 841 q 59 1049 -43 1049 q 123 1028 99 1049 q 148 972 148 1006 q 76 897 148 904 q 159 844 92 868 m 402 792 l 299 792 l 162 1045 l 345 1045 l 402 792 "},"Ἐ":{"x_min":-6.390625,"x_max":864.5,"ha":920,"o":"m 864 0 l 281 0 l 281 972 l 842 972 l 842 794 l 500 794 l 500 577 l 818 577 l 818 400 l 500 400 l 500 177 l 864 177 l 864 0 m 29 683 l -6 740 q 75 826 56 776 q 24 850 45 828 q 3 899 3 871 q 26 955 3 933 q 87 976 49 976 q 157 950 131 976 q 183 880 183 923 q 140 766 183 820 q 29 683 97 711 "},"b":{"x_min":90.203125,"x_max":812.515625,"ha":861,"o":"m 307 80 l 304 80 l 304 0 l 90 0 l 90 1028 l 304 1028 l 304 590 l 307 590 q 533 711 386 711 q 739 619 667 711 q 812 366 812 526 q 727 88 812 193 q 501 -16 642 -16 q 307 80 373 -16 m 301 373 l 301 302 q 339 191 301 235 q 438 147 378 147 q 552 203 512 147 q 592 364 592 260 q 555 498 592 450 q 450 547 518 547 q 343 499 385 547 q 301 373 301 451 "},"ύ":{"x_min":84.78125,"x_max":785.375,"ha":855,"o":"m 84 694 l 299 694 l 299 326 q 436 153 299 153 q 569 318 569 153 q 482 694 569 493 l 705 694 q 785 321 785 510 q 690 72 785 162 q 430 -16 596 -16 q 174 67 264 -16 q 84 301 84 151 l 84 694 m 576 1022 l 435 792 l 321 792 l 385 1022 l 576 1022 "},"ﬂ":{"x_min":27.8125,"x_max":836.25,"ha":926,"o":"m 533 862 q 455 881 494 881 q 359 769 359 881 l 359 694 l 516 694 l 516 539 l 359 539 l 359 0 l 144 0 l 144 539 l 27 539 l 27 694 l 144 694 l 144 780 q 220 971 144 899 q 427 1044 297 1044 q 533 1030 491 1044 l 533 862 m 836 0 l 622 0 l 622 1028 l 836 1028 l 836 0 "},"ῦ":{"x_min":84.78125,"x_max":785.375,"ha":855,"o":"m 84 694 l 299 694 l 299 326 q 436 153 299 153 q 569 318 569 153 q 482 694 569 493 l 705 694 q 785 321 785 510 q 690 72 785 162 q 430 -16 596 -16 q 174 67 264 -16 q 84 301 84 151 l 84 694 m 612 797 l 490 797 q 382 889 478 889 q 277 797 290 889 l 155 797 q 224 949 163 893 q 385 1005 285 1005 q 547 947 484 1005 q 612 797 609 889 "},"ᾱ":{"x_min":49.515625,"x_max":858.625,"ha":884,"o":"m 858 694 l 713 356 l 826 0 l 612 0 l 580 145 l 576 145 q 333 -16 492 -16 q 126 76 203 -16 q 49 327 49 170 q 139 604 49 498 q 374 711 228 711 q 600 568 541 711 l 604 568 l 642 694 l 858 694 m 539 356 q 401 548 499 548 q 302 491 341 548 q 263 340 263 433 q 296 200 263 252 q 379 149 328 149 q 529 324 474 149 l 539 356 m 615 804 l 217 804 l 217 921 l 615 921 l 615 804 "},"ƞ":{"x_min":90.203125,"x_max":760.96875,"ha":838,"o":"m 760 -319 l 545 -319 l 545 385 q 432 547 545 547 q 340 504 376 547 q 304 396 304 461 l 304 0 l 90 0 l 90 694 l 304 694 l 304 584 l 307 584 q 530 711 383 711 q 760 425 760 711 l 760 -319 "},"ɢ":{"x_min":48.828125,"x_max":698.5625,"ha":762,"o":"m 698 41 q 427 -16 575 -16 q 147 75 246 -16 q 48 335 48 168 q 159 605 48 500 q 461 711 269 711 q 654 685 564 711 l 654 508 q 461 547 562 547 q 315 492 367 547 q 263 341 263 437 q 309 197 263 247 q 437 147 356 147 q 490 151 470 147 l 490 261 l 365 261 l 365 419 l 698 419 l 698 41 "},"Ǌ":{"x_min":111.234375,"x_max":1570.8125,"ha":1673,"o":"m 986 0 l 765 0 l 364 611 q 315 691 328 664 l 312 691 q 318 534 318 640 l 318 0 l 111 0 l 111 972 l 347 972 l 733 380 q 781 301 759 340 l 784 301 q 779 434 779 335 l 779 972 l 986 972 l 986 0 m 1570 385 q 1480 86 1570 190 q 1218 -16 1389 -16 q 1076 9 1141 -16 l 1076 215 q 1202 172 1132 172 q 1352 394 1352 172 l 1352 972 l 1570 972 l 1570 385 "},"ῼ":{"x_min":55.609375,"x_max":1007.15625,"ha":1063,"o":"m 771 177 l 1005 177 l 1005 0 l 598 0 l 598 176 q 776 533 776 329 q 707 727 776 654 q 534 800 638 800 q 357 727 426 800 q 287 524 287 654 q 325 348 287 430 q 462 176 362 266 l 462 0 l 55 0 l 55 177 l 286 177 q 56 562 56 310 q 189 872 56 755 q 530 988 321 988 q 876 871 745 988 q 1007 565 1007 754 q 771 177 1007 309 m 746 -255 q 603 -330 689 -330 q 466 -204 466 -330 l 466 -82 l 598 -82 l 598 -201 q 630 -237 598 -237 q 685 -204 659 -237 l 746 -255 "},"Ʈ":{"x_min":21.03125,"x_max":794.203125,"ha":815,"o":"m 794 794 l 516 794 l 516 38 q 623 -88 516 -88 q 704 -70 666 -88 l 704 -255 q 583 -278 648 -278 q 370 -197 444 -278 q 297 31 297 -116 l 297 794 l 21 794 l 21 972 l 794 972 l 794 794 "},"Ὢ":{"x_min":-26,"x_max":1371.15625,"ha":1426,"o":"m 1135 177 l 1369 177 l 1369 0 l 962 0 l 962 176 q 1140 533 1140 329 q 1071 727 1140 654 q 898 800 1002 800 q 721 727 790 800 q 651 524 651 654 q 689 348 651 430 q 826 176 726 266 l 826 0 l 419 0 l 419 177 l 650 177 q 420 562 420 310 q 553 872 420 755 q 894 988 685 988 q 1240 871 1109 988 q 1371 565 1371 754 q 1135 177 1371 309 m 17 710 l -26 771 q 57 824 41 795 q -14 899 -14 831 q 9 955 -14 933 q 74 976 34 976 q 176 879 176 976 q 17 710 176 767 m 431 719 l 328 719 l 191 972 l 374 972 l 431 719 "},"Ḡ":{"x_min":50.1875,"x_max":909.5,"ha":988,"o":"m 909 65 q 555 -16 767 -16 q 185 112 320 -16 q 50 470 50 242 q 198 844 50 699 q 591 988 345 988 q 864 946 746 988 l 864 740 q 588 805 751 805 q 366 717 452 805 q 280 480 280 628 q 357 248 280 330 q 565 166 434 166 q 690 189 644 166 l 690 379 l 495 379 l 495 554 l 909 554 l 909 65 m 739 1041 l 341 1041 l 341 1158 l 739 1158 l 739 1041 "},"ф":{"x_min":46.125,"x_max":1043.109375,"ha":1089,"o":"m 644 -8 l 644 -322 l 444 -322 l 444 -8 l 411 -8 q 143 88 241 -8 q 46 344 46 184 q 143 605 46 509 q 412 702 240 702 l 444 702 l 444 994 l 644 994 l 644 702 l 674 702 q 945 606 847 702 q 1043 344 1043 510 q 945 87 1043 183 q 677 -8 847 -8 l 644 -8 m 644 551 l 644 143 l 653 143 q 779 197 733 143 q 825 344 825 252 q 780 496 825 441 q 655 551 735 551 l 644 551 m 444 143 l 444 551 l 433 551 q 308 496 354 551 q 263 344 263 441 q 309 197 263 252 q 436 143 355 143 l 444 143 "},"ȭ":{"x_min":48.828125,"x_max":800.296875,"ha":849,"o":"m 421 -16 q 148 80 247 -16 q 48 344 48 177 q 151 614 48 516 q 430 711 255 711 q 701 614 603 711 q 800 356 800 516 q 698 83 800 183 q 421 -16 597 -16 m 426 547 q 308 495 350 547 q 266 347 266 442 q 427 147 266 147 q 581 352 581 147 q 426 547 581 547 m 621 1025 l 224 1025 l 224 1141 l 621 1141 l 621 1025 m 662 974 q 520 819 662 819 q 419 842 479 819 q 332 867 354 867 q 280 814 280 867 l 183 814 q 221 930 183 888 q 327 971 258 971 q 430 947 376 971 q 513 922 488 922 q 565 974 565 922 l 662 974 "},"Ŋ":{"x_min":111.234375,"x_max":986.140625,"ha":1097,"o":"m 986 54 q 716 -284 986 -284 q 579 -263 636 -284 l 579 -95 q 673 -120 623 -120 q 779 2 776 -120 l 364 611 q 315 691 333 657 l 312 691 q 318 534 318 640 l 318 0 l 111 0 l 111 972 l 347 972 l 733 402 q 781 323 771 345 l 784 323 q 779 457 779 357 l 779 972 l 986 972 l 986 54 "},"Ũ":{"x_min":99.703125,"x_max":904.078125,"ha":1004,"o":"m 904 421 q 495 -16 904 -16 q 99 411 99 -16 l 99 972 l 319 972 l 319 408 q 503 172 319 172 q 685 400 685 172 l 685 972 l 904 972 l 904 421 m 746 1240 q 708 1093 746 1145 q 605 1041 671 1041 q 492 1070 547 1041 q 408 1102 431 1102 q 354 1029 354 1102 l 258 1029 q 296 1175 258 1123 q 400 1228 333 1228 q 514 1194 455 1228 q 595 1165 568 1165 q 648 1240 648 1165 l 746 1240 "},"L":{"x_min":111.234375,"x_max":690.4375,"ha":710,"o":"m 690 0 l 111 0 l 111 972 l 330 972 l 330 177 l 690 177 l 690 0 "},"Ẋ":{"x_min":4.0625,"x_max":905.421875,"ha":910,"o":"m 905 0 l 645 0 l 478 316 q 458 381 468 334 l 455 381 q 433 314 451 359 l 265 0 l 4 0 l 314 486 l 30 972 l 297 972 l 436 680 q 465 598 452 646 l 467 598 q 498 683 476 627 l 653 972 l 897 972 l 605 490 l 905 0 m 477 1041 q 402 1068 431 1041 q 372 1134 372 1095 q 402 1200 372 1174 q 477 1225 432 1225 q 551 1200 522 1225 q 580 1134 580 1174 q 551 1067 580 1094 q 477 1041 522 1041 "},";":{"x_min":26.453125,"x_max":316.734375,"ha":376,"o":"m 190 479 q 101 512 137 479 q 66 591 66 544 q 102 671 66 640 q 191 702 137 702 q 281 671 246 702 q 316 591 316 639 q 282 510 316 541 q 190 479 247 479 m 293 170 l 193 -172 l 26 -172 l 95 170 l 293 170 "},"ď":{"x_min":48.828125,"x_max":1087.328125,"ha":971,"o":"m 769 0 l 555 0 l 555 95 l 552 95 q 337 -16 479 -16 q 128 74 207 -16 q 48 331 48 166 q 136 607 48 503 q 365 711 223 711 q 552 615 499 711 l 555 615 l 555 1028 l 769 1028 l 769 0 m 559 337 l 559 389 q 520 502 559 457 q 417 547 480 547 q 306 491 346 547 q 266 337 266 435 q 305 196 266 246 q 412 147 343 147 q 518 199 477 147 q 559 337 559 251 m 1087 1027 l 973 789 l 841 789 l 902 1027 l 1087 1027 "},"ṯ":{"x_min":27.8125,"x_max":510.03125,"ha":541,"o":"m 510 8 q 366 -16 462 -16 q 140 218 140 -16 l 140 536 l 27 536 l 27 694 l 140 694 l 140 844 l 354 905 l 354 694 l 510 694 l 510 536 l 354 536 l 354 255 q 440 147 354 147 q 510 166 474 147 l 510 8 m 510 -176 l 112 -176 l 112 -59 l 510 -59 l 510 -176 "},"Ο":{"x_min":50.1875,"x_max":1003.09375,"ha":1053,"o":"m 522 -16 q 181 119 313 -16 q 50 473 50 255 q 183 846 50 704 q 537 988 317 988 q 874 852 746 988 q 1003 493 1003 716 q 869 123 1003 263 q 522 -16 736 -16 m 531 800 q 348 713 416 800 q 280 484 280 627 q 348 256 280 340 q 526 172 416 172 q 706 253 639 172 q 772 480 772 335 q 708 716 772 632 q 531 800 643 800 "},"ŧ":{"x_min":27.8125,"x_max":510.03125,"ha":541,"o":"m 510 8 q 366 -16 462 -16 q 140 218 140 -16 l 140 299 l 41 299 l 41 438 l 140 438 l 140 536 l 27 536 l 27 694 l 140 694 l 140 844 l 354 905 l 354 694 l 510 694 l 510 536 l 354 536 l 354 438 l 502 438 l 502 299 l 354 299 l 354 255 q 440 147 354 147 q 510 166 474 147 l 510 8 "},"À":{"x_min":6.78125,"x_max":966.46875,"ha":977,"o":"m 966 0 l 727 0 l 658 216 l 312 216 l 244 0 l 6 0 l 360 972 l 620 972 l 966 0 m 608 384 l 503 711 q 487 798 492 748 l 482 798 q 465 714 478 756 l 359 384 l 608 384 m 621 1062 l 467 1062 l 254 1281 l 444 1281 l 621 1062 "},"Ώ":{"x_min":-30.265625,"x_max":1144.15625,"ha":1200,"o":"m 908 177 l 1142 177 l 1142 0 l 735 0 l 735 176 q 913 533 913 329 q 844 727 913 654 q 671 800 775 800 q 494 727 563 800 q 424 524 424 654 q 462 348 424 430 q 599 176 499 266 l 599 0 l 192 0 l 192 177 l 423 177 q 193 562 193 310 q 326 872 193 755 q 667 988 458 988 q 1013 871 882 988 q 1144 565 1144 754 q 908 177 1144 309 m 224 972 l 83 742 l -30 742 l 33 972 l 224 972 "},"½":{"x_min":65.984375,"x_max":1250,"ha":1341,"o":"m 458 396 l 76 396 l 76 512 l 195 512 l 195 836 l 65 808 l 65 930 l 341 986 l 341 512 l 458 512 l 458 396 m 1021 972 l 416 0 l 251 0 l 855 972 l 1021 972 m 1250 0 l 840 0 l 840 106 l 1008 265 q 1073 339 1060 314 q 1085 395 1085 364 q 1066 442 1085 423 q 1015 461 1047 461 q 872 391 948 461 l 872 537 q 1041 590 952 590 q 1187 543 1134 590 q 1241 415 1241 497 q 1216 319 1241 367 q 1094 185 1191 271 l 1023 123 l 1023 120 l 1250 120 l 1250 0 "},"ԍ":{"x_min":48.828125,"x_max":746.046875,"ha":783,"o":"m 746 314 q 651 75 746 168 q 397 -16 556 -16 q 146 75 243 -16 q 48 336 48 168 q 150 608 48 504 q 434 711 252 711 q 663 673 556 711 l 663 499 q 453 560 553 560 q 305 504 360 560 q 251 347 251 448 q 296 190 251 246 q 421 133 340 133 q 512 168 478 133 q 547 257 547 203 l 360 257 l 360 388 l 746 388 l 746 314 "},"'":{"x_min":115.296875,"x_max":291.640625,"ha":407,"o":"m 291 984 l 270 685 l 134 685 l 115 984 l 291 984 "},"Ҽ":{"x_min":27.8125,"x_max":1258.109375,"ha":1312,"o":"m 1258 396 l 543 396 q 845 162 583 162 q 1147 265 992 162 l 1147 70 q 813 -16 1007 -16 q 461 90 591 -16 q 309 396 331 198 l 283 396 q 27 623 27 396 q 55 748 27 685 l 204 748 q 183 663 183 704 q 284 569 183 569 l 312 569 q 470 875 340 761 q 796 988 600 988 q 1130 852 1003 988 q 1258 493 1258 716 l 1258 396 m 1020 569 q 948 745 1009 681 q 794 809 887 809 q 629 745 695 809 q 543 569 562 680 l 1020 569 "},"Ѿ":{"x_min":50.1875,"x_max":1550.421875,"ha":1601,"o":"m 800 25 q 555 -16 647 -16 q 186 119 323 -16 q 50 484 50 255 q 174 846 50 704 q 522 988 298 988 q 711 955 631 988 l 711 755 q 520 805 624 805 q 344 722 407 805 q 280 489 280 640 q 358 251 280 337 q 565 166 436 166 q 690 189 644 166 l 690 379 l 495 379 l 495 554 l 1104 554 l 1104 379 l 909 379 l 909 189 q 1034 166 955 166 q 1241 251 1163 166 q 1319 489 1319 337 q 1256 722 1319 640 q 1079 805 1192 805 q 889 755 976 805 l 889 955 q 1077 988 969 988 q 1426 846 1302 988 q 1550 484 1550 704 q 1413 119 1550 255 q 1044 -16 1276 -16 q 800 25 942 -16 m 1130 1218 l 1057 1059 l 1016 1059 l 984 1127 l 851 1127 l 819 1059 l 778 1059 l 747 1127 l 614 1127 l 582 1059 l 541 1059 l 467 1218 l 1130 1218 "},"ɛ":{"x_min":34.59375,"x_max":576.484375,"ha":619,"o":"m 576 10 q 375 -16 491 -16 q 122 37 210 -16 q 34 193 34 91 q 181 365 34 331 l 181 368 q 61 512 61 402 q 145 658 61 605 q 384 711 230 711 q 567 690 480 711 l 567 531 q 405 555 490 555 q 273 487 273 555 q 413 425 273 425 l 476 425 l 476 278 l 409 278 q 286 263 326 278 q 247 208 247 248 q 396 139 247 139 q 576 170 501 139 l 576 10 "},"ṏ":{"x_min":48.828125,"x_max":800.296875,"ha":849,"o":"m 421 -16 q 148 80 247 -16 q 48 344 48 177 q 151 614 48 516 q 430 711 255 711 q 701 614 603 711 q 800 356 800 516 q 698 83 800 183 q 421 -16 597 -16 m 426 547 q 308 495 350 547 q 266 347 266 442 q 427 147 266 147 q 581 352 581 147 q 426 547 581 547 m 557 1012 q 499 1033 522 1012 q 476 1085 476 1054 q 499 1138 476 1117 q 557 1158 521 1158 q 616 1138 593 1158 q 639 1085 639 1117 q 617 1033 639 1053 q 557 1012 595 1012 m 287 1012 q 229 1033 252 1012 q 205 1085 205 1054 q 229 1138 205 1117 q 287 1158 252 1158 q 346 1138 323 1158 q 369 1085 369 1117 q 347 1033 369 1053 q 287 1012 325 1012 m 655 975 q 513 819 655 819 q 411 843 473 819 q 324 868 346 868 q 273 815 273 868 l 175 815 q 213 931 175 889 q 320 972 251 972 q 423 948 369 972 q 506 923 481 923 q 557 975 557 923 l 655 975 "},"ᾲ":{"x_min":49.515625,"x_max":858.625,"ha":884,"o":"m 858 694 l 713 356 l 826 0 l 612 0 l 580 145 l 576 145 q 333 -16 492 -16 q 126 76 203 -16 q 49 327 49 170 q 139 604 49 498 q 374 711 228 711 q 600 568 541 711 l 604 568 l 642 694 l 858 694 m 539 356 q 401 548 499 548 q 302 491 341 548 q 263 340 263 433 q 296 200 263 252 q 379 149 328 149 q 529 324 474 149 l 539 356 m 484 792 l 370 792 l 229 1022 l 419 1022 l 484 792 m 607 -255 q 464 -330 550 -330 q 327 -204 327 -330 l 327 -82 l 459 -82 l 459 -201 q 491 -237 459 -237 q 546 -204 520 -237 l 607 -255 "},"Ɠ":{"x_min":50.1875,"x_max":1026.15625,"ha":989,"o":"m 1026 940 q 958 958 990 958 q 886 925 912 958 q 859 837 859 891 q 868 741 859 785 l 862 737 q 588 805 737 805 q 367 717 452 805 q 282 480 282 629 q 358 248 282 330 q 565 166 435 166 q 690 189 644 166 l 690 379 l 495 379 l 495 554 l 909 554 l 909 65 q 555 -16 767 -16 q 185 112 320 -16 q 50 470 50 242 q 197 844 50 699 q 590 988 345 988 q 723 972 668 988 q 799 1081 742 1039 q 936 1123 857 1123 q 1026 1108 986 1123 l 1026 940 "},"Ć":{"x_min":50.1875,"x_max":808.4375,"ha":867,"o":"m 808 34 q 530 -16 701 -16 q 178 114 306 -16 q 50 465 50 246 q 194 843 50 698 q 568 988 338 988 q 808 952 710 988 l 808 741 q 585 800 710 800 q 364 714 448 800 q 280 480 280 628 q 360 256 280 339 q 573 172 439 172 q 808 234 701 172 l 808 34 m 786 1281 l 573 1062 l 419 1062 l 595 1281 l 786 1281 "},"ẓ":{"x_min":16.953125,"x_max":640.25,"ha":665,"o":"m 640 0 l 16 0 l 16 88 l 365 536 l 51 536 l 51 694 l 637 694 l 637 588 l 307 158 l 640 158 l 640 0 m 336 -265 q 261 -238 291 -265 q 232 -172 232 -210 q 261 -106 232 -131 q 336 -80 291 -80 q 410 -106 382 -80 q 439 -172 439 -132 q 410 -238 439 -212 q 336 -265 382 -265 "},"£":{"x_min":96.984375,"x_max":755.546875,"ha":799,"o":"m 755 0 l 96 0 l 96 153 q 227 336 227 189 l 227 415 l 111 415 l 111 562 l 227 562 l 227 689 q 310 906 227 823 q 534 988 393 988 q 693 955 620 988 l 693 780 q 551 825 626 825 q 426 669 426 825 l 426 562 l 608 562 l 608 415 l 426 415 l 426 356 q 323 164 426 231 l 755 164 l 755 0 "},"ů":{"x_min":79.359375,"x_max":750.109375,"ha":840,"o":"m 750 0 l 536 0 l 536 105 l 533 105 q 320 -16 453 -16 q 79 275 79 -16 l 79 694 l 293 694 l 293 294 q 409 147 293 147 q 501 187 467 147 q 536 297 536 227 l 536 694 l 750 694 l 750 0 m 416 804 q 302 844 347 804 q 257 950 257 885 q 304 1059 257 1018 q 420 1100 351 1100 q 537 1059 492 1100 q 582 954 582 1019 q 533 846 582 887 q 416 804 485 804 m 416 1016 q 351 952 351 1016 q 416 889 351 889 q 467 907 447 889 q 486 952 486 926 q 467 998 486 980 q 416 1016 448 1016 "},"Ṻ":{"x_min":99.703125,"x_max":904.078125,"ha":1004,"o":"m 904 421 q 495 -16 904 -16 q 99 411 99 -16 l 99 972 l 319 972 l 319 408 q 503 172 319 172 q 685 400 685 172 l 685 972 l 904 972 l 904 421 m 633 1205 q 574 1226 597 1205 q 551 1278 551 1247 q 574 1330 551 1310 q 633 1351 597 1351 q 692 1330 669 1351 q 715 1278 715 1310 q 692 1225 715 1246 q 633 1205 670 1205 m 363 1205 q 304 1226 327 1205 q 281 1278 281 1247 q 304 1330 281 1310 q 363 1351 327 1351 q 422 1330 399 1351 q 445 1278 445 1310 q 422 1225 445 1246 q 363 1205 400 1205 m 696 1062 l 299 1062 l 299 1165 l 696 1165 l 696 1062 "},"Ǵ":{"x_min":50.1875,"x_max":909.5,"ha":988,"o":"m 909 65 q 555 -16 767 -16 q 185 112 320 -16 q 50 470 50 242 q 198 844 50 699 q 591 988 345 988 q 864 946 746 988 l 864 740 q 588 805 751 805 q 366 717 452 805 q 280 480 280 628 q 357 248 280 330 q 565 166 434 166 q 690 189 644 166 l 690 379 l 495 379 l 495 554 l 909 554 l 909 65 m 822 1279 l 609 1060 l 455 1060 l 631 1279 l 822 1279 "},"Ğ":{"x_min":50.1875,"x_max":909.5,"ha":988,"o":"m 909 65 q 555 -16 767 -16 q 185 112 320 -16 q 50 470 50 242 q 198 844 50 699 q 591 988 345 988 q 864 946 746 988 l 864 740 q 588 805 751 805 q 366 717 452 805 q 280 480 280 628 q 357 248 280 330 q 565 166 434 166 q 690 189 644 166 l 690 379 l 495 379 l 495 554 l 909 554 l 909 65 m 775 1270 q 705 1118 767 1174 q 544 1062 644 1062 q 383 1120 445 1062 q 318 1270 320 1178 l 439 1270 q 547 1179 451 1179 q 653 1270 640 1179 l 775 1270 "},"ә":{"x_min":37.296875,"x_max":702.640625,"ha":751,"o":"m 37 408 l 490 408 q 299 559 480 559 q 98 505 185 559 l 98 659 q 348 711 195 711 q 609 618 516 711 q 702 358 702 524 q 602 84 702 185 q 355 -16 501 -16 q 120 73 203 -16 q 37 318 37 163 l 37 408 m 491 276 l 236 276 q 356 127 236 127 q 445 170 408 127 q 491 276 483 212 "},"Ї":{"x_min":-36.671875,"x_max":482.84375,"ha":440,"o":"m 330 0 l 111 0 l 111 972 l 330 972 l 330 0 m 378 1040 q 303 1066 332 1040 q 274 1133 274 1093 q 303 1200 274 1174 q 378 1226 332 1226 q 453 1200 423 1226 q 482 1133 482 1173 q 453 1066 482 1092 q 378 1040 424 1040 m 67 1040 q -7 1067 21 1040 q -36 1133 -36 1093 q -6 1200 -36 1173 q 67 1226 23 1226 q 142 1200 113 1226 q 171 1133 171 1173 q 142 1066 171 1091 q 67 1040 113 1040 "},"û":{"x_min":79.359375,"x_max":750.109375,"ha":840,"o":"m 750 0 l 536 0 l 536 105 l 533 105 q 320 -16 453 -16 q 79 275 79 -16 l 79 694 l 293 694 l 293 294 q 409 147 293 147 q 501 187 467 147 q 536 297 536 227 l 536 694 l 750 694 l 750 0 m 657 804 l 517 804 l 410 931 l 310 804 l 170 804 l 329 1024 l 497 1024 l 657 804 "},"Ẑ":{"x_min":27.8125,"x_max":811.15625,"ha":843,"o":"m 811 0 l 27 0 l 27 126 l 526 794 l 63 794 l 63 972 l 809 972 l 809 849 l 322 177 l 811 177 l 811 0 m 680 1041 l 540 1041 l 433 1168 l 333 1041 l 193 1041 l 352 1261 l 520 1261 l 680 1041 "},"Ź":{"x_min":27.8125,"x_max":811.15625,"ha":843,"o":"m 811 0 l 27 0 l 27 126 l 526 794 l 63 794 l 63 972 l 809 972 l 809 849 l 322 177 l 811 177 l 811 0 m 656 1281 l 443 1062 l 289 1062 l 465 1281 l 656 1281 "},"Ṁ":{"x_min":111.234375,"x_max":1219.4375,"ha":1329,"o":"m 1219 0 l 1003 0 l 1003 581 q 1011 790 1003 676 l 1005 790 q 975 661 988 700 l 747 0 l 568 0 l 336 654 q 305 790 326 680 l 299 790 q 308 537 308 646 l 308 0 l 111 0 l 111 972 l 432 972 l 630 396 q 665 257 654 326 l 669 257 q 708 397 687 337 l 906 972 l 1219 972 l 1219 0 m 660 1041 q 585 1068 614 1041 q 555 1134 555 1095 q 585 1200 555 1174 q 660 1225 615 1225 q 734 1200 705 1225 q 763 1134 763 1174 q 734 1067 763 1094 q 660 1041 705 1041 "},"ɔ":{"x_min":51.546875,"x_max":615.140625,"ha":664,"o":"m 51 15 l 51 197 q 201 147 118 147 q 346 201 293 147 q 400 349 400 255 q 349 495 400 442 q 208 547 298 547 q 51 497 125 547 l 51 669 q 258 711 125 711 q 516 614 417 711 q 615 364 615 517 q 509 85 615 187 q 226 -16 404 -16 q 51 15 107 -16 "},"ỵ":{"x_min":-2.71875,"x_max":751.46875,"ha":747,"o":"m 751 694 l 469 -55 q 162 -326 367 -326 q 34 -308 84 -326 l 34 -137 q 127 -162 77 -162 q 242 -84 210 -162 l 279 1 l -2 694 l 234 694 l 364 271 q 383 179 376 232 l 385 179 q 408 270 392 218 l 539 694 l 751 694 m 604 -265 q 529 -238 559 -265 q 500 -172 500 -210 q 529 -106 500 -131 q 604 -80 559 -80 q 678 -106 650 -80 q 707 -172 707 -132 q 678 -238 707 -212 q 604 -265 650 -265 "},"ḇ":{"x_min":90.203125,"x_max":812.515625,"ha":861,"o":"m 307 80 l 304 80 l 304 0 l 90 0 l 90 1028 l 304 1028 l 304 590 l 307 590 q 533 711 386 711 q 739 619 667 711 q 812 366 812 526 q 727 88 812 193 q 501 -16 642 -16 q 307 80 373 -16 m 301 373 l 301 302 q 339 191 301 235 q 438 147 378 147 q 552 203 512 147 q 592 364 592 260 q 555 498 592 450 q 450 547 518 547 q 343 499 385 547 q 301 373 301 451 m 662 -174 l 264 -174 l 264 -57 l 662 -57 l 662 -174 "},"ʚ":{"x_min":48.828125,"x_max":816.578125,"ha":865,"o":"m 189 365 l 189 368 q 61 512 61 404 q 155 657 61 604 q 416 711 250 711 q 711 614 605 711 q 816 349 816 516 q 703 80 816 178 q 389 -16 590 -16 q 48 193 48 -16 q 189 365 48 325 m 442 425 l 442 278 l 416 278 q 298 263 335 278 q 261 208 261 248 q 404 139 261 139 q 601 347 601 139 q 550 500 601 445 q 405 555 499 555 q 273 487 273 555 q 421 425 273 425 l 442 425 "},"Ῑ":{"x_min":22.59375,"x_max":420.03125,"ha":440,"o":"m 330 0 l 111 0 l 111 972 l 330 972 l 330 0 m 420 1055 l 22 1055 l 22 1172 l 420 1172 l 420 1055 "},"Ń":{"x_min":111.234375,"x_max":986.140625,"ha":1097,"o":"m 986 0 l 765 0 l 364 611 q 315 691 328 664 l 312 691 q 318 534 318 640 l 318 0 l 111 0 l 111 972 l 347 972 l 733 380 q 781 301 759 340 l 784 301 q 779 434 779 335 l 779 972 l 986 972 l 986 0 m 775 1281 l 562 1062 l 408 1062 l 584 1281 l 775 1281 "},"ῖ":{"x_min":-18,"x_max":442.875,"ha":456,"o":"m 442 9 q 317 -12 394 -12 q 104 214 104 -12 l 104 694 l 318 694 l 318 246 q 378 158 318 158 q 442 173 408 158 l 442 9 m 439 797 l 317 797 q 209 889 305 889 q 104 797 117 889 l -18 797 q 51 949 -9 893 q 212 1005 112 1005 q 374 947 311 1005 q 439 797 436 889 "},"ḿ":{"x_min":90.203125,"x_max":1193,"ha":1272,"o":"m 1193 0 l 979 0 l 979 396 q 868 547 979 547 q 781 501 815 547 q 748 388 748 456 l 748 0 l 534 0 l 534 400 q 425 547 534 547 q 337 503 370 547 q 304 385 304 460 l 304 0 l 90 0 l 90 694 l 304 694 l 304 585 l 307 585 q 400 676 340 641 q 531 711 460 711 q 733 581 678 711 q 966 711 812 711 q 1193 432 1193 711 l 1193 0 m 871 1023 l 658 804 l 504 804 l 680 1023 l 871 1023 "},"ᾛ":{"x_min":-8.5625,"x_max":1370.90625,"ha":1484,"o":"m 1370 0 l 1151 0 l 1151 396 l 748 396 l 748 0 l 529 0 l 529 972 l 748 972 l 748 584 l 1151 584 l 1151 972 l 1370 972 l 1370 0 m 194 771 l 151 710 q -8 879 -8 768 q 94 976 -8 976 q 158 955 134 976 q 183 899 183 933 q 111 824 183 831 q 194 771 127 795 m 437 719 l 334 719 l 197 972 l 380 972 l 437 719 m 1165 -255 q 1022 -330 1108 -330 q 885 -204 885 -330 l 885 -82 l 1017 -82 l 1017 -201 q 1049 -237 1017 -237 q 1104 -204 1078 -237 l 1165 -255 "},".":{"x_min":62.390625,"x_max":314.015625,"ha":376,"o":"m 185 -16 q 97 15 132 -16 q 62 95 62 48 q 98 175 62 144 q 189 206 134 206 q 279 175 244 206 q 314 95 314 143 q 278 14 314 46 q 185 -16 242 -16 "},"Ѡ":{"x_min":50.1875,"x_max":1550.421875,"ha":1601,"o":"m 800 25 q 555 -16 647 -16 q 186 119 323 -16 q 50 484 50 255 q 174 846 50 704 q 522 988 298 988 q 711 955 631 988 l 711 755 q 520 805 624 805 q 344 722 407 805 q 280 489 280 640 q 358 251 280 337 q 565 166 436 166 q 690 189 644 166 l 690 379 l 495 379 l 495 554 l 1104 554 l 1104 379 l 909 379 l 909 189 q 1034 166 955 166 q 1241 251 1163 166 q 1319 489 1319 337 q 1256 722 1319 640 q 1079 805 1192 805 q 889 755 976 805 l 889 955 q 1077 988 969 988 q 1426 846 1302 988 q 1550 484 1550 704 q 1413 119 1550 255 q 1044 -16 1276 -16 q 800 25 942 -16 "},"ǀ":{"x_min":141.75,"x_max":312.65625,"ha":453,"o":"m 312 -326 l 141 -326 l 141 1062 l 312 1062 l 312 -326 "},"π":{"x_min":6.78125,"x_max":916.953125,"ha":962,"o":"m 916 536 l 766 536 l 766 255 q 825 158 766 158 q 889 173 855 158 l 889 9 q 769 -12 833 -12 q 552 219 552 -12 l 552 536 l 384 536 l 384 210 q 356 0 384 67 l 139 0 q 170 222 170 82 l 170 536 q 6 479 88 535 l 6 651 q 173 694 65 694 l 916 694 l 916 536 "},"Ṗ":{"x_min":111.234375,"x_max":822,"ha":853,"o":"m 330 335 l 330 0 l 111 0 l 111 972 l 454 972 q 822 662 822 972 q 716 425 822 516 q 434 335 611 335 l 330 335 m 330 804 l 330 501 l 416 501 q 591 654 591 501 q 416 804 591 804 l 330 804 m 444 1041 q 369 1068 398 1041 q 339 1134 339 1095 q 369 1200 339 1174 q 444 1225 399 1225 q 518 1200 489 1225 q 547 1134 547 1174 q 518 1067 547 1094 q 444 1041 489 1041 "},"ʂ":{"x_min":63.75,"x_max":569.703125,"ha":611,"o":"m 190 -6 l 190 -33 q 267 -119 190 -119 q 339 -99 302 -119 l 339 -215 q 241 -236 290 -236 q 111 -185 159 -236 q 63 -44 63 -134 l 63 191 q 262 128 168 128 q 364 191 364 128 q 340 237 364 219 q 233 286 316 255 q 101 369 139 322 q 63 490 63 417 q 142 651 63 590 q 355 711 221 711 q 527 683 444 711 l 527 518 q 358 565 446 565 q 273 507 273 565 q 292 460 273 478 q 381 417 311 442 q 526 333 483 381 q 569 212 569 284 q 489 45 569 107 q 265 -16 408 -16 q 190 -6 231 -16 "},"Ẫ":{"x_min":6.78125,"x_max":966.46875,"ha":977,"o":"m 966 0 l 727 0 l 658 216 l 312 216 l 244 0 l 6 0 l 360 972 l 620 972 l 966 0 m 608 384 l 503 711 q 487 798 492 748 l 482 798 q 465 714 478 756 l 359 384 l 608 384 m 719 1430 q 577 1275 719 1275 q 475 1299 537 1275 q 388 1324 410 1324 q 337 1271 337 1324 l 239 1271 q 384 1428 239 1428 q 487 1404 433 1428 q 570 1379 543 1379 q 621 1430 621 1379 l 719 1430 m 716 1061 l 580 1061 l 477 1154 l 381 1061 l 245 1061 l 399 1230 l 562 1230 l 716 1061 "},"Ъ":{"x_min":21.03125,"x_max":1011.234375,"ha":1052,"o":"m 297 0 l 297 792 l 21 792 l 21 972 l 516 972 l 516 608 l 659 608 q 1011 322 1011 608 q 916 84 1011 169 q 648 0 821 0 l 297 0 m 516 442 l 516 166 l 615 166 q 780 307 780 166 q 619 442 780 442 l 516 442 "},"ʯ":{"x_min":-34.59375,"x_max":946.125,"ha":880,"o":"m 946 -301 q 803 -326 898 -326 q 575 -83 575 -326 l 575 103 l 572 103 q 358 -16 493 -16 q 122 267 122 -16 l 122 438 q 34 547 122 547 q -34 527 -2 547 l -34 686 q 108 711 12 711 q 336 467 336 711 l 336 304 q 446 151 336 151 q 540 193 505 151 q 575 302 575 236 l 575 694 l 788 694 l 788 -54 q 876 -162 788 -162 q 946 -143 913 -162 l 946 -301 "},"ή":{"x_min":62.390625,"x_max":760.96875,"ha":849,"o":"m 760 -267 l 544 -267 l 544 366 q 431 528 544 528 q 339 486 374 528 q 304 380 304 445 l 304 0 l 90 0 l 90 458 q 62 694 90 636 l 282 694 q 303 583 303 651 l 306 583 q 530 711 383 711 q 760 425 760 711 l 760 -267 m 605 1022 l 464 792 l 350 792 l 414 1022 l 605 1022 "},"ȵ":{"x_min":90.203125,"x_max":1133.3125,"ha":925,"o":"m 697 -265 q 674 -326 682 -295 l 494 -326 q 583 -127 522 -217 q 547 54 547 -47 l 547 385 q 432 547 547 547 q 340 504 376 547 q 304 396 304 461 l 304 0 l 90 0 l 90 694 l 304 694 l 304 584 l 307 584 q 530 711 383 711 q 760 425 760 711 l 760 58 q 762 21 760 41 q 900 52 829 52 q 1066 0 999 52 q 1133 -130 1133 -53 q 1065 -265 1133 -212 q 887 -319 996 -319 q 697 -265 778 -319 m 808 -126 q 897 -170 843 -170 q 959 -133 959 -170 q 901 -95 959 -95 q 808 -126 852 -95 "},"Ś":{"x_min":67.828125,"x_max":701.28125,"ha":745,"o":"m 71 37 l 71 254 q 328 155 188 155 q 433 182 396 155 q 470 254 470 210 q 439 325 470 292 q 290 415 408 359 q 67 699 67 520 q 164 909 67 830 q 422 988 261 988 q 658 951 564 988 l 658 748 q 434 816 560 816 q 335 789 371 816 q 298 718 298 762 q 327 644 298 674 q 448 569 356 613 q 647 433 592 501 q 701 273 701 365 q 604 61 701 139 q 323 -16 507 -16 q 71 37 172 -16 m 601 1281 l 388 1062 l 234 1062 l 410 1281 l 601 1281 "},"à":{"x_min":38.65625,"x_max":668.046875,"ha":747,"o":"m 668 0 l 465 0 l 465 99 l 462 99 q 255 -16 392 -16 q 96 40 154 -16 q 38 193 38 97 q 278 426 38 395 l 466 451 q 343 565 466 565 q 107 491 219 565 l 107 653 q 229 693 151 676 q 370 711 307 711 q 668 415 668 711 l 668 0 m 466 282 l 466 328 l 340 312 q 236 218 236 299 q 261 158 236 181 q 330 134 286 134 q 428 176 390 134 q 466 282 466 218 m 525 804 l 371 804 l 158 1023 l 348 1023 l 525 804 "},"¦":{"x_min":141.75,"x_max":312.65625,"ha":453,"o":"m 312 463 l 141 463 l 141 1062 l 312 1062 l 312 463 m 312 -326 l 141 -326 l 141 280 l 312 280 l 312 -326 "},"Ѣ":{"x_min":33.234375,"x_max":886.4375,"ha":926,"o":"m 172 0 l 172 739 l 33 739 l 33 900 l 172 900 l 172 972 l 392 972 l 392 900 l 572 900 l 572 739 l 392 739 l 392 608 l 534 608 q 886 322 886 608 q 791 84 886 169 q 523 0 696 0 l 172 0 m 392 442 l 392 166 l 490 166 q 655 307 655 166 q 494 442 655 442 l 392 442 "},"ᾼ":{"x_min":6.78125,"x_max":966.46875,"ha":977,"o":"m 966 0 l 727 0 l 658 216 l 312 216 l 244 0 l 6 0 l 360 972 l 620 972 l 966 0 m 608 384 l 503 711 q 487 798 492 748 l 482 798 q 465 714 478 756 l 359 384 l 608 384 m 701 -255 q 558 -330 644 -330 q 421 -204 421 -330 l 421 -82 l 553 -82 l 553 -201 q 585 -237 553 -237 q 640 -204 614 -237 l 701 -255 "},"Ỷ":{"x_min":0,"x_max":844.390625,"ha":843,"o":"m 844 972 l 527 345 l 527 0 l 308 0 l 308 341 l 0 972 l 250 972 l 406 609 q 429 530 411 599 l 432 530 q 453 607 440 579 l 612 972 l 844 972 m 455 1095 l 455 1062 l 360 1062 l 360 1146 q 441 1190 441 1151 q 385 1227 441 1227 q 332 1220 359 1227 l 332 1300 q 410 1304 393 1304 q 552 1197 552 1304 q 455 1095 552 1112 "},"Ṕ":{"x_min":111.234375,"x_max":822,"ha":853,"o":"m 330 335 l 330 0 l 111 0 l 111 972 l 454 972 q 822 662 822 972 q 716 425 822 516 q 434 335 611 335 l 330 335 m 330 804 l 330 501 l 416 501 q 591 654 591 501 q 416 804 591 804 l 330 804 m 654 1260 l 441 1041 l 287 1041 l 463 1260 l 654 1260 "},"ҁ":{"x_min":48.828125,"x_max":616.5,"ha":638,"o":"m 616 497 q 466 547 549 547 q 320 493 374 547 q 266 344 266 439 q 318 199 266 252 q 459 147 369 147 q 520 155 489 147 l 520 -278 l 307 -278 l 307 -5 q 118 113 187 23 q 48 330 48 203 q 154 609 48 507 q 438 711 261 711 q 616 678 561 711 l 616 497 "},"Ҧ":{"x_min":111.234375,"x_max":1483.265625,"ha":1531,"o":"m 733 -248 l 733 -52 q 979 -104 866 -104 q 1181 -33 1111 -104 q 1251 164 1251 36 q 1175 363 1251 290 q 973 437 1099 437 l 952 437 l 952 0 l 733 0 l 733 784 l 330 784 l 330 0 l 111 0 l 111 972 l 952 972 l 952 626 l 1008 626 q 1357 500 1231 626 q 1483 165 1483 373 q 1352 -163 1483 -38 q 978 -287 1222 -287 q 733 -248 851 -287 "},"Ϣ":{"x_min":108.515625,"x_max":1239.109375,"ha":1350,"o":"m 1239 152 q 739 -326 1239 -326 q 610 -318 693 -326 q 490 -311 526 -311 q 328 -337 404 -311 l 328 -155 q 495 -127 406 -127 q 620 -134 542 -127 q 748 -143 698 -143 q 954 -78 890 -143 q 1019 127 1019 -13 l 1016 127 q 920 23 982 63 q 786 -16 859 -16 q 579 132 640 -16 q 340 -16 497 -16 q 108 305 108 -16 l 108 972 l 327 972 l 327 347 q 441 172 327 172 q 529 223 495 172 q 563 354 563 274 l 563 972 l 783 972 l 783 341 q 895 172 783 172 q 985 222 951 172 q 1019 358 1019 271 l 1019 972 l 1239 972 l 1239 152 "},"e":{"x_min":48.828125,"x_max":714.171875,"ha":751,"o":"m 714 286 l 261 286 q 451 134 271 134 q 653 189 566 134 l 653 34 q 402 -16 556 -16 q 141 76 234 -16 q 48 336 48 169 q 149 610 48 509 q 396 711 249 711 q 631 621 548 711 q 714 376 714 531 l 714 286 m 515 417 q 394 567 515 567 q 305 524 343 567 q 259 417 267 481 l 515 417 "},"Ἱ":{"x_min":-4.390625,"x_max":501.296875,"ha":612,"o":"m 501 0 l 282 0 l 282 972 l 501 972 l 501 0 m 185 740 l 149 683 q 38 766 81 711 q -4 880 -4 820 q 21 950 -4 923 q 91 976 47 976 q 152 955 129 976 q 176 899 176 933 q 155 850 176 871 q 104 826 133 828 q 185 740 123 775 "},"ὗ":{"x_min":84.78125,"x_max":785.375,"ha":855,"o":"m 84 694 l 299 694 l 299 326 q 436 153 299 153 q 569 318 569 153 q 482 694 569 493 l 705 694 q 785 321 785 510 q 690 72 785 162 q 430 -16 596 -16 q 174 67 264 -16 q 84 301 84 151 l 84 694 m 637 996 l 519 996 q 383 1074 487 1074 q 247 996 280 1074 l 129 996 q 221 1131 153 1084 q 383 1179 289 1179 q 545 1131 477 1179 q 637 996 613 1083 m 480 834 l 448 775 q 332 827 376 789 q 289 918 289 865 q 316 985 289 959 q 390 1012 344 1012 q 451 991 427 1012 q 475 940 475 971 q 405 869 475 876 q 480 834 428 843 "},"ļ":{"x_min":86.140625,"x_max":360.8125,"ha":395,"o":"m 86 -305 l 86 -212 q 134 -216 109 -216 q 218 -166 218 -216 q 143 -122 218 -122 q 118 -123 134 -122 l 118 0 l 90 0 l 90 1028 l 304 1028 l 304 0 l 234 0 l 234 -55 q 360 -168 360 -60 q 145 -308 360 -308 q 86 -305 114 -308 "},"Ṃ":{"x_min":111.234375,"x_max":1219.4375,"ha":1329,"o":"m 1219 0 l 1003 0 l 1003 581 q 1011 790 1003 676 l 1005 790 q 975 661 988 700 l 747 0 l 568 0 l 336 654 q 305 790 326 680 l 299 790 q 308 537 308 646 l 308 0 l 111 0 l 111 972 l 432 972 l 630 396 q 665 257 654 326 l 669 257 q 708 397 687 337 l 906 972 l 1219 972 l 1219 0 m 662 -265 q 587 -238 617 -265 q 558 -172 558 -210 q 587 -106 558 -131 q 662 -80 617 -80 q 736 -106 708 -80 q 765 -172 765 -132 q 736 -238 765 -212 q 662 -265 708 -265 "},"Ѓ":{"x_min":111.234375,"x_max":690.4375,"ha":711,"o":"m 690 791 l 330 791 l 330 0 l 111 0 l 111 972 l 690 972 l 690 791 m 626 1281 l 413 1062 l 259 1062 l 435 1281 l 626 1281 "},"ò":{"x_min":48.828125,"x_max":800.296875,"ha":849,"o":"m 421 -16 q 148 80 247 -16 q 48 344 48 177 q 151 614 48 516 q 430 711 255 711 q 701 614 603 711 q 800 356 800 516 q 698 83 800 183 q 421 -16 597 -16 m 426 547 q 308 495 350 547 q 266 347 266 442 q 427 147 266 147 q 581 352 581 147 q 426 547 581 547 m 578 804 l 424 804 l 211 1023 l 401 1023 l 578 804 "},"^":{"x_min":137.671875,"x_max":847.09375,"ha":982,"o":"m 847 413 l 682 413 l 487 811 l 484 811 l 301 413 l 137 413 l 429 988 l 539 988 l 847 413 "},"Ӑ":{"x_min":6.78125,"x_max":966.46875,"ha":977,"o":"m 966 0 l 727 0 l 658 216 l 312 216 l 244 0 l 6 0 l 360 972 l 620 972 l 966 0 m 608 384 l 503 711 q 487 798 492 748 l 482 798 q 465 714 478 756 l 359 384 l 608 384 "},"к":{"x_min":90.203125,"x_max":783.34375,"ha":777,"o":"m 783 0 l 526 0 l 307 339 l 304 339 l 304 0 l 90 0 l 90 694 l 304 694 l 304 368 l 307 368 l 520 694 l 775 694 l 519 364 l 783 0 "},"Ȣ":{"x_min":50.1875,"x_max":925.09375,"ha":975,"o":"m 240 632 q 92 845 92 691 q 116 972 92 910 l 326 972 q 311 868 311 923 q 357 754 311 796 q 486 712 403 712 q 663 868 663 712 q 648 972 663 921 l 858 972 q 881 845 881 912 q 734 632 881 691 q 925 348 925 556 q 803 84 925 185 q 482 -16 680 -16 q 166 79 282 -16 q 50 335 50 175 q 240 632 50 551 m 484 523 q 334 476 387 523 q 280 345 280 429 q 335 219 280 265 q 484 172 389 172 q 639 219 583 172 q 694 349 694 267 q 637 475 694 427 q 484 523 581 523 "},"᾿":{"x_min":329.609375,"x_max":519.515625,"ha":849,"o":"m 365 772 l 329 829 q 411 915 392 865 q 360 939 381 917 q 339 988 339 960 q 362 1044 339 1022 q 423 1065 385 1065 q 493 1039 467 1065 q 519 969 519 1012 q 476 855 519 909 q 365 772 433 800 "},"ǘ":{"x_min":79.359375,"x_max":750.109375,"ha":840,"o":"m 750 0 l 536 0 l 536 105 l 533 105 q 320 -16 453 -16 q 79 275 79 -16 l 79 694 l 293 694 l 293 294 q 409 147 293 147 q 501 187 467 147 q 536 297 536 227 l 536 694 l 750 694 l 750 0 m 677 1223 l 465 1004 l 311 1004 l 487 1223 l 677 1223 m 544 810 q 486 831 509 810 q 462 883 462 852 q 485 935 462 915 q 544 955 508 955 q 603 935 580 955 q 626 883 626 915 q 604 831 626 851 q 544 810 581 810 m 246 810 q 187 831 210 810 q 164 883 164 852 q 187 935 164 915 q 246 955 211 955 q 305 935 282 955 q 328 883 328 915 q 306 831 328 851 q 246 810 283 810 "},"ṉ":{"x_min":90.203125,"x_max":760.96875,"ha":840,"o":"m 760 0 l 547 0 l 547 385 q 432 547 547 547 q 340 504 376 547 q 304 396 304 461 l 304 0 l 90 0 l 90 694 l 304 694 l 304 584 l 307 584 q 530 711 383 711 q 760 425 760 711 l 760 0 m 627 -176 l 229 -176 l 229 -59 l 627 -59 l 627 -176 "},"ѻ":{"x_min":48.828125,"x_max":904.078125,"ha":953,"o":"m 587 -12 q 476 -70 546 -70 q 365 -13 406 -70 q 132 96 216 2 q 48 344 48 191 q 131 593 48 498 q 360 706 213 687 q 479 773 400 773 q 596 708 556 773 q 822 596 741 691 q 904 356 904 501 q 820 103 904 200 q 587 -12 736 5 m 576 541 q 479 501 536 501 q 381 541 421 501 q 266 347 266 512 q 373 155 266 189 q 476 201 414 201 q 579 153 539 201 q 686 352 686 185 q 576 541 686 513 "},"ū":{"x_min":79.359375,"x_max":750.109375,"ha":840,"o":"m 750 0 l 536 0 l 536 105 l 533 105 q 320 -16 453 -16 q 79 275 79 -16 l 79 694 l 293 694 l 293 294 q 409 147 293 147 q 501 187 467 147 q 536 297 536 227 l 536 694 l 750 694 l 750 0 m 619 804 l 221 804 l 221 921 l 619 921 l 619 804 "},"č":{"x_min":48.828125,"x_max":644.375,"ha":667,"o":"m 616 25 q 406 -16 543 -16 q 147 80 246 -16 q 48 330 48 177 q 154 609 48 507 q 438 711 261 711 q 616 678 561 711 l 616 497 q 466 547 549 547 q 320 493 374 547 q 266 344 266 439 q 318 199 266 252 q 459 147 369 147 q 616 197 539 147 l 616 25 m 644 1024 l 482 804 l 314 804 l 155 1024 l 294 1024 l 399 897 l 505 1024 l 644 1024 "},"’":{"x_min":76.640625,"x_max":339.109375,"ha":403,"o":"m 339 995 l 208 694 l 76 694 l 153 995 l 339 995 "},"Ν":{"x_min":111.234375,"x_max":986.140625,"ha":1097,"o":"m 986 0 l 765 0 l 364 611 q 315 691 328 664 l 312 691 q 318 534 318 640 l 318 0 l 111 0 l 111 972 l 347 972 l 733 380 q 781 301 759 340 l 784 301 q 779 434 779 335 l 779 972 l 986 972 l 986 0 "},"Q":{"x_min":50.1875,"x_max":1003.09375,"ha":1053,"o":"m 705 18 l 987 -242 l 702 -242 l 501 -16 q 176 124 301 -10 q 50 473 50 259 q 183 846 50 704 q 539 988 316 988 q 874 852 746 988 q 1003 493 1003 715 q 924 193 1003 318 q 705 18 846 69 m 531 800 q 348 713 416 800 q 280 484 280 627 q 348 256 280 340 q 526 172 415 172 q 706 253 639 172 q 772 480 772 335 q 708 715 772 630 q 531 800 644 800 "},"ȝ":{"x_min":6.78125,"x_max":658.546875,"ha":686,"o":"m 6 -314 l 6 -147 q 149 -162 65 -162 q 359 -115 279 -162 q 440 10 440 -67 q 393 108 440 71 q 266 145 347 145 q 143 122 214 145 l 143 284 l 210 301 q 396 438 396 345 q 230 547 396 547 q 25 495 122 547 l 25 668 q 255 711 124 711 q 512 641 417 711 q 607 458 607 571 q 461 261 607 322 l 461 259 q 605 178 552 240 q 658 25 658 115 q 517 -225 658 -124 q 153 -326 375 -326 q 6 -314 59 -326 "},"ᾅ":{"x_min":49.515625,"x_max":858.625,"ha":884,"o":"m 858 694 l 713 356 l 826 0 l 612 0 l 580 145 l 576 145 q 333 -16 492 -16 q 126 76 203 -16 q 49 327 49 170 q 139 604 49 498 q 374 711 228 711 q 600 568 541 711 l 604 568 l 642 694 l 858 694 m 539 356 q 401 548 499 548 q 302 491 341 548 q 263 340 263 433 q 296 200 263 252 q 379 149 328 149 q 529 324 474 149 l 539 356 m 408 844 l 365 783 q 205 952 205 840 q 308 1049 205 1049 q 373 1027 348 1049 q 397 972 397 1005 q 325 897 397 904 q 408 844 341 868 m 679 1045 l 542 792 l 439 792 l 496 1045 l 679 1045 m 605 -255 q 462 -330 548 -330 q 325 -204 325 -330 l 325 -82 l 457 -82 l 457 -201 q 489 -237 457 -237 q 544 -204 518 -237 l 605 -255 "},"œ":{"x_min":48.828125,"x_max":1245.890625,"ha":1284,"o":"m 1245 286 l 791 286 q 983 134 800 134 q 1183 189 1096 134 l 1183 34 q 948 -16 1087 -16 q 683 111 777 -16 l 680 111 q 404 -15 588 -15 q 147 81 245 -15 q 48 344 48 178 q 148 613 48 514 q 412 712 248 712 q 574 679 503 712 q 678 592 644 645 l 682 592 q 937 711 762 711 q 1163 620 1081 711 q 1245 377 1245 529 l 1245 286 m 1045 417 q 927 567 1045 567 q 836 523 873 567 q 791 417 798 480 l 1045 417 m 427 547 q 308 494 351 547 q 266 347 266 442 q 426 148 266 148 q 581 349 581 148 q 541 495 581 443 q 427 547 501 547 "},"Ộ":{"x_min":50.1875,"x_max":1003.09375,"ha":1053,"o":"m 522 -16 q 181 119 313 -16 q 50 473 50 255 q 183 846 50 704 q 537 988 317 988 q 874 852 746 988 q 1003 493 1003 716 q 869 123 1003 263 q 522 -16 736 -16 m 531 800 q 348 713 416 800 q 280 484 280 627 q 348 256 280 340 q 526 172 416 172 q 706 253 639 172 q 772 480 772 335 q 708 716 772 632 q 531 800 643 800 m 781 1041 l 641 1041 l 534 1168 l 434 1041 l 294 1041 l 453 1261 l 621 1261 l 781 1041 m 520 -265 q 445 -238 475 -265 q 416 -172 416 -210 q 445 -106 416 -131 q 520 -80 475 -80 q 594 -106 566 -80 q 623 -172 623 -132 q 594 -238 623 -212 q 520 -265 566 -265 "},"ṩ":{"x_min":63.75,"x_max":569.703125,"ha":611,"o":"m 63 18 l 63 191 q 262 128 169 128 q 364 191 364 128 q 339 237 364 219 q 233 286 315 255 q 101 369 138 322 q 63 490 63 417 q 143 651 63 590 q 355 711 222 711 q 527 683 441 711 l 527 518 q 358 565 446 565 q 273 507 273 565 q 293 459 273 478 q 381 417 314 441 q 527 332 485 381 q 569 212 569 284 q 489 45 569 107 q 265 -16 408 -16 q 63 18 157 -16 m 315 -265 q 240 -238 270 -265 q 211 -172 211 -210 q 240 -106 211 -131 q 315 -80 270 -80 q 389 -106 361 -80 q 418 -172 418 -132 q 389 -238 418 -212 q 315 -265 361 -265 m 316 804 q 241 831 270 804 q 211 897 211 858 q 241 963 211 937 q 316 988 271 988 q 390 963 361 988 q 419 897 419 937 q 390 830 419 857 q 316 804 361 804 "},"ӗ":{"x_min":48.828125,"x_max":714.171875,"ha":751,"o":"m 714 286 l 261 286 q 451 134 271 134 q 653 189 566 134 l 653 34 q 402 -16 556 -16 q 141 76 234 -16 q 48 336 48 169 q 149 610 48 509 q 396 711 249 711 q 631 621 548 711 q 714 376 714 531 l 714 286 m 515 417 q 394 567 515 567 q 305 524 343 567 q 259 417 267 481 l 515 417 m 624 1012 q 554 860 616 916 q 393 804 493 804 q 232 862 294 804 q 167 1012 169 920 l 288 1012 q 396 921 300 921 q 502 1012 489 921 l 624 1012 "},"ϗ":{"x_min":0,"x_max":869.484375,"ha":869,"o":"m 869 -19 q 798 -206 869 -134 q 619 -278 727 -278 q 514 -257 563 -278 l 514 -104 q 605 -126 555 -126 q 705 -19 705 -126 l 705 -12 q 515 254 515 21 q 518 312 515 283 q 271 84 312 135 q 236 0 248 27 l 26 0 q 156 426 156 269 q 66 547 156 547 q 0 531 36 547 l 0 694 q 107 711 48 711 q 290 640 226 711 q 354 440 354 569 q 351 383 354 414 q 600 616 551 555 q 633 694 611 642 l 843 694 q 712 267 712 425 q 803 147 712 147 q 869 158 841 147 l 869 -19 "},"Ὲ":{"x_min":-46.265625,"x_max":864.5,"ha":910,"o":"m 864 0 l 281 0 l 281 972 l 842 972 l 842 794 l 500 794 l 500 577 l 818 577 l 818 400 l 500 400 l 500 177 l 864 177 l 864 0 m 208 742 l 94 742 l -46 972 l 143 972 l 208 742 "},"Ɵ":{"x_min":50.1875,"x_max":1003.09375,"ha":1053,"o":"m 522 -16 q 181 119 313 -16 q 50 473 50 255 q 183 846 50 704 q 537 988 317 988 q 874 852 746 988 q 1003 493 1003 716 q 869 123 1003 263 q 522 -16 736 -16 m 765 568 q 686 739 747 679 q 531 800 626 800 q 371 738 435 800 q 288 568 307 676 l 765 568 m 766 402 l 288 402 q 370 233 306 294 q 526 172 434 172 q 686 232 622 172 q 766 402 749 293 "},"Ѥ":{"x_min":111.234375,"x_max":1270.984375,"ha":1329,"o":"m 1270 34 q 992 -16 1164 -16 q 663 92 787 -16 q 518 396 539 202 l 330 396 l 330 0 l 111 0 l 111 972 l 330 972 l 330 569 l 520 569 q 680 877 549 766 q 1016 988 812 988 q 1270 952 1164 988 l 1270 751 q 1032 809 1168 809 q 841 747 914 809 q 752 569 769 684 l 1127 569 l 1127 396 l 754 396 q 839 223 768 284 q 1029 162 911 162 q 1270 225 1164 162 l 1270 34 "},"ș":{"x_min":63.75,"x_max":569.703125,"ha":611,"o":"m 63 18 l 63 191 q 262 128 169 128 q 364 191 364 128 q 339 237 364 219 q 233 286 315 255 q 101 369 138 322 q 63 490 63 417 q 143 651 63 590 q 355 711 222 711 q 527 683 441 711 l 527 518 q 358 565 446 565 q 273 507 273 565 q 293 459 273 478 q 381 417 314 441 q 527 332 485 381 q 569 212 569 284 q 489 45 569 107 q 265 -16 408 -16 q 63 18 157 -16 m 412 -75 l 298 -313 l 166 -313 l 227 -75 l 412 -75 "},"ἱ":{"x_min":101.609375,"x_max":442.875,"ha":456,"o":"m 442 9 q 317 -12 394 -12 q 104 214 104 -12 l 104 694 l 318 694 l 318 246 q 378 158 318 158 q 442 173 408 158 l 442 9 m 291 829 l 255 772 q 144 855 187 800 q 101 969 101 909 q 127 1039 101 1012 q 197 1065 153 1065 q 258 1044 235 1065 q 282 988 282 1022 q 261 939 282 960 q 210 915 239 917 q 291 829 229 864 "},"Ѵ":{"x_min":6.78125,"x_max":1140.09375,"ha":1150,"o":"m 1140 735 l 952 735 q 901 809 949 809 q 833 735 858 809 l 585 0 l 337 0 l 6 972 l 242 972 l 445 295 q 465 198 461 240 l 469 198 q 490 298 474 242 l 628 763 q 898 988 694 988 q 1071 922 1008 988 q 1140 735 1135 855 "},"Ȫ":{"x_min":50.1875,"x_max":1003.09375,"ha":1053,"o":"m 522 -16 q 181 119 313 -16 q 50 473 50 255 q 183 846 50 704 q 537 988 317 988 q 874 852 746 988 q 1003 493 1003 716 q 869 123 1003 263 q 522 -16 736 -16 m 531 800 q 348 713 416 800 q 280 484 280 627 q 348 256 280 340 q 526 172 416 172 q 706 253 639 172 q 772 480 772 335 q 708 716 772 632 q 531 800 643 800 m 724 1276 l 327 1276 l 327 1393 l 724 1393 l 724 1276 m 660 1082 q 602 1103 625 1082 q 579 1155 579 1124 q 602 1207 579 1187 q 660 1227 624 1227 q 719 1207 696 1227 q 742 1155 742 1187 q 720 1103 742 1123 q 660 1082 698 1082 m 390 1082 q 331 1103 355 1082 q 308 1155 308 1124 q 332 1207 308 1187 q 390 1227 355 1227 q 449 1207 426 1227 q 473 1155 473 1187 q 450 1103 473 1123 q 390 1082 428 1082 "},"ǎ":{"x_min":38.65625,"x_max":668.046875,"ha":747,"o":"m 668 0 l 465 0 l 465 99 l 462 99 q 255 -16 392 -16 q 96 40 154 -16 q 38 193 38 97 q 278 426 38 395 l 466 451 q 343 565 466 565 q 107 491 219 565 l 107 653 q 229 693 151 676 q 370 711 307 711 q 668 415 668 711 l 668 0 m 466 282 l 466 328 l 340 312 q 236 218 236 299 q 261 158 236 181 q 330 134 286 134 q 428 176 390 134 q 466 282 466 218 m 607 1016 l 445 796 l 277 796 l 118 1016 l 257 1016 l 362 889 l 468 1016 l 607 1016 "},"ɘ":{"x_min":37.296875,"x_max":702.640625,"ha":751,"o":"m 98 29 l 98 189 q 308 134 190 134 q 490 286 485 134 l 37 286 l 37 368 q 123 617 37 524 q 360 711 210 711 q 610 612 518 711 q 702 339 702 512 q 605 76 702 170 q 333 -16 508 -16 q 98 29 201 -16 m 491 417 q 453 524 489 482 q 360 567 418 567 q 236 417 236 567 l 491 417 "},"ạ":{"x_min":38.65625,"x_max":668.046875,"ha":747,"o":"m 668 0 l 465 0 l 465 99 l 462 99 q 255 -16 392 -16 q 96 40 154 -16 q 38 193 38 97 q 278 426 38 395 l 466 451 q 343 565 466 565 q 107 491 219 565 l 107 653 q 229 693 151 676 q 370 711 307 711 q 668 415 668 711 l 668 0 m 466 282 l 466 328 l 340 312 q 236 218 236 299 q 261 158 236 181 q 330 134 286 134 q 428 176 390 134 q 466 282 466 218 m 367 -265 q 292 -238 322 -265 q 263 -172 263 -210 q 292 -106 263 -131 q 367 -80 322 -80 q 441 -106 413 -80 q 470 -172 470 -132 q 441 -238 470 -212 q 367 -265 413 -265 "},"Ǖ":{"x_min":99.703125,"x_max":904.078125,"ha":1004,"o":"m 904 421 q 495 -16 904 -16 q 99 411 99 -16 l 99 972 l 319 972 l 319 408 q 503 172 319 172 q 685 400 685 172 l 685 972 l 904 972 l 904 421 m 701 1297 l 304 1297 l 304 1414 l 701 1414 l 701 1297 m 637 1103 q 579 1124 602 1103 q 556 1176 556 1145 q 579 1228 556 1208 q 637 1248 601 1248 q 696 1228 673 1248 q 719 1176 719 1208 q 697 1124 719 1144 q 637 1103 675 1103 m 367 1103 q 308 1124 332 1103 q 285 1176 285 1145 q 309 1228 285 1208 q 367 1248 332 1248 q 426 1228 403 1248 q 450 1176 450 1208 q 427 1124 450 1144 q 367 1103 405 1103 "},"д":{"x_min":12.203125,"x_max":826.75,"ha":861,"o":"m 826 -169 l 665 -169 l 665 0 l 170 0 l 170 -169 l 12 -169 l 12 151 l 73 151 q 229 694 221 381 l 716 694 l 716 151 l 826 151 l 826 -169 m 502 151 l 502 544 l 396 544 q 282 151 381 324 l 502 151 "},"ӥ":{"x_min":90.203125,"x_max":780.640625,"ha":872,"o":"m 780 0 l 585 0 l 585 454 q 529 355 559 400 l 293 0 l 90 0 l 90 694 l 286 694 l 286 254 q 333 339 307 299 l 569 694 l 780 694 l 780 0 m 588 804 q 513 830 542 804 q 484 897 484 857 q 513 964 484 938 q 588 990 542 990 q 663 964 633 990 q 692 897 692 937 q 663 830 692 856 q 588 804 634 804 m 277 804 q 202 831 231 804 q 173 897 173 857 q 203 964 173 937 q 277 990 233 990 q 352 964 323 990 q 381 897 381 937 q 352 830 381 855 q 277 804 323 804 "},"ʛ":{"x_min":48.828125,"x_max":797.59375,"ha":754,"o":"m 797 748 q 735 766 765 766 q 649 662 649 766 q 668 510 649 591 l 663 505 q 461 547 554 547 q 315 492 366 547 q 263 341 263 438 q 309 197 263 247 q 437 147 356 147 q 490 151 470 147 l 490 261 l 365 261 l 365 419 l 698 419 l 698 41 q 427 -16 575 -16 q 147 75 246 -16 q 48 335 48 168 q 156 604 48 498 q 448 711 263 711 q 524 702 480 711 l 524 720 q 577 836 524 789 q 710 883 629 883 q 797 866 753 883 l 797 748 "},"ʏ":{"x_min":-10.859375,"x_max":662.625,"ha":652,"o":"m 662 694 l 433 233 l 433 0 l 219 0 l 219 230 l -10 694 l 227 694 l 302 501 q 331 411 323 447 l 333 411 q 362 501 342 447 l 437 694 l 662 694 "},"¯":{"x_min":0,"x_max":288.25,"ha":288,"o":"m 288 473 l 0 473 l 0 514 l 288 514 l 288 473 "},"ƕ":{"x_min":90.203125,"x_max":1227.578125,"ha":1297,"o":"m 304 0 l 90 0 l 90 1028 l 304 1028 l 304 591 l 307 591 q 520 711 385 711 q 756 426 756 711 l 756 324 q 883 153 756 153 q 979 199 944 153 q 1013 326 1013 245 q 926 694 1013 493 l 1147 694 q 1227 328 1227 510 q 1133 74 1227 166 q 874 -16 1040 -16 q 628 67 712 -16 q 543 308 543 151 l 543 394 q 432 547 543 547 q 339 504 375 547 q 304 396 304 461 l 304 0 "},"ṛ":{"x_min":90.203125,"x_max":543.25,"ha":553,"o":"m 543 501 q 453 522 504 522 q 343 471 383 522 q 304 331 304 419 l 304 0 l 90 0 l 90 694 l 304 694 l 304 565 l 307 565 q 490 706 358 706 q 543 698 524 706 l 543 501 m 295 -265 q 220 -238 250 -265 q 191 -172 191 -210 q 220 -106 191 -131 q 295 -80 250 -80 q 369 -106 341 -80 q 398 -172 398 -132 q 369 -238 398 -212 q 295 -265 341 -265 "},"Ḙ":{"x_min":111.234375,"x_max":694.5,"ha":739,"o":"m 694 0 l 111 0 l 111 972 l 672 972 l 672 794 l 330 794 l 330 577 l 648 577 l 648 400 l 330 400 l 330 177 l 694 177 l 694 0 m 655 -320 l 515 -320 l 408 -193 l 308 -320 l 168 -320 l 327 -100 l 495 -100 l 655 -320 "},"З":{"x_min":48.828125,"x_max":722.3125,"ha":776,"o":"m 48 35 l 48 227 q 312 149 164 149 q 495 282 495 149 q 294 416 495 416 l 169 416 l 169 580 l 288 580 q 467 706 467 580 q 315 822 467 822 q 82 752 206 822 l 82 931 q 358 988 206 988 q 605 922 517 988 q 693 743 693 856 q 643 592 693 654 q 501 508 593 530 l 501 505 q 663 430 604 491 q 722 278 722 368 q 620 60 722 137 q 327 -16 518 -16 q 48 35 145 -16 "},"ϛ":{"x_min":48.828125,"x_max":689.078125,"ha":682,"o":"m 587 -209 l 356 -209 q 436 -92 436 -154 q 316 0 436 -40 q 109 129 170 49 q 48 337 48 209 q 111 555 48 464 q 287 686 174 647 q 381 709 299 689 q 482 745 463 729 q 501 779 501 760 q 491 830 501 805 l 672 830 q 689 738 689 783 q 664 654 689 690 q 596 598 640 619 q 459 554 552 577 q 335 509 370 532 q 283 445 301 485 q 266 347 266 404 q 302 234 266 279 q 430 155 337 189 q 611 50 576 101 q 647 -59 647 0 q 587 -209 647 -144 "},"⅝":{"x_min":90.875,"x_max":1251.71875,"ha":1341,"o":"m 90 408 l 90 532 q 225 491 160 491 q 326 572 326 491 q 210 650 326 650 q 107 642 171 650 l 107 973 l 444 973 l 444 857 l 231 857 l 231 758 q 272 760 257 760 q 418 712 365 760 q 471 583 471 664 q 408 438 471 495 q 239 381 345 381 q 90 408 152 381 m 1021 972 l 416 0 l 251 0 l 855 972 l 1021 972 m 932 300 q 841 431 841 344 q 897 545 841 500 q 1040 590 953 590 q 1183 548 1130 590 q 1237 439 1237 506 q 1137 302 1237 348 q 1251 156 1251 261 q 1192 32 1251 77 q 1027 -13 1132 -13 q 880 31 937 -13 q 823 149 823 75 q 932 300 823 250 m 1102 429 q 1040 486 1102 486 q 995 470 1013 486 q 976 429 976 454 q 1039 359 976 385 q 1102 429 1102 386 m 1034 243 q 959 155 959 213 q 982 109 959 127 q 1038 91 1004 91 q 1116 156 1116 91 q 1034 243 1116 214 "},"ẻ":{"x_min":48.828125,"x_max":714.171875,"ha":751,"o":"m 714 286 l 261 286 q 451 134 271 134 q 653 189 566 134 l 653 34 q 402 -16 556 -16 q 141 76 234 -16 q 48 336 48 169 q 149 610 48 509 q 396 711 249 711 q 631 621 548 711 q 714 376 714 531 l 714 286 m 515 417 q 394 567 515 567 q 305 524 343 567 q 259 417 267 481 l 515 417 m 427 859 l 427 826 l 332 826 l 332 910 q 413 954 413 915 q 357 991 413 991 q 304 984 331 991 l 304 1064 q 382 1068 365 1068 q 524 961 524 1068 q 427 859 524 876 "},"ữ":{"x_min":79.359375,"x_max":940.015625,"ha":928,"o":"m 750 603 l 750 0 l 536 0 l 536 105 l 533 105 q 320 -16 453 -16 q 79 275 79 -16 l 79 694 l 293 694 l 293 294 q 409 147 293 147 q 501 187 467 147 q 536 297 536 227 l 536 694 l 731 694 q 816 794 816 694 q 804 865 816 824 l 929 865 q 940 786 940 832 q 890 657 940 706 q 750 603 840 608 m 662 1015 q 624 868 662 920 q 521 816 587 816 q 408 845 463 816 q 324 877 347 877 q 270 804 270 877 l 174 804 q 212 950 174 898 q 316 1003 249 1003 q 430 969 371 1003 q 511 940 484 940 q 564 1015 564 940 l 662 1015 "},"ḃ":{"x_min":90.203125,"x_max":812.515625,"ha":861,"o":"m 307 80 l 304 80 l 304 0 l 90 0 l 90 1028 l 304 1028 l 304 590 l 307 590 q 533 711 386 711 q 739 619 667 711 q 812 366 812 526 q 727 88 812 193 q 501 -16 642 -16 q 307 80 373 -16 m 301 373 l 301 302 q 339 191 301 235 q 438 147 378 147 q 552 203 512 147 q 592 364 592 260 q 555 498 592 450 q 450 547 518 547 q 343 499 385 547 q 301 373 301 451 m 514 804 q 439 831 468 804 q 409 897 409 858 q 439 963 409 937 q 514 988 469 988 q 588 963 559 988 q 617 897 617 937 q 588 830 617 857 q 514 804 559 804 "},"ʐ":{"x_min":16.953125,"x_max":755.546875,"ha":667,"o":"m 755 -168 q 658 -190 703 -190 q 534 -145 583 -190 q 484 -31 484 -100 q 486 0 484 -14 l 16 0 l 16 88 l 365 536 l 51 536 l 51 694 l 637 694 l 637 588 l 307 158 l 640 158 q 611 8 611 54 q 687 -73 611 -73 q 755 -52 716 -73 l 755 -168 "},"é":{"x_min":48.828125,"x_max":714.171875,"ha":751,"o":"m 714 286 l 261 286 q 451 134 271 134 q 653 189 566 134 l 653 34 q 402 -16 556 -16 q 141 76 234 -16 q 48 336 48 169 q 149 610 48 509 q 396 711 249 711 q 631 621 548 711 q 714 376 714 531 l 714 286 m 515 417 q 394 567 515 567 q 305 524 343 567 q 259 417 267 481 l 515 417 m 624 1023 l 411 804 l 257 804 l 433 1023 l 624 1023 "},"Ş":{"x_min":67.828125,"x_max":701.28125,"ha":745,"o":"m 416 -10 l 416 -55 q 543 -168 543 -61 q 327 -308 543 -308 q 267 -305 296 -308 l 267 -212 q 316 -216 291 -216 q 400 -166 400 -216 q 324 -122 400 -122 q 299 -123 316 -122 l 299 -16 q 71 37 160 -10 l 71 254 q 328 155 188 155 q 433 182 396 155 q 470 254 470 210 q 439 326 470 292 q 290 415 407 360 q 67 699 67 520 q 164 909 67 830 q 422 988 261 988 q 658 951 564 988 l 658 748 q 434 816 560 816 q 335 789 371 816 q 298 718 298 762 q 327 644 298 674 q 448 569 356 613 q 647 433 592 501 q 701 273 701 365 q 628 82 701 158 q 416 -10 555 7 "},"ὂ":{"x_min":48.828125,"x_max":800.296875,"ha":849,"o":"m 421 -16 q 148 80 247 -16 q 48 344 48 177 q 151 614 48 516 q 430 711 255 711 q 701 614 603 711 q 800 356 800 516 q 698 83 800 183 q 421 -16 597 -16 m 426 547 q 308 495 350 547 q 266 347 266 442 q 427 147 266 147 q 581 352 581 147 q 426 547 581 547 m 209 783 l 166 844 q 249 897 233 868 q 177 972 177 904 q 201 1028 177 1006 q 266 1049 226 1049 q 368 952 368 1049 q 209 783 368 840 m 623 792 l 520 792 l 383 1045 l 566 1045 l 623 792 "},"Ủ":{"x_min":99.703125,"x_max":904.078125,"ha":1004,"o":"m 904 421 q 495 -16 904 -16 q 99 411 99 -16 l 99 972 l 319 972 l 319 408 q 503 172 319 172 q 685 400 685 172 l 685 972 l 904 972 l 904 421 m 526 1095 l 526 1062 l 431 1062 l 431 1146 q 512 1190 512 1151 q 456 1227 512 1227 q 403 1220 430 1227 l 403 1300 q 481 1304 464 1304 q 623 1197 623 1304 q 526 1095 623 1112 "},"H":{"x_min":111.234375,"x_max":952.90625,"ha":1064,"o":"m 952 0 l 733 0 l 733 396 l 330 396 l 330 0 l 111 0 l 111 972 l 330 972 l 330 584 l 733 584 l 733 972 l 952 972 l 952 0 "},"î":{"x_min":-41.96875,"x_max":445.671875,"ha":395,"o":"m 304 0 l 90 0 l 90 694 l 304 694 l 304 0 m 445 804 l 305 804 l 198 931 l 98 804 l -41 804 l 117 1024 l 285 1024 l 445 804 "},"ύ":{"x_min":84.78125,"x_max":785.375,"ha":855,"o":"m 84 694 l 299 694 l 299 326 q 436 153 299 153 q 569 318 569 153 q 482 694 569 493 l 705 694 q 785 321 785 510 q 690 72 785 162 q 430 -16 596 -16 q 174 67 264 -16 q 84 301 84 151 l 84 694 m 576 1022 l 435 792 l 321 792 l 385 1022 l 576 1022 "},"ϰ":{"x_min":0,"x_max":869.484375,"ha":869,"o":"m 869 0 q 762 -16 821 -16 q 579 53 642 -16 q 515 254 515 124 q 518 312 515 283 q 271 84 312 135 q 236 0 248 27 l 26 0 q 156 426 156 269 q 66 547 156 547 q 0 531 36 547 l 0 694 q 107 711 48 711 q 290 640 226 711 q 354 440 354 569 q 351 383 354 414 q 600 616 551 555 q 633 694 611 642 l 843 694 q 712 267 712 425 q 803 147 712 147 q 869 162 833 147 l 869 0 "},"ʪ":{"x_min":90.203125,"x_max":876.265625,"ha":918,"o":"m 90 1028 l 304 1028 l 304 320 q 356 176 304 211 q 493 141 408 141 q 665 216 665 141 q 644 255 665 239 q 550 299 623 270 q 436 375 467 331 q 405 489 405 419 q 483 650 405 590 q 694 711 561 711 q 854 686 779 711 l 854 520 q 697 565 778 565 q 615 505 615 565 q 633 463 615 478 q 720 416 651 447 q 842 330 809 376 q 876 219 876 284 q 771 47 876 112 q 483 -16 666 -16 q 236 24 319 -16 q 121 131 152 66 q 90 307 90 197 l 90 1028 "},"ǰ":{"x_min":-90.203125,"x_max":441.375,"ha":395,"o":"m 304 12 q 229 -233 304 -141 q 12 -326 153 -326 q -90 -305 -34 -326 l -90 -137 q -10 -162 -45 -162 q 90 -4 90 -162 l 90 694 l 304 694 l 304 12 m 441 1016 l 279 796 l 111 796 l -47 1016 l 91 1016 l 196 889 l 302 1016 l 441 1016 "},"Ἕ":{"x_min":-10.125,"x_max":1092.5,"ha":1146,"o":"m 1092 0 l 509 0 l 509 972 l 1070 972 l 1070 794 l 728 794 l 728 577 l 1046 577 l 1046 400 l 728 400 l 728 177 l 1092 177 l 1092 0 m 192 771 l 149 710 q -10 879 -10 767 q 92 976 -10 976 q 157 954 132 976 q 181 899 181 932 q 109 824 181 831 q 192 771 125 795 m 463 972 l 326 719 l 223 719 l 280 972 l 463 972 "},"ḧ":{"x_min":90.203125,"x_max":759.84375,"ha":836,"o":"m 756 0 l 543 0 l 543 394 q 432 547 543 547 q 339 504 375 547 q 304 396 304 461 l 304 0 l 90 0 l 90 1028 l 304 1028 l 304 591 l 307 591 q 520 711 385 711 q 756 426 756 711 l 756 0 m 655 1041 q 580 1067 609 1041 q 551 1134 551 1094 q 580 1201 551 1175 q 655 1227 609 1227 q 730 1201 700 1227 q 759 1134 759 1174 q 730 1067 759 1093 q 655 1041 701 1041 m 344 1041 q 269 1068 298 1041 q 240 1134 240 1094 q 270 1201 240 1174 q 344 1227 300 1227 q 419 1201 390 1227 q 448 1134 448 1174 q 419 1067 448 1092 q 344 1041 390 1041 "},"ɓ":{"x_min":90.203125,"x_max":809.796875,"ha":859,"o":"m 307 80 l 304 80 l 304 0 l 90 0 l 90 706 q 185 956 90 868 q 458 1044 280 1044 q 619 1019 545 1044 l 619 848 q 465 880 546 880 q 304 708 304 880 l 304 590 l 307 590 q 530 711 387 711 q 737 619 664 711 q 809 366 809 526 q 725 88 809 193 q 499 -16 640 -16 q 307 80 374 -16 m 301 373 l 301 302 q 340 191 301 236 q 440 147 379 147 q 554 204 514 147 q 594 364 594 261 q 556 498 594 449 q 450 547 518 547 q 343 499 385 547 q 301 373 301 451 "},"ǫ":{"x_min":48.828125,"x_max":800.296875,"ha":849,"o":"m 480 -13 q 412 -133 412 -92 q 458 -179 412 -179 q 498 -168 478 -179 l 498 -266 q 416 -280 467 -280 q 279 -168 279 -280 q 369 -13 279 -95 q 133 95 218 0 q 48 344 48 191 q 151 614 48 516 q 430 711 255 711 q 701 614 603 711 q 800 356 800 516 q 715 101 800 200 q 480 -13 630 3 m 426 547 q 308 495 350 547 q 266 347 266 442 q 427 147 266 147 q 581 352 581 147 q 426 547 581 547 "},"Ṥ":{"x_min":67.828125,"x_max":701.28125,"ha":745,"o":"m 71 37 l 71 254 q 328 155 188 155 q 433 182 396 155 q 470 254 470 210 q 439 325 470 292 q 290 415 408 359 q 67 699 67 520 q 164 909 67 830 q 422 988 261 988 q 658 951 564 988 l 658 748 q 434 816 560 816 q 335 789 371 816 q 298 718 298 762 q 327 644 298 674 q 448 569 356 613 q 647 433 592 501 q 701 273 701 365 q 604 61 701 139 q 323 -16 507 -16 q 71 37 172 -16 m 302 1144 q 240 1166 265 1144 q 215 1221 215 1188 q 240 1276 215 1255 q 302 1297 265 1297 q 365 1276 341 1297 q 389 1221 389 1254 q 365 1166 389 1188 q 302 1144 340 1144 m 685 1228 l 505 1062 l 372 1062 l 494 1228 l 685 1228 "},"†":{"x_min":41.375,"x_max":519.515625,"ha":564,"o":"m 519 642 l 351 642 l 351 164 l 209 164 l 209 642 l 41 642 l 41 762 l 209 762 l 209 972 l 351 972 l 351 762 l 519 762 l 519 642 "},"°":{"x_min":78,"x_max":463.90625,"ha":528,"o":"m 270 607 q 133 662 189 607 q 78 798 78 718 q 133 933 78 878 q 270 988 189 988 q 407 933 350 988 q 463 798 463 878 q 407 662 463 718 q 270 607 350 607 m 270 886 q 208 861 233 886 q 183 798 183 835 q 208 736 183 762 q 270 710 233 710 q 332 736 306 710 q 358 798 358 762 q 332 861 358 835 q 270 886 307 886 "},"Ξ":{"x_min":40.6875,"x_max":728.40625,"ha":769,"o":"m 712 790 l 56 790 l 56 972 l 712 972 l 712 790 m 613 399 l 154 399 l 154 578 l 613 578 l 613 399 m 728 0 l 40 0 l 40 183 l 728 183 l 728 0 "},"ồ":{"x_min":-58.8125,"x_max":800.296875,"ha":849,"o":"m 421 -16 q 148 80 247 -16 q 48 344 48 177 q 151 614 48 516 q 430 711 255 711 q 701 614 603 711 q 800 356 800 516 q 698 83 800 183 q 421 -16 597 -16 m 426 547 q 308 495 350 547 q 266 347 266 442 q 427 147 266 147 q 581 352 581 147 q 426 547 581 547 m 253 929 l 120 929 l -58 1096 l 131 1096 l 253 929 m 662 826 l 525 826 l 430 919 l 327 826 l 190 826 l 345 995 l 507 995 l 662 826 "},"Ԃ":{"x_min":40.015625,"x_max":1163.828125,"ha":1247,"o":"m 1163 290 q 1086 65 1163 147 q 873 -16 1009 -16 q 637 108 714 -16 q 368 -16 547 -16 q 40 302 40 -16 q 131 529 40 449 q 397 608 223 608 l 534 608 l 534 972 l 754 972 l 754 282 q 780 197 754 230 q 851 164 807 164 q 944 282 944 164 l 944 608 l 1163 608 l 1163 290 m 534 294 l 534 442 l 432 442 q 270 307 270 442 q 412 166 270 166 q 534 294 534 166 "},"΄":{"x_min":128.1875,"x_max":383.203125,"ha":440,"o":"m 383 1022 l 242 792 l 128 792 l 192 1022 l 383 1022 "},"ŵ":{"x_min":10.859375,"x_max":1096.015625,"ha":1108,"o":"m 1096 694 l 895 0 l 670 0 l 568 406 q 556 495 558 447 l 552 495 q 539 409 548 442 l 429 0 l 206 0 l 10 694 l 229 694 l 324 241 q 335 164 331 209 l 339 164 q 351 244 342 211 l 470 694 l 674 694 l 781 241 q 791 162 786 224 l 796 162 q 807 241 799 202 l 897 694 l 1096 694 m 797 804 l 657 804 l 550 931 l 450 804 l 310 804 l 469 1024 l 637 1024 l 797 804 "},"ʖ":{"x_min":6.78125,"x_max":581.921875,"ha":610,"o":"m 6 31 l 6 221 q 212 162 101 162 q 325 189 284 162 q 366 262 366 217 q 271 409 366 316 q 164 548 189 491 q 139 683 139 605 l 139 1028 l 352 1028 l 352 690 q 372 603 352 638 q 455 503 391 569 q 558 373 534 424 q 581 265 581 321 q 483 61 581 140 q 221 -16 385 -16 q 6 31 111 -16 "},"ǁ":{"x_min":141.75,"x_max":623.96875,"ha":764,"o":"m 623 -326 l 453 -326 l 453 1062 l 623 1062 l 623 -326 m 312 -326 l 141 -326 l 141 1062 l 312 1062 l 312 -326 "},"Ḱ":{"x_min":111.234375,"x_max":919.671875,"ha":901,"o":"m 919 0 l 642 0 l 359 422 q 333 476 351 434 l 330 476 l 330 0 l 111 0 l 111 972 l 330 972 l 330 512 l 333 512 q 360 567 341 531 l 629 972 l 890 972 l 551 508 l 919 0 m 686 1258 l 473 1039 l 319 1039 l 495 1258 l 686 1258 "},"ᾚ":{"x_min":-20,"x_max":1370.90625,"ha":1484,"o":"m 1370 0 l 1151 0 l 1151 396 l 748 396 l 748 0 l 529 0 l 529 972 l 748 972 l 748 584 l 1151 584 l 1151 972 l 1370 972 l 1370 0 m 23 710 l -20 771 q 63 824 47 795 q -8 899 -8 831 q 15 955 -8 933 q 80 976 40 976 q 182 879 182 976 q 23 710 182 767 m 437 719 l 334 719 l 197 972 l 380 972 l 437 719 m 1166 -255 q 1023 -330 1109 -330 q 886 -204 886 -330 l 886 -82 l 1018 -82 l 1018 -201 q 1050 -237 1018 -237 q 1105 -204 1079 -237 l 1166 -255 "},"№":{"x_min":111.234375,"x_max":1602.640625,"ha":1671,"o":"m 1313 411 q 1104 486 1178 411 q 1030 698 1030 562 q 1107 911 1030 836 q 1321 987 1183 987 q 1528 911 1454 987 q 1602 708 1602 836 q 1526 490 1602 569 q 1313 411 1450 411 m 1318 845 q 1211 699 1211 845 q 1318 554 1211 554 q 1420 704 1420 554 q 1318 845 1420 845 m 930 0 l 710 0 l 359 598 q 315 682 345 622 l 312 682 q 318 524 318 630 l 318 0 l 111 0 l 111 972 l 347 972 l 680 393 q 726 311 705 351 l 729 311 q 723 444 723 345 l 723 972 l 930 972 l 930 0 m 1582 160 l 1045 160 l 1045 312 l 1582 312 l 1582 160 "},"ẏ":{"x_min":-2.71875,"x_max":751.46875,"ha":747,"o":"m 751 694 l 469 -55 q 162 -326 367 -326 q 34 -308 84 -326 l 34 -137 q 127 -162 77 -162 q 242 -84 210 -162 l 279 1 l -2 694 l 234 694 l 364 271 q 383 179 376 232 l 385 179 q 408 270 392 218 l 539 694 l 751 694 m 384 804 q 309 831 338 804 q 279 897 279 858 q 309 963 279 937 q 384 988 339 988 q 458 963 429 988 q 487 897 487 937 q 458 830 487 857 q 384 804 429 804 "},"ƫ":{"x_min":27.8125,"x_max":510.03125,"ha":541,"o":"m 510 -19 q 439 -206 510 -134 q 259 -278 368 -278 q 153 -257 203 -278 l 153 -104 q 242 -126 195 -126 q 345 -16 345 -126 q 194 45 248 -16 q 140 218 140 107 l 140 536 l 27 536 l 27 694 l 140 694 l 140 844 l 352 905 l 352 694 l 510 694 l 510 536 l 352 536 l 352 255 q 440 147 352 147 q 510 166 474 147 l 510 -19 "},"ί":{"x_min":104.453125,"x_max":442.875,"ha":456,"o":"m 442 9 q 317 -12 394 -12 q 104 214 104 -12 l 104 694 l 318 694 l 318 246 q 378 158 318 158 q 442 173 408 158 l 442 9 m 391 1022 l 250 792 l 136 792 l 200 1022 l 391 1022 "},"ḵ":{"x_min":90.203125,"x_max":786.0625,"ha":777,"o":"m 786 0 l 529 0 l 307 344 l 304 344 l 304 0 l 90 0 l 90 1028 l 304 1028 l 304 373 l 307 373 l 514 694 l 768 694 l 519 368 l 786 0 m 610 -176 l 212 -176 l 212 -59 l 610 -59 l 610 -176 "},"ť":{"x_min":27.8125,"x_max":755.328125,"ha":659,"o":"m 510 8 q 366 -16 462 -16 q 140 218 140 -16 l 140 536 l 27 536 l 27 694 l 140 694 l 140 844 l 354 905 l 354 694 l 510 694 l 510 536 l 354 536 l 354 255 q 440 147 354 147 q 510 166 474 147 l 510 8 m 755 1008 l 641 770 l 509 770 l 570 1008 l 755 1008 "},"5":{"x_min":111.234375,"x_max":722.3125,"ha":799,"o":"m 111 25 l 111 208 q 323 147 210 147 q 456 187 408 147 q 503 297 503 227 q 299 441 503 441 q 139 429 233 441 l 139 972 l 677 972 l 677 797 l 322 797 l 322 602 q 402 607 364 607 q 637 528 552 607 q 722 316 722 449 q 621 76 722 169 q 347 -16 520 -16 q 111 25 206 -16 "},"ῃ":{"x_min":62.390625,"x_max":760.96875,"ha":849,"o":"m 760 -267 l 544 -267 l 544 366 q 431 528 544 528 q 339 486 374 528 q 304 380 304 445 l 304 0 l 90 0 l 90 458 q 62 694 90 636 l 282 694 q 303 583 303 651 l 306 583 q 530 711 383 711 q 760 425 760 711 l 760 -267 m 452 -255 q 309 -330 395 -330 q 172 -204 172 -330 l 172 -82 l 304 -82 l 304 -201 q 336 -237 304 -237 q 391 -204 365 -237 l 452 -255 "},"Ѕ":{"x_min":67.828125,"x_max":701.28125,"ha":745,"o":"m 71 37 l 71 254 q 328 155 188 155 q 433 182 396 155 q 470 254 470 210 q 439 325 470 292 q 290 415 408 359 q 67 699 67 520 q 164 909 67 830 q 422 988 261 988 q 658 951 564 988 l 658 748 q 434 816 560 816 q 335 789 371 816 q 298 718 298 762 q 327 644 298 674 q 448 569 356 613 q 647 433 592 501 q 701 273 701 365 q 604 61 701 139 q 323 -16 507 -16 q 71 37 172 -16 "},"Ẍ":{"x_min":4.0625,"x_max":905.421875,"ha":910,"o":"m 905 0 l 645 0 l 478 316 q 458 381 468 334 l 455 381 q 433 314 451 359 l 265 0 l 4 0 l 314 486 l 30 972 l 297 972 l 436 680 q 465 598 452 646 l 467 598 q 498 683 476 627 l 653 972 l 897 972 l 605 490 l 905 0 m 628 1041 q 553 1067 582 1041 q 524 1134 524 1094 q 553 1201 524 1175 q 628 1227 582 1227 q 703 1201 673 1227 q 732 1134 732 1174 q 703 1067 732 1093 q 628 1041 674 1041 m 317 1041 q 242 1068 271 1041 q 213 1134 213 1094 q 243 1201 213 1174 q 317 1227 273 1227 q 392 1201 363 1227 q 421 1134 421 1174 q 392 1067 421 1092 q 317 1041 363 1041 "},"□":{"x_min":98.34375,"x_max":739.265625,"ha":839,"o":"m 739 0 l 98 0 l 98 640 l 739 640 l 739 0 m 687 51 l 687 588 l 149 588 l 149 51 l 687 51 "},"ῳ":{"x_min":62.390625,"x_max":1092.609375,"ha":1155,"o":"m 577 103 l 575 103 q 361 -16 509 -16 q 142 76 221 -16 q 62 327 62 168 q 149 694 62 500 l 367 694 q 263 326 263 493 q 371 154 263 154 q 477 318 477 154 l 477 508 l 678 508 l 678 318 q 782 154 678 154 q 890 326 890 154 q 786 694 890 493 l 1004 694 q 1092 326 1092 499 q 1011 75 1092 166 q 791 -16 931 -16 q 577 103 641 -16 m 791 -255 q 648 -330 734 -330 q 511 -204 511 -330 l 511 -82 l 643 -82 l 643 -201 q 675 -237 643 -237 q 730 -204 704 -237 l 791 -255 "},",":{"x_min":26.453125,"x_max":293,"ha":376,"o":"m 293 170 l 193 -172 l 26 -172 l 95 170 l 293 170 "},"\"":{"x_min":119.375,"x_max":565.640625,"ha":685,"o":"m 565 984 l 544 683 l 408 683 l 387 984 l 565 984 m 297 984 l 276 685 l 139 685 l 119 984 l 297 984 "},"Ӳ":{"x_min":15.59375,"x_max":859.984375,"ha":854,"o":"m 859 972 l 555 305 q 394 50 470 118 q 201 -16 318 -16 q 75 5 124 -16 l 75 205 q 190 169 130 169 q 335 302 272 169 l 15 972 l 265 972 l 426 583 q 448 503 440 548 l 450 503 q 473 580 457 540 l 629 972 l 859 972 m 750 1278 l 579 1062 l 436 1062 l 581 1278 l 750 1278 m 493 1278 l 325 1062 l 182 1062 l 325 1278 l 493 1278 "},"ҙ":{"x_min":54.265625,"x_max":619.21875,"ha":667,"o":"m 376 -8 q 419 -118 419 -65 q 383 -203 419 -170 q 290 -236 347 -236 q 185 -219 234 -236 l 185 -126 q 266 -144 236 -144 q 305 -108 305 -144 q 273 -13 305 -69 q 54 18 147 -12 l 54 173 q 254 127 154 127 q 398 206 398 127 q 241 288 398 288 l 144 288 l 144 421 l 242 421 q 377 499 377 421 q 257 569 377 569 q 75 529 166 569 l 75 676 q 295 711 197 711 q 598 523 598 711 q 437 362 598 393 l 437 359 q 571 307 522 352 q 619 196 619 263 q 376 -8 619 21 "},"ė":{"x_min":48.828125,"x_max":714.171875,"ha":751,"o":"m 714 286 l 261 286 q 451 134 271 134 q 653 189 566 134 l 653 34 q 402 -16 556 -16 q 141 76 234 -16 q 48 336 48 169 q 149 610 48 509 q 396 711 249 711 q 631 621 548 711 q 714 376 714 531 l 714 286 m 515 417 q 394 567 515 567 q 305 524 343 567 q 259 417 267 481 l 515 417 m 404 804 q 329 831 358 804 q 299 897 299 858 q 329 963 299 937 q 404 988 359 988 q 478 963 449 988 q 507 897 507 937 q 478 830 507 857 q 404 804 449 804 "},"ề":{"x_min":-77.8125,"x_max":714.171875,"ha":751,"o":"m 714 286 l 261 286 q 451 134 271 134 q 653 189 566 134 l 653 34 q 402 -16 556 -16 q 141 76 234 -16 q 48 336 48 169 q 149 610 48 509 q 396 711 249 711 q 631 621 548 711 q 714 376 714 531 l 714 286 m 515 417 q 394 567 515 567 q 305 524 343 567 q 259 417 267 481 l 515 417 m 234 929 l 101 929 l -77 1096 l 112 1096 l 234 929 m 643 826 l 506 826 l 411 919 l 308 826 l 171 826 l 326 995 l 488 995 l 643 826 "},"ῴ":{"x_min":62.390625,"x_max":1092.609375,"ha":1155,"o":"m 577 103 l 575 103 q 361 -16 509 -16 q 142 76 221 -16 q 62 327 62 168 q 149 694 62 500 l 367 694 q 263 326 263 493 q 371 154 263 154 q 477 318 477 154 l 477 508 l 678 508 l 678 318 q 782 154 678 154 q 890 326 890 154 q 786 694 890 493 l 1004 694 q 1092 326 1092 499 q 1011 75 1092 166 q 791 -16 931 -16 q 577 103 641 -16 m 755 1022 l 614 792 l 500 792 l 564 1022 l 755 1022 "},"Í":{"x_min":74.296875,"x_max":441.21875,"ha":440,"o":"m 330 0 l 111 0 l 111 972 l 330 972 l 330 0 m 441 1281 l 228 1062 l 74 1062 l 250 1281 l 441 1281 "},"Ú":{"x_min":99.703125,"x_max":904.078125,"ha":1004,"o":"m 904 421 q 495 -16 904 -16 q 99 411 99 -16 l 99 972 l 319 972 l 319 408 q 503 172 319 172 q 685 400 685 172 l 685 972 l 904 972 l 904 421 m 738 1281 l 525 1062 l 371 1062 l 547 1281 l 738 1281 "},"ἠ":{"x_min":62.390625,"x_max":760.96875,"ha":849,"o":"m 760 -267 l 544 -267 l 544 366 q 431 528 544 528 q 339 486 374 528 q 304 380 304 445 l 304 0 l 90 0 l 90 458 q 62 694 90 636 l 282 694 q 303 583 303 651 l 306 583 q 530 711 383 711 q 760 425 760 711 l 760 -267 m 403 772 l 367 829 q 449 915 430 865 q 398 939 419 917 q 377 988 377 960 q 400 1044 377 1022 q 461 1065 423 1065 q 531 1039 505 1065 q 557 969 557 1012 q 514 855 557 909 q 403 772 471 800 "},"Ẇ":{"x_min":12.203125,"x_max":1383.578125,"ha":1396,"o":"m 1383 972 l 1126 0 l 883 0 l 722 623 q 706 733 709 672 l 704 733 q 686 623 697 666 l 520 0 l 267 0 l 12 972 l 251 972 l 388 324 q 401 213 397 283 l 405 213 q 425 327 408 265 l 601 972 l 836 972 l 995 319 q 1011 215 1004 283 l 1013 215 q 1028 323 1016 268 l 1162 972 l 1383 972 m 717 1041 q 642 1068 671 1041 q 612 1134 612 1095 q 642 1200 612 1174 q 717 1225 672 1225 q 791 1200 762 1225 q 820 1134 820 1174 q 791 1067 820 1094 q 717 1041 762 1041 "},"Ý":{"x_min":0,"x_max":844.390625,"ha":843,"o":"m 844 972 l 527 345 l 527 0 l 308 0 l 308 341 l 0 972 l 250 972 l 406 609 q 429 530 411 599 l 432 530 q 453 607 440 579 l 612 972 l 844 972 m 612 1259 l 399 1040 l 245 1040 l 421 1259 l 612 1259 "},"ǧ":{"x_min":48.828125,"x_max":771.140625,"ha":860,"o":"m 771 79 q 659 -220 771 -113 q 335 -326 547 -326 q 112 -286 194 -326 l 112 -105 q 328 -168 219 -168 q 497 -110 437 -168 q 556 44 556 -53 l 556 99 l 554 99 q 337 -16 480 -16 q 126 76 204 -16 q 48 327 48 170 q 135 607 48 503 q 364 711 222 711 q 554 613 491 711 l 556 613 l 556 694 l 771 694 l 771 79 m 559 333 l 559 388 q 520 500 559 454 q 419 547 481 547 q 307 491 347 547 q 266 335 266 436 q 305 197 266 248 q 411 147 343 147 q 518 198 477 147 q 559 333 559 249 m 655 1016 l 493 796 l 325 796 l 166 1016 l 305 1016 l 410 889 l 516 1016 l 655 1016 "},"ᾶ":{"x_min":49.515625,"x_max":858.625,"ha":884,"o":"m 858 694 l 713 356 l 826 0 l 612 0 l 580 145 l 576 145 q 333 -16 492 -16 q 126 76 203 -16 q 49 327 49 170 q 139 604 49 498 q 374 711 228 711 q 600 568 541 711 l 604 568 l 642 694 l 858 694 m 539 356 q 401 548 499 548 q 302 491 341 548 q 263 340 263 433 q 296 200 263 252 q 379 149 328 149 q 529 324 474 149 l 539 356 m 643 797 l 521 797 q 413 889 509 889 q 308 797 321 889 l 186 797 q 255 949 194 893 q 416 1005 316 1005 q 578 947 515 1005 q 643 797 640 889 "},"ȍ":{"x_min":48.828125,"x_max":800.296875,"ha":849,"o":"m 421 -16 q 148 80 247 -16 q 48 344 48 177 q 151 614 48 516 q 430 711 255 711 q 701 614 603 711 q 800 356 800 516 q 698 83 800 183 q 421 -16 597 -16 m 426 547 q 308 495 350 547 q 266 347 266 442 q 427 147 266 147 q 581 352 581 147 q 426 547 581 547 m 650 804 l 506 804 l 339 1021 l 506 1021 l 650 804 m 396 804 l 253 804 l 82 1021 l 251 1021 l 396 804 "},"ã":{"x_min":38.65625,"x_max":668.046875,"ha":747,"o":"m 668 0 l 465 0 l 465 99 l 462 99 q 255 -16 392 -16 q 96 40 154 -16 q 38 193 38 97 q 278 426 38 395 l 466 451 q 343 565 466 565 q 107 491 219 565 l 107 653 q 229 693 151 676 q 370 711 307 711 q 668 415 668 711 l 668 0 m 466 282 l 466 328 l 340 312 q 236 218 236 299 q 261 158 236 181 q 330 134 286 134 q 428 176 390 134 q 466 282 466 218 m 615 1015 q 577 868 615 920 q 474 816 540 816 q 361 845 416 816 q 277 877 300 877 q 223 804 223 877 l 127 804 q 165 950 127 898 q 269 1003 202 1003 q 383 969 324 1003 q 464 940 437 940 q 517 1015 517 940 l 615 1015 "},"Ɗ":{"x_min":-34.59375,"x_max":1182.140625,"ha":1232,"o":"m 319 0 l 319 794 l 288 794 q 196 760 231 794 q 161 676 161 727 q 176 591 161 634 l -18 591 q -34 691 -34 635 q 55 891 -34 810 q 297 972 145 972 l 663 972 q 1182 498 1182 972 q 1040 135 1182 271 q 663 0 899 0 l 319 0 m 539 794 l 539 177 l 647 177 q 870 263 789 177 q 951 495 951 348 q 871 714 951 634 q 645 794 790 794 l 539 794 "},"Ҵ":{"x_min":19.671875,"x_max":1276.421875,"ha":1321,"o":"m 1276 -219 l 1097 -219 l 1097 0 l 295 0 l 295 794 l 19 794 l 19 972 l 792 972 l 792 794 l 515 794 l 515 187 l 918 187 l 918 972 l 1137 972 l 1137 187 l 1276 187 l 1276 -219 "},"ĩ":{"x_min":-47.265625,"x_max":440.375,"ha":395,"o":"m 304 0 l 90 0 l 90 694 l 304 694 l 304 0 m 440 1015 q 402 868 440 920 q 299 816 365 816 q 186 845 241 816 q 102 877 125 877 q 48 804 48 877 l -47 804 q -9 950 -47 898 q 94 1003 27 1003 q 208 969 149 1003 q 289 940 262 940 q 342 1015 342 940 l 440 1015 "},"ɦ":{"x_min":90.203125,"x_max":754.1875,"ha":831,"o":"m 754 0 l 543 0 l 543 389 q 432 543 543 543 q 339 500 374 543 q 304 392 304 458 l 304 0 l 90 0 l 90 706 q 185 956 90 868 q 458 1044 280 1044 q 619 1019 545 1044 l 619 848 q 465 880 546 880 q 304 708 304 880 l 304 591 l 307 591 q 520 711 386 711 q 754 426 754 711 l 754 0 "},"ŀ":{"x_min":90.203125,"x_max":601.421875,"ha":602,"o":"m 304 0 l 90 0 l 90 1028 l 304 1028 l 304 0 m 498 400 q 423 427 452 400 q 393 493 393 454 q 423 559 393 533 q 498 584 453 584 q 572 559 543 584 q 601 493 601 533 q 572 426 601 453 q 498 400 543 400 "},"῾":{"x_min":329.609375,"x_max":519.515625,"ha":849,"o":"m 519 829 l 483 772 q 372 855 415 800 q 329 969 329 909 q 355 1039 329 1012 q 425 1065 381 1065 q 486 1044 463 1065 q 510 988 510 1022 q 489 939 510 960 q 438 915 467 917 q 519 829 457 864 "},"ᾊ":{"x_min":-22,"x_max":1214.46875,"ha":1224,"o":"m 1214 0 l 975 0 l 906 216 l 560 216 l 492 0 l 254 0 l 608 972 l 868 972 l 1214 0 m 856 384 l 751 711 q 735 798 740 748 l 730 798 q 713 714 726 756 l 607 384 l 856 384 m 21 710 l -22 771 q 61 824 45 795 q -10 899 -10 831 q 13 955 -10 933 q 78 976 38 976 q 180 879 180 976 q 21 710 180 767 m 435 719 l 332 719 l 195 972 l 378 972 l 435 719 m 948 -255 q 805 -330 891 -330 q 668 -204 668 -330 l 668 -82 l 800 -82 l 800 -201 q 832 -237 800 -237 q 887 -204 861 -237 l 948 -255 "},"ẅ":{"x_min":10.859375,"x_max":1096.015625,"ha":1108,"o":"m 1096 694 l 895 0 l 670 0 l 568 406 q 556 495 558 447 l 552 495 q 539 409 548 442 l 429 0 l 206 0 l 10 694 l 229 694 l 324 241 q 335 164 331 209 l 339 164 q 351 244 342 211 l 470 694 l 674 694 l 781 241 q 791 162 786 224 l 796 162 q 807 241 799 202 l 897 694 l 1096 694 m 731 804 q 656 830 685 804 q 627 897 627 857 q 656 964 627 938 q 731 990 685 990 q 806 964 776 990 q 835 897 835 937 q 806 830 835 856 q 731 804 777 804 m 420 804 q 345 831 374 804 q 316 897 316 857 q 346 964 316 937 q 420 990 376 990 q 495 964 466 990 q 524 897 524 937 q 495 830 524 855 q 420 804 466 804 "},"ậ":{"x_min":38.65625,"x_max":668.046875,"ha":747,"o":"m 668 0 l 465 0 l 465 99 l 462 99 q 255 -16 392 -16 q 96 40 154 -16 q 38 193 38 97 q 278 426 38 395 l 466 451 q 343 565 466 565 q 107 491 219 565 l 107 653 q 229 693 151 676 q 370 711 307 711 q 668 415 668 711 l 668 0 m 466 282 l 466 328 l 340 312 q 236 218 236 299 q 261 158 236 181 q 330 134 286 134 q 428 176 390 134 q 466 282 466 218 m 627 804 l 487 804 l 380 931 l 280 804 l 140 804 l 299 1024 l 467 1024 l 627 804 m 362 -265 q 287 -238 317 -265 q 258 -172 258 -210 q 287 -106 258 -131 q 362 -80 317 -80 q 436 -106 408 -80 q 465 -172 465 -132 q 436 -238 465 -212 q 362 -265 408 -265 "},"ǡ":{"x_min":38.65625,"x_max":668.046875,"ha":747,"o":"m 668 0 l 465 0 l 465 99 l 462 99 q 255 -16 392 -16 q 96 40 154 -16 q 38 193 38 97 q 278 426 38 395 l 466 451 q 343 565 466 565 q 107 491 219 565 l 107 653 q 229 693 151 676 q 370 711 307 711 q 668 415 668 711 l 668 0 m 466 282 l 466 328 l 340 312 q 236 218 236 299 q 261 158 236 181 q 330 134 286 134 q 428 176 390 134 q 466 282 466 218 m 573 1023 l 176 1023 l 176 1140 l 573 1140 l 573 1023 m 374 829 q 315 850 338 829 q 292 902 292 871 q 316 954 292 934 q 374 974 339 974 q 433 954 410 974 q 457 902 457 934 q 434 850 457 870 q 374 829 412 829 "},"ɯ":{"x_min":79.359375,"x_max":1182.140625,"ha":1272,"o":"m 1182 0 l 967 0 l 967 108 l 965 108 q 740 -16 887 -16 q 539 112 594 -16 q 305 -16 459 -16 q 79 262 79 -16 l 79 694 l 293 694 l 293 298 q 404 147 293 147 q 490 192 456 147 q 523 305 523 238 l 523 694 l 737 694 l 737 294 q 847 147 737 147 q 934 191 902 147 q 967 308 967 235 l 967 694 l 1182 694 l 1182 0 "},"К":{"x_min":111.234375,"x_max":919.671875,"ha":901,"o":"m 919 0 l 642 0 l 359 422 q 333 476 351 434 l 330 476 l 330 0 l 111 0 l 111 972 l 330 972 l 330 512 l 333 512 q 360 567 341 531 l 629 972 l 890 972 l 551 508 l 919 0 "},"ʣ":{"x_min":48.828125,"x_max":1378.15625,"ha":1405,"o":"m 1378 0 l 554 0 l 554 95 l 551 95 q 337 -16 478 -16 q 128 75 208 -16 q 48 331 48 167 q 135 607 48 503 q 364 711 223 711 q 551 615 497 711 l 554 615 l 554 1028 l 768 1028 l 768 694 l 1375 694 l 1375 588 l 1044 158 l 1378 158 l 1378 0 m 559 333 l 559 394 q 519 504 559 461 q 416 547 478 547 q 304 491 345 547 q 263 337 263 434 q 409 147 263 147 q 519 197 478 147 q 559 333 559 247 m 1102 536 l 768 536 l 768 107 l 1102 536 "},"ΰ":{"x_min":84.78125,"x_max":785.375,"ha":855,"o":"m 84 694 l 299 694 l 299 326 q 436 153 299 153 q 569 318 569 153 q 482 694 569 493 l 705 694 q 785 321 785 510 q 690 72 785 162 q 430 -16 596 -16 q 174 67 264 -16 q 84 301 84 151 l 84 694 m 562 1072 l 425 819 l 322 819 l 379 1072 l 562 1072 m 615 803 q 545 828 573 803 q 518 890 518 853 q 545 953 518 929 q 615 978 573 978 q 685 953 657 978 q 712 890 712 928 q 685 827 712 852 q 615 803 658 803 m 201 803 q 130 828 158 803 q 103 890 103 853 q 131 953 103 929 q 201 978 159 978 q 271 953 244 978 q 298 890 298 928 q 271 827 298 852 q 201 803 244 803 "},"Ԏ":{"x_min":21.03125,"x_max":926.453125,"ha":1010,"o":"m 926 290 q 842 66 926 150 q 613 -16 757 -16 q 384 70 471 -16 q 297 286 297 158 l 297 794 l 21 794 l 21 972 l 794 972 l 794 794 l 516 794 l 516 282 q 543 197 516 230 q 613 164 569 164 q 706 282 706 164 l 706 585 l 926 585 l 926 290 "},"%":{"x_min":61.046875,"x_max":1143.484375,"ha":1205,"o":"m 291 479 q 124 545 187 479 q 61 722 61 611 q 128 914 61 843 q 308 986 196 986 q 477 921 416 986 q 537 740 537 857 q 470 550 537 620 q 291 479 403 479 m 304 866 q 205 729 205 866 q 299 598 205 598 q 396 734 396 598 q 304 866 396 866 m 1001 972 l 368 0 l 202 0 l 834 972 l 1001 972 m 897 -13 q 730 52 793 -13 q 666 229 666 118 q 734 421 666 350 q 914 493 801 493 q 1083 429 1022 493 q 1143 248 1143 365 q 1076 57 1143 128 q 897 -13 1009 -13 m 908 373 q 809 236 809 373 q 905 105 809 105 q 1001 241 1001 105 q 975 339 1001 304 q 908 373 950 373 "},"⅞":{"x_min":60.359375,"x_max":1195.71875,"ha":1285,"o":"m 480 906 l 271 396 l 121 396 l 328 855 l 60 855 l 60 972 l 480 972 l 480 906 m 966 972 l 361 0 l 196 0 l 800 972 l 966 972 m 876 300 q 785 431 785 344 q 841 545 785 500 q 984 590 897 590 q 1127 548 1074 590 q 1181 439 1181 506 q 1081 302 1181 348 q 1195 156 1195 261 q 1136 32 1195 77 q 971 -13 1076 -13 q 824 31 881 -13 q 767 149 767 75 q 876 300 767 250 m 1046 429 q 984 486 1046 486 q 939 470 957 486 q 920 429 920 454 q 983 359 920 385 q 1046 429 1046 386 m 978 243 q 903 155 903 213 q 926 109 903 127 q 982 91 948 91 q 1060 156 1060 91 q 978 243 1060 214 "},"ṍ":{"x_min":48.828125,"x_max":800.296875,"ha":849,"o":"m 421 -16 q 148 80 247 -16 q 48 344 48 177 q 151 614 48 516 q 430 711 255 711 q 701 614 603 711 q 800 356 800 516 q 698 83 800 183 q 421 -16 597 -16 m 426 547 q 308 495 350 547 q 266 347 266 442 q 427 147 266 147 q 581 352 581 147 q 426 547 581 547 m 609 1174 l 430 1007 l 296 1007 l 418 1174 l 609 1174 m 662 975 q 520 819 662 819 q 418 843 480 819 q 331 868 353 868 q 280 815 280 868 l 182 815 q 220 931 182 889 q 327 972 258 972 q 430 948 376 972 q 513 923 488 923 q 564 975 564 923 l 662 975 "},"Æ":{"x_min":-1.359375,"x_max":1254.03125,"ha":1299,"o":"m 1254 0 l 672 0 l 672 216 l 352 216 l 252 0 l -1 0 l 490 972 l 1232 972 l 1232 794 l 890 794 l 890 577 l 1208 577 l 1208 400 l 890 400 l 890 177 l 1254 177 l 1254 0 m 672 384 l 672 794 l 619 794 l 427 384 l 672 384 "},"₣":{"x_min":0,"x_max":673.46875,"ha":722,"o":"m 673 794 l 330 794 l 330 555 l 645 555 l 645 377 l 330 377 l 330 266 l 514 266 l 514 127 l 330 127 l 330 0 l 111 0 l 111 127 l 0 127 l 0 266 l 111 266 l 111 972 l 673 972 l 673 794 "},"Ṯ":{"x_min":21.03125,"x_max":794.203125,"ha":814,"o":"m 794 794 l 516 794 l 516 0 l 297 0 l 297 794 l 21 794 l 21 972 l 794 972 l 794 794 m 608 -176 l 210 -176 l 210 -59 l 608 -59 l 608 -176 "},"ǈ":{"x_min":111.234375,"x_max":1016.65625,"ha":1089,"o":"m 893 804 q 804 836 838 804 q 769 915 769 868 q 804 994 769 963 q 893 1024 838 1024 q 982 994 948 1024 q 1016 915 1016 963 q 982 835 1016 866 q 893 804 948 804 m 676 0 l 111 0 l 111 972 l 330 972 l 330 177 l 676 177 l 676 0 m 999 12 q 923 -233 999 -141 q 706 -326 848 -326 q 604 -305 659 -326 l 604 -137 q 683 -162 649 -162 q 784 -4 784 -162 l 784 694 l 999 694 l 999 12 "},"ῤ":{"x_min":87.484375,"x_max":809.796875,"ha":859,"o":"m 305 47 l 302 47 l 302 -267 l 87 -267 l 87 344 q 179 615 87 518 q 444 711 270 711 q 711 614 613 711 q 809 352 809 518 q 724 83 809 184 q 493 -16 638 -16 q 305 47 379 -16 m 302 208 q 436 147 358 147 q 591 347 591 147 q 549 491 591 434 q 439 547 506 547 q 302 366 302 547 l 302 208 m 383 772 l 347 829 q 429 915 410 865 q 378 939 399 917 q 357 988 357 960 q 380 1044 357 1022 q 441 1065 403 1065 q 511 1039 485 1065 q 537 969 537 1012 q 494 855 537 909 q 383 772 451 800 "},"ɠ":{"x_min":48.828125,"x_max":925.09375,"ha":859,"o":"m 925 864 q 852 880 892 880 q 768 771 768 880 l 768 79 q 656 -220 768 -114 q 333 -326 545 -326 q 112 -286 189 -326 l 112 -105 q 328 -168 219 -168 q 498 -112 439 -168 q 556 44 556 -56 l 556 99 l 554 99 q 336 -16 479 -16 q 126 75 203 -16 q 48 327 48 168 q 134 607 48 503 q 362 711 221 711 q 551 613 489 711 l 554 613 l 554 771 q 811 1044 554 1044 q 925 1028 874 1044 l 925 864 m 559 330 l 559 392 q 520 502 559 458 q 417 547 480 547 q 305 490 346 547 q 263 333 263 434 q 302 197 263 247 q 409 147 341 147 q 518 197 477 147 q 559 330 559 248 "},"Ą":{"x_min":6.78125,"x_max":966.46875,"ha":977,"o":"m 966 0 l 832 0 q 792 -108 792 -62 q 831 -144 792 -144 q 912 -126 864 -144 l 912 -219 q 807 -236 859 -236 q 714 -203 750 -236 q 678 -118 678 -170 q 727 0 678 -61 l 658 216 l 312 216 l 244 0 l 6 0 l 360 972 l 620 972 l 966 0 m 608 384 l 503 711 q 487 798 492 748 l 482 798 q 465 714 478 756 l 359 384 l 608 384 "},"ἧ":{"x_min":62.390625,"x_max":760.96875,"ha":849,"o":"m 760 -267 l 544 -267 l 544 366 q 431 528 544 528 q 339 486 374 528 q 304 380 304 445 l 304 0 l 90 0 l 90 458 q 62 694 90 636 l 282 694 q 303 583 303 651 l 306 583 q 530 711 383 711 q 760 425 760 711 l 760 -267 m 659 996 l 541 996 q 405 1074 509 1074 q 269 996 302 1074 l 151 996 q 243 1131 175 1084 q 405 1179 311 1179 q 567 1131 499 1179 q 659 996 635 1083 m 502 834 l 470 775 q 354 827 398 789 q 311 918 311 865 q 338 985 311 959 q 412 1012 366 1012 q 473 991 449 1012 q 497 940 497 971 q 427 869 497 876 q 502 834 450 843 "},"Њ":{"x_min":111.234375,"x_max":1414.09375,"ha":1453,"o":"m 701 0 l 701 411 l 330 411 l 330 0 l 111 0 l 111 972 l 330 972 l 330 597 l 701 597 l 701 972 l 919 972 l 919 605 l 1064 605 q 1414 319 1414 605 q 1319 83 1414 167 q 1051 0 1224 0 l 701 0 m 919 434 l 919 168 l 1019 168 q 1183 304 1183 168 q 1023 434 1183 434 l 919 434 "},"ћ":{"x_min":18.3125,"x_max":779.28125,"ha":856,"o":"m 779 0 l 568 0 l 568 375 q 457 527 568 527 q 363 486 398 527 q 328 379 328 446 l 328 0 l 115 0 l 115 794 l 18 794 l 18 933 l 115 933 l 115 1028 l 328 1028 l 328 933 l 552 933 l 552 794 l 328 794 l 328 576 l 331 576 q 545 695 409 695 q 779 411 779 695 l 779 0 "},"ϧ":{"x_min":-21.03125,"x_max":758.25,"ha":807,"o":"m 149 0 l -21 0 q 191 238 16 238 q 330 193 255 238 q 441 147 406 147 q 560 312 560 147 q 544 396 560 352 q 322 320 443 320 q 153 373 218 320 q 88 510 88 426 q 159 653 88 595 q 344 711 230 711 q 565 651 472 711 q 585 711 578 682 l 756 711 q 680 550 727 620 q 758 318 758 446 q 671 74 758 166 q 446 -16 584 -16 q 293 29 366 -16 q 201 75 221 75 q 149 0 161 75 m 465 512 q 337 567 408 567 q 257 514 257 567 q 330 465 257 465 q 465 512 411 465 "},"ѭ":{"x_min":90.203125,"x_max":1239.109375,"ha":1243,"o":"m 1239 0 l 1060 0 q 1008 131 1026 95 q 959 194 989 168 q 886 242 929 221 l 886 0 l 699 0 l 699 240 q 634 198 661 221 q 587 143 606 174 q 529 0 567 111 l 351 0 q 428 178 388 115 q 536 283 468 240 l 304 283 l 304 0 l 90 0 l 90 694 l 304 694 l 304 429 l 592 429 l 412 694 l 1180 694 l 958 360 q 1125 244 1066 314 q 1239 0 1184 173 m 897 563 l 706 563 l 780 427 q 801 375 792 406 l 804 375 q 825 426 811 399 l 897 563 "},"<":{"x_min":174.984375,"x_max":808.4375,"ha":982,"o":"m 808 42 l 174 331 l 174 441 l 808 744 l 808 583 l 356 389 l 356 385 l 808 204 l 808 42 "},"Ἁ":{"x_min":-5.390625,"x_max":1005.46875,"ha":1014,"o":"m 1005 0 l 766 0 l 697 216 l 351 216 l 283 0 l 45 0 l 399 972 l 659 972 l 1005 0 m 647 384 l 542 711 q 526 798 531 748 l 521 798 q 504 714 517 756 l 398 384 l 647 384 m 184 740 l 148 683 q 37 766 80 711 q -5 880 -5 820 q 20 950 -5 923 q 90 976 46 976 q 151 955 128 976 q 175 899 175 933 q 154 850 175 871 q 103 826 132 828 q 184 740 122 775 "},"t":{"x_min":27.8125,"x_max":510.03125,"ha":541,"o":"m 510 8 q 366 -16 462 -16 q 140 218 140 -16 l 140 536 l 27 536 l 27 694 l 140 694 l 140 844 l 354 905 l 354 694 l 510 694 l 510 536 l 354 536 l 354 255 q 440 147 354 147 q 510 166 474 147 l 510 8 "},"ù":{"x_min":79.359375,"x_max":750.109375,"ha":840,"o":"m 750 0 l 536 0 l 536 105 l 533 105 q 320 -16 453 -16 q 79 275 79 -16 l 79 694 l 293 694 l 293 294 q 409 147 293 147 q 501 187 467 147 q 536 297 536 227 l 536 694 l 750 694 l 750 0 m 532 804 l 378 804 l 165 1023 l 355 1023 l 532 804 "}}}
